STARTFONT 2.3
FONT -FontForge-Pacifico-Book-R-Normal--11-110-72-72-P-65-ISO10646-1
SIZE 11 72 72  2
FONTBOUNDINGBOX 25 22 -7 -5
COMMENT "Generated by fontforge, http://fontforge.sourceforge.net"
COMMENT "Copyright 2018 The Pacifico Project Authors (https://github.com/googlefonts/Pacifico)"
STARTPROPERTIES 41
FOUNDRY "FontForge"
FAMILY_NAME "Pacifico"
WEIGHT_NAME "Book"
SLANT "R"
SETWIDTH_NAME "Normal"
ADD_STYLE_NAME ""
PIXEL_SIZE 11
POINT_SIZE 110
RESOLUTION_X 72
RESOLUTION_Y 72
SPACING "P"
AVERAGE_WIDTH 65
CHARSET_REGISTRY "ISO10646"
CHARSET_ENCODING "1"
FONTNAME_REGISTRY ""
CHARSET_COLLECTIONS "ISO8859-2 ISO8859-5 ISO8859-9 ISO8859-4 ISO10646-1"
BITS_PER_PIXEL 2
FONT_NAME "Pacifico-Regular"
FACE_NAME "Pacifico Regular"
COPYRIGHT "Copyright 2018 The Pacifico Project Authors (https://github.com/googlefonts/Pacifico)"
FONT_VERSION "3.001"
FONT_ASCENT 9
FONT_DESCENT 2
UNDERLINE_POSITION -1
UNDERLINE_THICKNESS 1
X_HEIGHT 4
CAP_HEIGHT 8
DEFAULT_CHAR 1
RAW_ASCENT 800
RAW_DESCENT 200
NORM_SPACE 3
RELATIVE_WEIGHT 40
RELATIVE_SETWIDTH 50
SUPERSCRIPT_X 0
SUPERSCRIPT_Y 3
SUPERSCRIPT_SIZE 6
SUBSCRIPT_X 0
SUBSCRIPT_Y 0
SUBSCRIPT_SIZE 6
AVG_LOWERCASE_WIDTH 51
AVG_UPPERCASE_WIDTH 90
ENDPROPERTIES
CHARS 1514
STARTCHAR NULL.dup1
ENCODING 0
SWIDTH 0 0
DWIDTH 0 0
BBX 1 1 0 0
BITMAP
00
ENDCHAR
STARTCHAR nonmarkingreturn
ENCODING 13
SWIDTH 265 0
DWIDTH 3 0
BBX 1 1 0 0
BITMAP
00
ENDCHAR
STARTCHAR space
ENCODING 32
SWIDTH 265 0
DWIDTH 3 0
BBX 1 1 0 0
BITMAP
00
ENDCHAR
STARTCHAR exclam
ENCODING 33
SWIDTH 340 0
DWIDTH 4 0
BBX 4 9 0 0
BITMAP
07
0E
0D
1D
1C
28
10
74
74
ENDCHAR
STARTCHAR quotedbl
ENCODING 34
SWIDTH 510 0
DWIDTH 6 0
BBX 5 4 1 5
BITMAP
7340
B740
A740
A700
ENDCHAR
STARTCHAR numbersign
ENCODING 35
SWIDTH 700 0
DWIDTH 8 0
BBX 8 7 0 0
BITMAP
0114
0728
3FFD
1DB4
BFFC
39D0
2580
ENDCHAR
STARTCHAR dollar
ENCODING 36
SWIDTH 524 0
DWIDTH 6 0
BBX 6 9 0 -1
BITMAP
0200
1F80
36D0
3A00
1F80
5AC0
7EC0
1D00
0800
ENDCHAR
STARTCHAR percent
ENCODING 37
SWIDTH 896 0
DWIDTH 10 0
BBX 10 8 0 0
BITMAP
2E0600
771D00
77F800
2E7000
0097D0
01CDA0
034DA0
060B80
ENDCHAR
STARTCHAR ampersand
ENCODING 38
SWIDTH 851 0
DWIDTH 9 0
BBX 9 11 0 -1
BITMAP
02E000
0A7800
0D2800
0E7400
0BD000
1F8040
39D2C0
70BB40
757D00
1FEF00
000100
ENDCHAR
STARTCHAR quotesingle
ENCODING 39
SWIDTH 290 0
DWIDTH 3 0
BBX 2 4 1 5
BITMAP
70
B0
A0
A0
ENDCHAR
STARTCHAR parenleft
ENCODING 40
SWIDTH 613 0
DWIDTH 7 0
BBX 7 11 1 -1
BITMAP
02F8
0F58
2C00
3400
7000
A000
E000
E000
E000
A1C0
7F40
ENDCHAR
STARTCHAR parenright
ENCODING 41
SWIDTH 613 0
DWIDTH 7 0
BBX 8 11 -1 -1
BITMAP
02E4
0E6C
001C
001D
001C
002C
0038
0074
00B0
52D0
BF40
ENDCHAR
STARTCHAR asterisk
ENCODING 42
SWIDTH 520 0
DWIDTH 6 0
BBX 5 4 1 6
BITMAP
6900
2E80
AE00
1A40
ENDCHAR
STARTCHAR plus
ENCODING 43
SWIDTH 700 0
DWIDTH 8 0
BBX 6 7 1 0
BITMAP
0100
0600
0A00
FFE0
1E40
0D00
0C00
ENDCHAR
STARTCHAR comma
ENCODING 44
SWIDTH 257 0
DWIDTH 3 0
BBX 2 4 0 -2
BITMAP
10
B0
A0
90
ENDCHAR
STARTCHAR hyphen
ENCODING 45
SWIDTH 403 0
DWIDTH 4 0
BBX 4 2 0 2
BITMAP
7F
14
ENDCHAR
STARTCHAR period
ENCODING 46
SWIDTH 257 0
DWIDTH 3 0
BBX 3 2 0 0
BITMAP
74
74
ENDCHAR
STARTCHAR slash
ENCODING 47
SWIDTH 509 0
DWIDTH 6 0
BBX 6 10 0 0
BITMAP
0030
00A0
01D0
0280
0700
0E00
1C00
3400
B000
9000
ENDCHAR
STARTCHAR zero
ENCODING 48
SWIDTH 543 0
DWIDTH 6 0
BBX 6 6 0 0
BITMAP
1B80
39D0
70A0
70D0
75C0
2F40
ENDCHAR
STARTCHAR one
ENCODING 49
SWIDTH 376 0
DWIDTH 4 0
BBX 4 7 0 0
BITMAP
05
7E
1D
0D
1C
1C
18
ENDCHAR
STARTCHAR two
ENCODING 50
SWIDTH 560 0
DWIDTH 6 0
BBX 6 6 0 0
BITMAP
1F80
39E0
20D0
0280
2E40
7FE0
ENDCHAR
STARTCHAR three
ENCODING 51
SWIDTH 520 0
DWIDTH 6 0
BBX 6 6 0 0
BITMAP
2F80
75D0
0680
0680
A6C0
6F40
ENDCHAR
STARTCHAR four
ENCODING 52
SWIDTH 577 0
DWIDTH 6 0
BBX 6 7 0 0
BITMAP
0500
0D00
2890
35D0
7FF0
06C0
0180
ENDCHAR
STARTCHAR five
ENCODING 53
SWIDTH 518 0
DWIDTH 6 0
BBX 6 6 0 0
BITMAP
3FD0
2940
3F40
16C0
76C0
2F40
ENDCHAR
STARTCHAR six
ENCODING 54
SWIDTH 541 0
DWIDTH 6 0
BBX 6 6 0 0
BITMAP
1BD0
3990
7B80
75D0
75D0
2F40
ENDCHAR
STARTCHAR seven
ENCODING 55
SWIDTH 497 0
DWIDTH 5 0
BBX 6 6 0 0
BITMAP
7FE0
1680
0A00
1D00
2C00
2800
ENDCHAR
STARTCHAR eight
ENCODING 56
SWIDTH 512 0
DWIDTH 6 0
BBX 6 6 0 0
BITMAP
1F80
35D0
2A80
2A80
B5D0
2F80
ENDCHAR
STARTCHAR nine
ENCODING 57
SWIDTH 541 0
DWIDTH 6 0
BBX 6 6 0 0
BITMAP
1F80
39D0
2FE0
10D0
76C0
2E40
ENDCHAR
STARTCHAR colon
ENCODING 58
SWIDTH 257 0
DWIDTH 3 0
BBX 3 5 0 0
BITMAP
38
38
00
74
74
ENDCHAR
STARTCHAR semicolon
ENCODING 59
SWIDTH 257 0
DWIDTH 3 0
BBX 3 7 0 -2
BITMAP
38
38
00
10
B0
A0
90
ENDCHAR
STARTCHAR less
ENCODING 60
SWIDTH 700 0
DWIDTH 8 0
BBX 6 5 1 1
BITMAP
01B0
6F90
F400
6E40
01A0
ENDCHAR
STARTCHAR equal
ENCODING 61
SWIDTH 700 0
DWIDTH 8 0
BBX 6 4 1 1
BITMAP
BFF0
1540
FFE0
1540
ENDCHAR
STARTCHAR greater
ENCODING 62
SWIDTH 700 0
DWIDTH 8 0
BBX 6 5 1 1
BITMAP
A400
2F90
02F0
6F80
E400
ENDCHAR
STARTCHAR question
ENCODING 63
SWIDTH 476 0
DWIDTH 5 0
BBX 5 9 1 0
BITMAP
7E40
E780
8380
0A00
2800
7000
1000
E000
E000
ENDCHAR
STARTCHAR at
ENCODING 64
SWIDTH 1015 0
DWIDTH 11 0
BBX 11 11 0 -3
BITMAP
00AF80
0795B0
1D0028
386918
74EA28
71CA28
B2DE70
71E7D0
340000
2D01A0
06FF80
ENDCHAR
STARTCHAR A
ENCODING 65
SWIDTH 786 0
DWIDTH 9 0
BBX 10 9 0 0
BITMAP
01BF80
079540
1E0B00
380A00
740E00
741D00
742D10
39AE70
1F8B80
ENDCHAR
STARTCHAR B
ENCODING 66
SWIDTH 827 0
DWIDTH 9 0
BBX 10 10 0 -1
BITMAP
1AFE40
B956D0
4600D0
0E06C0
0D7E00
1D1B00
1C0740
2D5F00
2FE800
140000
ENDCHAR
STARTCHAR C
ENCODING 67
SWIDTH 686 0
DWIDTH 8 0
BBX 9 9 0 0
BITMAP
02F800
0F5E00
2C0A00
380500
740000
740000
380000
2E5680
06FE40
ENDCHAR
STARTCHAR D
ENCODING 68
SWIDTH 836 0
DWIDTH 9 0
BBX 9 9 0 0
BITMAP
1BF900
795B40
060380
0E02C0
1D02C0
1C0380
2C0B40
2D6E00
2FE400
ENDCHAR
STARTCHAR E
ENCODING 69
SWIDTH 686 0
DWIDTH 8 0
BBX 9 9 0 0
BITMAP
06F800
1E5E00
2C0A00
1D0500
0BD000
790000
B00000
795680
1BFE40
ENDCHAR
STARTCHAR F
ENCODING 70
SWIDTH 712 0
DWIDTH 8 0
BBX 10 9 0 0
BITMAP
06FFF0
29B540
34B000
24A000
03FF00
01E400
01D000
D6C000
7E4000
ENDCHAR
STARTCHAR G
ENCODING 71
SWIDTH 811 0
DWIDTH 9 0
BBX 10 14 0 -5
BITMAP
02F900
0F5B00
2C0700
380500
740000
742F40
380740
2E5BB0
06FF80
001E00
006D00
00DC00
01A800
00E000
ENDCHAR
STARTCHAR H
ENCODING 72
SWIDTH 873 0
DWIDTH 10 0
BBX 11 10 0 0
BITMAP
0000B0
2E02A4
D74364
474730
070BD0
2FFF40
0E0A00
0E0A04
1D0B58
1C02E0
ENDCHAR
STARTCHAR I
ENCODING 73
SWIDTH 495 0
DWIDTH 5 0
BBX 6 9 0 0
BITMAP
2FF0
0740
0700
0B00
0A00
0E00
0D00
1D00
FF80
ENDCHAR
STARTCHAR J
ENCODING 74
SWIDTH 743 0
DWIDTH 8 0
BBX 9 10 0 -1
BITMAP
0BFE40
395B00
740E00
240E00
002D00
02EC00
0B2C00
1D3800
1DB000
0FD000
ENDCHAR
STARTCHAR K
ENCODING 75
SWIDTH 937 0
DWIDTH 10 0
BBX 12 9 0 0
BITMAP
1BF424
39B074
70A0E0
20E780
02FD00
01EE00
41C741
A683DA
2E41F8
ENDCHAR
STARTCHAR L
ENCODING 76
SWIDTH 673 0
DWIDTH 7 0
BBX 10 9 -1 0
BITMAP
006F40
01D6C0
0381C0
074140
074000
074000
070010
7FE5A0
7D6F80
ENDCHAR
STARTCHAR M
ENCODING 77
SWIDTH 1232 0
DWIDTH 14 0
BBX 15 9 0 0
BITMAP
2E1F1B40
AB67B6C0
4783D2C0
0B438380
0B074340
0E074740
0E0B0B04
0D0B0758
0D0A02E0
ENDCHAR
STARTCHAR N
ENCODING 78
SWIDTH 884 0
DWIDTH 10 0
BBX 11 9 0 0
BITMAP
2E1F80
AB66C0
4782C0
0B42C0
0B0380
0E0740
0E0740
0D079C
0D02E4
ENDCHAR
STARTCHAR O
ENCODING 79
SWIDTH 816 0
DWIDTH 9 0
BBX 9 9 0 0
BITMAP
02F900
0E5B40
2C0380
380380
740380
740340
380B00
2D6D00
0BE400
ENDCHAR
STARTCHAR P
ENCODING 80
SWIDTH 805 0
DWIDTH 9 0
BBX 9 11 0 -2
BITMAP
01BE00
0B5780
1C92C0
34D2C0
71DB40
67F900
62C000
638000
778000
2F4000
040000
ENDCHAR
STARTCHAR Q
ENCODING 81
SWIDTH 816 0
DWIDTH 9 0
BBX 10 12 0 -3
BITMAP
02F900
0F5B40
2C0380
380380
740380
740340
380B00
2E6D00
06F400
00B400
003860
001F80
ENDCHAR
STARTCHAR R
ENCODING 82
SWIDTH 880 0
DWIDTH 10 0
BBX 11 9 0 0
BITMAP
01FE00
0A5780
28D2C0
35D740
73F900
62ED00
728E04
37875C
1F02E0
ENDCHAR
STARTCHAR S
ENCODING 83
SWIDTH 693 0
DWIDTH 8 0
BBX 8 9 0 0
BITMAP
07F8
2D5D
280E
2D04
0BE0
107C
B01D
756C
2FE0
ENDCHAR
STARTCHAR T
ENCODING 84
SWIDTH 697 0
DWIDTH 8 0
BBX 10 9 0 0
BITMAP
1BFFE0
75B540
A0A000
60E000
00D000
01D000
01C000
02C000
028000
ENDCHAR
STARTCHAR U
ENCODING 85
SWIDTH 890 0
DWIDTH 10 0
BBX 11 9 0 0
BITMAP
2F01C0
A741C0
4742C0
0B0380
0B0780
0E0B40
0D1B44
0E77AC
0B92E4
ENDCHAR
STARTCHAR V
ENCODING 86
SWIDTH 763 0
DWIDTH 8 0
BBX 9 9 1 0
BITMAP
707D00
70AA00
B09A00
B0BD00
B02FC0
B03400
70B000
3AD000
2E4000
ENDCHAR
STARTCHAR W
ENCODING 87
SWIDTH 1217 0
DWIDTH 13 0
BBX 14 9 1 0
BITMAP
700D1F40
701D2A80
B02C2680
B03C2B40
B07C0BF0
B0AC0D00
70DD2C00
7B8EB400
2E079000
ENDCHAR
STARTCHAR X
ENCODING 88
SWIDTH 712 0
DWIDTH 8 0
BBX 9 9 0 0
BITMAP
2E0740
974E00
02F800
01F000
02D000
0BE000
2DB000
7479C0
E02F40
ENDCHAR
STARTCHAR Y
ENCODING 89
SWIDTH 851 0
DWIDTH 9 0
BBX 11 12 0 -3
BITMAP
2F01C0
A741C0
8742C0
0703C0
0B0780
0E0B80
0E1B40
07E7B4
00AB40
024A00
071D00
03F800
ENDCHAR
STARTCHAR Z
ENCODING 90
SWIDTH 721 0
DWIDTH 8 0
BBX 10 9 0 0
BITMAP
1BFE40
395F40
701D00
203800
00B000
02D000
078000
BF95D0
B9BF40
ENDCHAR
STARTCHAR bracketleft
ENCODING 91
SWIDTH 405 0
DWIDTH 4 0
BBX 6 12 0 -2
BITMAP
0BD0
0D00
1D00
1C00
1C00
2C00
2800
3800
3400
3400
7F00
0400
ENDCHAR
STARTCHAR backslash
ENCODING 92
SWIDTH 509 0
DWIDTH 6 0
BBX 4 10 1 0
BITMAP
90
A0
70
34
28
1C
1D
0E
0B
07
ENDCHAR
STARTCHAR bracketright
ENCODING 93
SWIDTH 405 0
DWIDTH 4 0
BBX 5 12 -1 -2
BITMAP
1FC0
01C0
02C0
02C0
0280
0380
0340
0740
0740
0700
7F00
1400
ENDCHAR
STARTCHAR asciicircum
ENCODING 94
SWIDTH 700 0
DWIDTH 8 0
BBX 6 6 1 1
BITMAP
0100
0B00
1E40
3580
A0C0
D090
ENDCHAR
STARTCHAR underscore
ENCODING 95
SWIDTH 354 0
DWIDTH 4 0
BBX 4 2 0 -2
BITMAP
FD
14
ENDCHAR
STARTCHAR grave
ENCODING 96
SWIDTH 600 0
DWIDTH 7 0
BBX 3 4 1 6
BITMAP
50
B0
34
18
ENDCHAR
STARTCHAR a
ENCODING 97
SWIDTH 470 0
DWIDTH 5 0
BBX 7 5 0 0
BITMAP
1A40
3A80
7340
B7A4
79E0
ENDCHAR
STARTCHAR b
ENCODING 98
SWIDTH 473 0
DWIDTH 5 0
BBX 7 10 0 0
BITMAP
0740
1E80
2980
3640
3600
7F40
77C0
72F8
3680
2E00
ENDCHAR
STARTCHAR c
ENCODING 99
SWIDTH 368 0
DWIDTH 4 0
BBX 6 5 0 0
BITMAP
2E00
7700
A100
B5D0
2F40
ENDCHAR
STARTCHAR d
ENCODING 100
SWIDTH 515 0
DWIDTH 6 0
BBX 7 10 0 0
BITMAP
0074
00E8
01D8
02A4
02A0
1BA0
3BC0
7284
B79C
7DE0
ENDCHAR
STARTCHAR e
ENCODING 101
SWIDTH 393 0
DWIDTH 4 0
BBX 6 5 0 0
BITMAP
1E00
7740
BA10
75A0
2F40
ENDCHAR
STARTCHAR f
ENCODING 102
SWIDTH 371 0
DWIDTH 4 0
BBX 5 13 0 -3
BITMAP
0380
0AC0
1CC0
2980
3A00
3D00
7400
7BC0
7900
7900
7500
7900
3C00
ENDCHAR
STARTCHAR g
ENCODING 103
SWIDTH 479 0
DWIDTH 5 0
BBX 7 10 0 -5
BITMAP
1A40
3A80
7340
B7B4
7BD0
0B00
3A00
9900
DC00
B400
ENDCHAR
STARTCHAR h
ENCODING 104
SWIDTH 502 0
DWIDTH 6 0
BBX 7 10 0 0
BITMAP
0740
0E80
2980
3600
3A00
7AC0
7BC0
7984
7698
71E0
ENDCHAR
STARTCHAR i
ENCODING 105
SWIDTH 246 0
DWIDTH 3 0
BBX 4 7 0 0
BITMAP
2C
00
34
70
71
77
39
ENDCHAR
STARTCHAR j
ENCODING 106
SWIDTH 254 0
DWIDTH 3 0
BBX 7 12 -3 -5
BITMAP
00E0
0000
00D0
01D0
01C4
01E8
02E0
0780
1B40
3700
6A00
7800
ENDCHAR
STARTCHAR k
ENCODING 107
SWIDTH 525 0
DWIDTH 6 0
BBX 7 10 0 0
BITMAP
0740
0E80
2980
3600
3900
7AD0
79E0
79D4
779C
71F4
ENDCHAR
STARTCHAR l
ENCODING 108
SWIDTH 326 0
DWIDTH 4 0
BBX 5 10 0 0
BITMAP
0740
1E80
2980
3640
3700
7600
7C00
7440
3580
2E00
ENDCHAR
STARTCHAR m
ENCODING 109
SWIDTH 744 0
DWIDTH 8 0
BBX 10 5 0 0
BITMAP
368A00
7BEE00
7AD910
76CE90
728B40
ENDCHAR
STARTCHAR n
ENCODING 110
SWIDTH 496 0
DWIDTH 5 0
BBX 7 5 0 0
BITMAP
36C0
7BC0
7A84
76A8
71E0
ENDCHAR
STARTCHAR o
ENCODING 111
SWIDTH 451 0
DWIDTH 5 0
BBX 7 5 0 0
BITMAP
2E00
7780
A3F4
7680
2E00
ENDCHAR
STARTCHAR p
ENCODING 112
SWIDTH 481 0
DWIDTH 5 0
BBX 9 10 -2 -5
BITMAP
07B400
07AC00
072840
0B7A80
1FEE00
2B0000
360000
6A0000
690000
380000
ENDCHAR
STARTCHAR q
ENCODING 113
SWIDTH 500 0
DWIDTH 6 0
BBX 7 10 0 -4
BITMAP
0040
1BC0
3A80
7380
B7BC
7F60
0760
0750
0790
07C0
ENDCHAR
STARTCHAR r
ENCODING 114
SWIDTH 455 0
DWIDTH 5 0
BBX 7 5 0 0
BITMAP
36C0
7AD4
79F4
7400
7000
ENDCHAR
STARTCHAR s
ENCODING 115
SWIDTH 427 0
DWIDTH 5 0
BBX 6 5 0 0
BITMAP
0D00
1D00
3B10
9BB0
5FD0
ENDCHAR
STARTCHAR t
ENCODING 116
SWIDTH 393 0
DWIDTH 4 0
BBX 6 10 0 0
BITMAP
0740
0E80
1D80
2A40
2A00
FF80
3500
3410
29A0
1F80
ENDCHAR
STARTCHAR u
ENCODING 117
SWIDTH 462 0
DWIDTH 5 0
BBX 7 5 0 0
BITMAP
3580
7280
7344
7B64
76D0
ENDCHAR
STARTCHAR v
ENCODING 118
SWIDTH 449 0
DWIDTH 5 0
BBX 7 5 0 0
BITMAP
6280
7380
73F4
7A00
3800
ENDCHAR
STARTCHAR w
ENCODING 119
SWIDTH 700 0
DWIDTH 8 0
BBX 9 5 0 0
BITMAP
628D00
739D00
779FC0
7EF400
39D000
ENDCHAR
STARTCHAR x
ENCODING 120
SWIDTH 529 0
DWIDTH 6 0
BBX 7 5 0 0
BITMAP
2DA0
2BA0
1700
AB5C
BAE4
ENDCHAR
STARTCHAR y
ENCODING 121
SWIDTH 479 0
DWIDTH 5 0
BBX 7 10 0 -5
BITMAP
3580
7280
7340
7BB4
7B80
0B00
2A00
9900
DC00
B400
ENDCHAR
STARTCHAR z
ENCODING 122
SWIDTH 445 0
DWIDTH 5 0
BBX 6 5 0 0
BITMAP
7FC0
1B40
3810
7570
2F90
ENDCHAR
STARTCHAR braceleft
ENCODING 123
SWIDTH 490 0
DWIDTH 5 0
BBX 7 11 0 -1
BITMAP
01F4
0390
0740
0700
0B00
7D00
1E00
0E00
0D00
0D00
0BC0
ENDCHAR
STARTCHAR bar
ENCODING 124
SWIDTH 326 0
DWIDTH 4 0
BBX 4 14 0 -4
BITMAP
09
0D
0D
1C
1C
28
28
34
34
74
70
70
A0
50
ENDCHAR
STARTCHAR braceright
ENCODING 125
SWIDTH 490 0
DWIDTH 5 0
BBX 7 11 -1 -1
BITMAP
1F40
06C0
01C0
02C0
02C0
01F4
0390
0340
0740
0B00
7D00
ENDCHAR
STARTCHAR asciitilde
ENCODING 126
SWIDTH 700 0
DWIDTH 8 0
BBX 6 3 1 2
BITMAP
1010
BEB0
C6D0
ENDCHAR
STARTCHAR uni00A0
ENCODING 160
SWIDTH 265 0
DWIDTH 3 0
BBX 1 1 0 0
BITMAP
00
ENDCHAR
STARTCHAR exclamdown
ENCODING 161
SWIDTH 340 0
DWIDTH 4 0
BBX 5 9 -1 -4
BITMAP
0740
0740
0400
0900
0D00
1C00
2800
3800
7400
ENDCHAR
STARTCHAR cent
ENCODING 162
SWIDTH 466 0
DWIDTH 5 0
BBX 5 8 0 -1
BITMAP
0100
0600
2F40
7A80
6840
7E80
1D00
0800
ENDCHAR
STARTCHAR sterling
ENCODING 163
SWIDTH 525 0
DWIDTH 6 0
BBX 6 6 0 0
BITMAP
0BD0
2DA0
3800
BF40
3940
BFD0
ENDCHAR
STARTCHAR currency
ENCODING 164
SWIDTH 700 0
DWIDTH 8 0
BBX 6 5 1 1
BITMAP
6F90
35C0
60C0
31C0
6F90
ENDCHAR
STARTCHAR yen
ENCODING 165
SWIDTH 497 0
DWIDTH 5 0
BBX 6 7 0 0
BITMAP
5010
70E0
3AC0
1F40
7FC0
7FC0
1D00
ENDCHAR
STARTCHAR brokenbar
ENCODING 166
SWIDTH 326 0
DWIDTH 4 0
BBX 4 14 0 -4
BITMAP
09
0D
1D
1C
1C
18
00
10
34
74
70
70
A0
50
ENDCHAR
STARTCHAR section
ENCODING 167
SWIDTH 607 0
DWIDTH 7 0
BBX 6 9 0 0
BITMAP
07E0
1D70
1D20
1FD0
28B0
1EA0
21D0
75D0
2F80
ENDCHAR
STARTCHAR dieresis
ENCODING 168
SWIDTH 600 0
DWIDTH 7 0
BBX 5 1 1 6
BITMAP
7340
ENDCHAR
STARTCHAR copyright
ENCODING 169
SWIDTH 647 0
DWIDTH 7 0
BBX 7 6 1 4
BITMAP
2F80
ABA0
9964
D424
AFB0
2FD0
ENDCHAR
STARTCHAR ordfeminine
ENCODING 170
SWIDTH 393 0
DWIDTH 4 0
BBX 4 4 1 5
BITMAP
2D
AA
DD
A9
ENDCHAR
STARTCHAR guillemotleft
ENCODING 171
SWIDTH 615 0
DWIDTH 7 0
BBX 7 4 0 0
BITMAP
1D74
76D0
75D0
1C70
ENDCHAR
STARTCHAR logicalnot
ENCODING 172
SWIDTH 700 0
DWIDTH 8 0
BBX 6 3 1 1
BITMAP
FFE0
15A0
00A0
ENDCHAR
STARTCHAR uni00AD
ENCODING 173
SWIDTH 403 0
DWIDTH 4 0
BBX 4 2 0 2
BITMAP
7F
14
ENDCHAR
STARTCHAR registered
ENCODING 174
SWIDTH 647 0
DWIDTH 7 0
BBX 7 6 1 4
BITMAP
2F80
AEA0
C964
8E24
A570
2FD0
ENDCHAR
STARTCHAR macron
ENCODING 175
SWIDTH 600 0
DWIDTH 7 0
BBX 4 2 1 5
BITMAP
7F
14
ENDCHAR
STARTCHAR degree
ENCODING 176
SWIDTH 385 0
DWIDTH 4 0
BBX 4 3 1 6
BITMAP
78
D9
BC
ENDCHAR
STARTCHAR plusminus
ENCODING 177
SWIDTH 700 0
DWIDTH 8 0
BBX 6 7 1 0
BITMAP
0100
0600
7FD0
1A40
0900
1540
FFC0
ENDCHAR
STARTCHAR uni00B2
ENCODING 178
SWIDTH 450 0
DWIDTH 5 0
BBX 5 5 0 4
BITMAP
1F40
3680
0340
1900
7FC0
ENDCHAR
STARTCHAR uni00B3
ENCODING 179
SWIDTH 450 0
DWIDTH 5 0
BBX 4 5 1 4
BITMAP
7E
8B
2D
8A
BD
ENDCHAR
STARTCHAR acute
ENCODING 180
SWIDTH 600 0
DWIDTH 7 0
BBX 3 3 3 6
BITMAP
34
A0
80
ENDCHAR
STARTCHAR uni00B5
ENCODING 181
SWIDTH 462 0
DWIDTH 5 0
BBX 7 8 0 -3
BITMAP
3580
7280
7344
BB64
B6D0
A000
A000
A000
ENDCHAR
STARTCHAR paragraph
ENCODING 182
SWIDTH 739 0
DWIDTH 8 0
BBX 7 9 1 0
BITMAP
2FF4
BF78
FF38
7F34
0E74
0DB0
0DB0
1DE0
1C90
ENDCHAR
STARTCHAR periodcentered
ENCODING 183
SWIDTH 257 0
DWIDTH 3 0
BBX 3 2 0 2
BITMAP
74
74
ENDCHAR
STARTCHAR cedilla
ENCODING 184
SWIDTH 600 0
DWIDTH 7 0
BBX 4 3 0 -3
BITMAP
2D
0A
7D
ENDCHAR
STARTCHAR uni00B9
ENCODING 185
SWIDTH 450 0
DWIDTH 5 0
BBX 3 5 1 4
BITMAP
6C
5C
1C
28
28
ENDCHAR
STARTCHAR ordmasculine
ENCODING 186
SWIDTH 408 0
DWIDTH 4 0
BBX 4 4 1 5
BITMAP
7D
DA
DA
78
ENDCHAR
STARTCHAR guillemotright
ENCODING 187
SWIDTH 615 0
DWIDTH 7 0
BBX 7 4 0 0
BITMAP
7580
2DB4
1DB4
6590
ENDCHAR
STARTCHAR onequarter
ENCODING 188
SWIDTH 955 0
DWIDTH 11 0
BBX 9 9 1 0
BITMAP
6C0000
5C1800
1C3400
28A000
29C900
039D80
0B2A80
093FC0
000340
ENDCHAR
STARTCHAR onehalf
ENCODING 189
SWIDTH 1024 0
DWIDTH 11 0
BBX 10 9 1 0
BITMAP
6C0000
5C1800
1C3400
28A000
29CBD0
038CA0
0B01D0
090740
001FE0
ENDCHAR
STARTCHAR threequarters
ENCODING 190
SWIDTH 1035 0
DWIDTH 11 0
BBX 10 9 1 0
BITMAP
7E0000
8B0900
2D1D00
8A2800
BD7240
00D7A0
028990
034FF0
0000C0
ENDCHAR
STARTCHAR questiondown
ENCODING 191
SWIDTH 476 0
DWIDTH 5 0
BBX 6 9 -1 -4
BITMAP
01D0
01D0
0040
0240
0B00
2D00
7480
75D0
3F80
ENDCHAR
STARTCHAR Agrave
ENCODING 192
SWIDTH 786 0
DWIDTH 9 0
BBX 10 13 0 0
BITMAP
004000
01E000
002800
000000
01BF80
079540
1E0B00
380A00
740E00
741D00
742D10
39AE70
1F8B80
ENDCHAR
STARTCHAR Aacute
ENCODING 193
SWIDTH 786 0
DWIDTH 9 0
BBX 10 13 0 0
BITMAP
000040
0002D0
000A00
000000
01BF80
079540
1E0B00
380A00
740E00
741D00
742D10
39AE70
1F8B80
ENDCHAR
STARTCHAR Acircumflex
ENCODING 194
SWIDTH 786 0
DWIDTH 9 0
BBX 10 13 0 0
BITMAP
000E00
002B40
007240
000000
01BF80
079540
1E0B00
380A00
740E00
741D00
742D10
39AE70
1F8B80
ENDCHAR
STARTCHAR Atilde
ENCODING 195
SWIDTH 786 0
DWIDTH 9 0
BBX 10 12 0 0
BITMAP
0038C0
00A780
000000
01BF80
079540
1E0B00
380A00
740E00
741D00
742D10
39AE70
1F8B80
ENDCHAR
STARTCHAR Adieresis
ENCODING 196
SWIDTH 786 0
DWIDTH 9 0
BBX 10 11 0 0
BITMAP
003680
000000
01BF80
079540
1E0B00
380A00
740E00
741D00
742D10
39AE70
1F8B80
ENDCHAR
STARTCHAR Aring
ENCODING 197
SWIDTH 786 0
DWIDTH 9 0
BBX 10 13 0 0
BITMAP
001E00
002B40
001F00
000000
01BF80
079540
1E0B00
380A00
740E00
741D00
742D10
39AE70
1F8B80
ENDCHAR
STARTCHAR AE
ENCODING 198
SWIDTH 1015 0
DWIDTH 11 0
BBX 13 9 0 0
BITMAP
01B6FE00
07975400
1E070000
380B0000
740FFC00
741E5000
742D0000
39AB5640
1F82FA00
ENDCHAR
STARTCHAR Ccedilla
ENCODING 199
SWIDTH 686 0
DWIDTH 8 0
BBX 9 12 0 -3
BITMAP
02F800
0F5E00
2C0A00
380500
740000
740000
380000
2E5680
07FE40
01D000
009000
0B8000
ENDCHAR
STARTCHAR Egrave
ENCODING 200
SWIDTH 686 0
DWIDTH 8 0
BBX 9 13 0 0
BITMAP
050000
0B4000
019000
000000
06F800
1E5E00
2C0A00
1D0500
0BD000
790000
B00000
795680
1BFE40
ENDCHAR
STARTCHAR Eacute
ENCODING 201
SWIDTH 686 0
DWIDTH 8 0
BBX 9 13 0 0
BITMAP
000100
001F00
003400
000000
06F800
1E5E00
2C0A00
1D0500
0BD000
790000
B00000
795680
1BFE40
ENDCHAR
STARTCHAR Ecircumflex
ENCODING 202
SWIDTH 686 0
DWIDTH 8 0
BBX 9 13 0 0
BITMAP
007400
00E800
028C00
000000
06F800
1E5E00
2C0A00
1D0500
0BD000
790000
B00000
795680
1BFE40
ENDCHAR
STARTCHAR Edieresis
ENCODING 203
SWIDTH 686 0
DWIDTH 8 0
BBX 9 11 0 0
BITMAP
01DC00
000000
06F800
1E5E00
2C0A00
1D0500
0BD000
790000
B00000
795680
1BFE40
ENDCHAR
STARTCHAR Igrave
ENCODING 204
SWIDTH 495 0
DWIDTH 5 0
BBX 6 13 0 0
BITMAP
1000
3800
0600
0000
2FF0
0740
0700
0B00
0A00
0E00
0D00
1D00
FF80
ENDCHAR
STARTCHAR Iacute
ENCODING 205
SWIDTH 495 0
DWIDTH 5 0
BBX 7 13 0 0
BITMAP
0014
00B4
0190
0000
2FF0
0740
0700
0B00
0A00
0E00
0D00
1D00
FF80
ENDCHAR
STARTCHAR Icircumflex
ENCODING 206
SWIDTH 495 0
DWIDTH 5 0
BBX 6 13 0 0
BITMAP
02C0
0A90
0D60
0000
2FF0
0740
0700
0B00
0A00
0E00
0D00
1D00
FF80
ENDCHAR
STARTCHAR Idieresis
ENCODING 207
SWIDTH 495 0
DWIDTH 5 0
BBX 6 11 0 0
BITMAP
0DA0
0000
2FF0
0740
0700
0B00
0A00
0E00
0D00
1D00
FF80
ENDCHAR
STARTCHAR Eth
ENCODING 208
SWIDTH 821 0
DWIDTH 9 0
BBX 9 9 0 0
BITMAP
07F800
0B5F00
0A0380
0D0380
BFD380
2D4380
280B00
396D00
2FE000
ENDCHAR
STARTCHAR Ntilde
ENCODING 209
SWIDTH 884 0
DWIDTH 10 0
BBX 11 12 0 0
BITMAP
00B580
00DB40
000000
2E1F80
AB66C0
4782C0
0B42C0
0B0380
0E0740
0E0740
0D079C
0D02E4
ENDCHAR
STARTCHAR Ograve
ENCODING 210
SWIDTH 816 0
DWIDTH 9 0
BBX 9 13 0 0
BITMAP
050000
078000
019000
000000
02F900
0E5B40
2C0380
380380
740380
740340
380B00
2D6D00
0BE400
ENDCHAR
STARTCHAR Oacute
ENCODING 211
SWIDTH 816 0
DWIDTH 9 0
BBX 9 13 0 0
BITMAP
000100
000B00
002800
000000
02F900
0E5B40
2C0380
380380
740380
740340
380B00
2D6D00
0BE400
ENDCHAR
STARTCHAR Ocircumflex
ENCODING 212
SWIDTH 816 0
DWIDTH 9 0
BBX 9 13 0 0
BITMAP
007800
00EC00
018D00
000000
02F900
0E5B40
2C0380
380380
740380
740340
380B00
2D6D00
0BE400
ENDCHAR
STARTCHAR Otilde
ENCODING 213
SWIDTH 816 0
DWIDTH 9 0
BBX 9 12 0 0
BITMAP
01E600
026D00
000000
02F900
0E5B40
2C0380
380380
740380
740340
380B00
2D6D00
0BE400
ENDCHAR
STARTCHAR Odieresis
ENCODING 214
SWIDTH 816 0
DWIDTH 9 0
BBX 9 11 0 0
BITMAP
01CD00
000000
02F900
0E5B40
2C0380
380380
740380
740340
380B00
2D6D00
0BE400
ENDCHAR
STARTCHAR multiply
ENCODING 215
SWIDTH 700 0
DWIDTH 8 0
BBX 6 5 1 1
BITMAP
7090
2AC0
1F00
3B80
A1C0
ENDCHAR
STARTCHAR Oslash
ENCODING 216
SWIDTH 816 0
DWIDTH 9 0
BBX 9 11 0 -1
BITMAP
001800
02FD00
0E7B40
2C7380
38A380
74D380
74C340
398B00
2E9D00
0BE400
070000
ENDCHAR
STARTCHAR Ugrave
ENCODING 217
SWIDTH 890 0
DWIDTH 10 0
BBX 11 13 0 0
BITMAP
010000
03D000
007000
000000
2F01C0
A741C0
4742C0
0B0380
0B0780
0E0B40
0D1B44
0E77AC
0B92E4
ENDCHAR
STARTCHAR Uacute
ENCODING 218
SWIDTH 890 0
DWIDTH 10 0
BBX 11 13 0 0
BITMAP
000140
000780
001900
000000
2F01C0
A741C0
4742C0
0B0380
0B0780
0E0B40
0D1B44
0E77AC
0B92E4
ENDCHAR
STARTCHAR Ucircumflex
ENCODING 219
SWIDTH 890 0
DWIDTH 10 0
BBX 11 13 0 0
BITMAP
002C00
007A00
009600
000000
2F01C0
A741C0
4742C0
0B0380
0B0780
0E0B40
0D1B44
0E77AC
0B92E4
ENDCHAR
STARTCHAR Udieresis
ENCODING 220
SWIDTH 890 0
DWIDTH 10 0
BBX 11 11 0 0
BITMAP
00A700
000000
2F01C0
A741C0
4742C0
0B0380
0B0780
0E0B40
0D1B44
0E77AC
0B92E4
ENDCHAR
STARTCHAR Yacute
ENCODING 221
SWIDTH 851 0
DWIDTH 9 0
BBX 11 16 0 -3
BITMAP
000040
000780
001D00
000000
2F01C0
A741C0
8742C0
0703C0
0B0780
0E0B80
0E1B40
07E7B4
00AB40
024A00
071D00
03F800
ENDCHAR
STARTCHAR Thorn
ENCODING 222
SWIDTH 776 0
DWIDTH 9 0
BBX 9 12 0 -2
BITMAP
00A000
00D000
02FD00
0EDB40
2AC380
32C740
679E00
A7E400
674000
770000
2E0000
040000
ENDCHAR
STARTCHAR germandbls
ENCODING 223
SWIDTH 596 0
DWIDTH 7 0
BBX 8 11 0 -2
BITMAP
07E0
1D74
3870
35D0
7380
72D4
77BA
7A74
B7E0
B000
6000
ENDCHAR
STARTCHAR agrave
ENCODING 224
SWIDTH 470 0
DWIDTH 5 0
BBX 7 10 0 0
BITMAP
0400
1C00
0D00
0600
0000
1A40
3A80
7340
B7A4
79E0
ENDCHAR
STARTCHAR aacute
ENCODING 225
SWIDTH 470 0
DWIDTH 5 0
BBX 7 9 0 0
BITMAP
00D0
01C0
0200
0000
1A40
3A80
7340
B7A4
79E0
ENDCHAR
STARTCHAR acircumflex
ENCODING 226
SWIDTH 470 0
DWIDTH 5 0
BBX 7 10 0 0
BITMAP
0140
0780
0DC0
18C0
0000
1A40
3A80
7340
B7A4
79E0
ENDCHAR
STARTCHAR atilde
ENCODING 227
SWIDTH 470 0
DWIDTH 5 0
BBX 7 8 0 0
BITMAP
1E60
26D0
0000
1A40
3A80
7340
B7A4
79E0
ENDCHAR
STARTCHAR adieresis
ENCODING 228
SWIDTH 470 0
DWIDTH 5 0
BBX 7 7 0 0
BITMAP
1CD0
0000
1A40
3A80
7340
B7A4
79E0
ENDCHAR
STARTCHAR aring
ENCODING 229
SWIDTH 470 0
DWIDTH 5 0
BBX 7 9 0 0
BITMAP
0780
0DC0
0B80
0000
1A40
3A80
7340
B7A4
79E0
ENDCHAR
STARTCHAR ae
ENCODING 230
SWIDTH 653 0
DWIDTH 7 0
BBX 9 5 0 0
BITMAP
1BB800
3ADC00
B2A840
B7D740
7DBD00
ENDCHAR
STARTCHAR ccedilla
ENCODING 231
SWIDTH 368 0
DWIDTH 4 0
BBX 6 8 0 -3
BITMAP
2E00
7700
A100
7090
2E40
0A00
0600
7D00
ENDCHAR
STARTCHAR egrave
ENCODING 232
SWIDTH 393 0
DWIDTH 4 0
BBX 6 10 0 0
BITMAP
1000
3400
1C00
0900
0000
1E00
7740
BA10
75A0
2F40
ENDCHAR
STARTCHAR eacute
ENCODING 233
SWIDTH 393 0
DWIDTH 4 0
BBX 6 9 0 0
BITMAP
0180
0340
0600
0000
1E00
7740
BA10
75A0
2F40
ENDCHAR
STARTCHAR ecircumflex
ENCODING 234
SWIDTH 393 0
DWIDTH 4 0
BBX 6 10 0 0
BITMAP
0100
0B40
1A80
2580
0000
1E00
7740
BA10
75A0
2F40
ENDCHAR
STARTCHAR edieresis
ENCODING 235
SWIDTH 393 0
DWIDTH 4 0
BBX 6 7 0 0
BITMAP
29C0
0000
1E00
7740
BA10
75A0
2F40
ENDCHAR
STARTCHAR igrave
ENCODING 236
SWIDTH 246 0
DWIDTH 3 0
BBX 4 10 0 0
BITMAP
40
D0
60
20
00
34
70
71
77
39
ENDCHAR
STARTCHAR iacute
ENCODING 237
SWIDTH 246 0
DWIDTH 3 0
BBX 4 9 0 0
BITMAP
06
0D
14
00
34
70
71
77
39
ENDCHAR
STARTCHAR icircumflex
ENCODING 238
SWIDTH 246 0
DWIDTH 3 0
BBX 4 10 0 0
BITMAP
04
3D
69
D6
00
34
70
71
77
39
ENDCHAR
STARTCHAR idieresis
ENCODING 239
SWIDTH 246 0
DWIDTH 3 0
BBX 4 7 0 0
BITMAP
9A
00
34
70
71
77
39
ENDCHAR
STARTCHAR eth
ENCODING 240
SWIDTH 451 0
DWIDTH 5 0
BBX 6 10 0 0
BITMAP
1C10
0AE0
0B80
1A80
01C0
2FC0
76C0
A280
7740
2E00
ENDCHAR
STARTCHAR ntilde
ENCODING 241
SWIDTH 496 0
DWIDTH 5 0
BBX 7 8 0 0
BITMAP
1E70
26D0
0000
36C0
7BC0
7A84
76A8
71E0
ENDCHAR
STARTCHAR ograve
ENCODING 242
SWIDTH 451 0
DWIDTH 5 0
BBX 7 10 0 0
BITMAP
1000
3400
1C00
0900
0000
2E00
7780
A3F4
7680
2E00
ENDCHAR
STARTCHAR oacute
ENCODING 243
SWIDTH 451 0
DWIDTH 5 0
BBX 7 9 0 0
BITMAP
0180
0340
0600
0000
2E00
7780
A3F4
7680
2E00
ENDCHAR
STARTCHAR ocircumflex
ENCODING 244
SWIDTH 451 0
DWIDTH 5 0
BBX 7 10 0 0
BITMAP
0100
0B40
1A80
3580
0000
2E00
7780
A3F4
7680
2E00
ENDCHAR
STARTCHAR otilde
ENCODING 245
SWIDTH 451 0
DWIDTH 5 0
BBX 7 8 0 0
BITMAP
2D90
6680
0000
2E00
7780
A3F4
7680
2E00
ENDCHAR
STARTCHAR odieresis
ENCODING 246
SWIDTH 451 0
DWIDTH 5 0
BBX 7 7 0 0
BITMAP
2980
0000
2E00
7780
A3F4
7680
2E00
ENDCHAR
STARTCHAR divide
ENCODING 247
SWIDTH 700 0
DWIDTH 8 0
BBX 6 6 1 0
BITMAP
0A00
0000
FFE0
1540
0000
0D00
ENDCHAR
STARTCHAR oslash
ENCODING 248
SWIDTH 459 0
DWIDTH 5 0
BBX 7 9 0 -2
BITMAP
0100
0600
2F40
7A90
A9F4
BA80
2E00
1400
1000
ENDCHAR
STARTCHAR ugrave
ENCODING 249
SWIDTH 462 0
DWIDTH 5 0
BBX 7 10 0 0
BITMAP
1400
2800
0D00
0600
0000
3580
7280
7344
7B64
76D0
ENDCHAR
STARTCHAR uacute
ENCODING 250
SWIDTH 462 0
DWIDTH 5 0
BBX 7 9 0 0
BITMAP
00C0
0280
0200
0000
3580
7280
7344
7B64
76D0
ENDCHAR
STARTCHAR ucircumflex
ENCODING 251
SWIDTH 462 0
DWIDTH 5 0
BBX 7 10 0 0
BITMAP
0100
0780
0DC0
28C0
0000
3580
7280
7344
7B64
76D0
ENDCHAR
STARTCHAR udieresis
ENCODING 252
SWIDTH 462 0
DWIDTH 5 0
BBX 7 7 0 0
BITMAP
1DD0
0000
3580
7280
7344
7B64
76D0
ENDCHAR
STARTCHAR yacute
ENCODING 253
SWIDTH 479 0
DWIDTH 5 0
BBX 7 14 0 -5
BITMAP
00C0
0280
0200
0000
3580
7280
7340
7BB4
7B80
0B00
2A00
9900
DC00
B400
ENDCHAR
STARTCHAR thorn
ENCODING 254
SWIDTH 508 0
DWIDTH 6 0
BBX 7 13 0 -4
BITMAP
0400
2800
3800
3400
7780
79C0
75C4
B798
BEE0
A000
A000
A000
5000
ENDCHAR
STARTCHAR ydieresis
ENCODING 255
SWIDTH 479 0
DWIDTH 5 0
BBX 7 12 0 -5
BITMAP
1DD0
0000
3580
7280
7340
7BB4
7B80
0B00
2A00
9900
DC00
B400
ENDCHAR
STARTCHAR Amacron
ENCODING 256
SWIDTH 786 0
DWIDTH 9 0
BBX 10 11 0 0
BITMAP
003F40
000400
01BF80
079540
1E0B00
380A00
740E00
741D00
742D10
39AE70
1F8B80
ENDCHAR
STARTCHAR amacron
ENCODING 257
SWIDTH 470 0
DWIDTH 5 0
BBX 7 7 0 0
BITMAP
1FC0
0100
1A40
3A80
7340
B7A4
79E0
ENDCHAR
STARTCHAR Abreve
ENCODING 258
SWIDTH 786 0
DWIDTH 9 0
BBX 10 12 0 0
BITMAP
006180
003F40
000000
01BF80
079540
1E0B00
380A00
740E00
741D00
742D10
39AE70
1F8B80
ENDCHAR
STARTCHAR abreve
ENCODING 259
SWIDTH 470 0
DWIDTH 5 0
BBX 7 9 0 0
BITMAP
0010
28A0
1FD0
0000
1A40
3A80
7340
B7A4
79E0
ENDCHAR
STARTCHAR Aogonek
ENCODING 260
SWIDTH 786 0
DWIDTH 9 0
BBX 10 12 0 -3
BITMAP
01BF80
079540
1D0B00
380A00
740E00
741D00
742D10
39AE70
1F8BD0
000A00
000900
0007C0
ENDCHAR
STARTCHAR aogonek
ENCODING 261
SWIDTH 470 0
DWIDTH 5 0
BBX 7 8 0 -3
BITMAP
1A40
3A80
7340
B7A4
7AE0
0340
0700
03E0
ENDCHAR
STARTCHAR Cacute
ENCODING 262
SWIDTH 686 0
DWIDTH 8 0
BBX 9 13 0 0
BITMAP
000100
000B00
002800
000000
02F800
0F5E00
2C0A00
380500
740000
740000
380000
2E5680
06FE40
ENDCHAR
STARTCHAR cacute
ENCODING 263
SWIDTH 368 0
DWIDTH 4 0
BBX 6 9 0 0
BITMAP
0180
0340
0600
0000
2E00
7700
A100
B5D0
2F40
ENDCHAR
STARTCHAR Ccircumflex
ENCODING 264
SWIDTH 686 0
DWIDTH 8 0
BBX 9 13 0 0
BITMAP
007400
00EC00
018C00
000000
02F800
0F5E00
2C0A00
380500
740000
740000
380000
2E5680
06FE40
ENDCHAR
STARTCHAR ccircumflex
ENCODING 265
SWIDTH 368 0
DWIDTH 4 0
BBX 6 10 0 0
BITMAP
0100
0B40
1A80
3580
0000
2E00
7700
A100
B5D0
2F40
ENDCHAR
STARTCHAR Cdotaccent
ENCODING 266
SWIDTH 686 0
DWIDTH 8 0
BBX 9 11 0 0
BITMAP
007400
000000
02F800
0F5E00
2C0A00
380500
740000
740000
380000
2E5680
06FE40
ENDCHAR
STARTCHAR cdotaccent
ENCODING 267
SWIDTH 368 0
DWIDTH 4 0
BBX 6 7 0 0
BITMAP
0A00
0000
2E00
7700
A100
B5D0
2F40
ENDCHAR
STARTCHAR Ccaron
ENCODING 268
SWIDTH 686 0
DWIDTH 8 0
BBX 9 13 0 0
BITMAP
004500
00DD00
007400
000000
02F800
0F5E00
2C0A00
380500
740000
740000
380000
2E5680
06FE40
ENDCHAR
STARTCHAR ccaron
ENCODING 269
SWIDTH 368 0
DWIDTH 4 0
BBX 6 10 0 0
BITMAP
0440
19C0
0E40
0A00
0000
2E00
7700
A100
B5D0
2F40
ENDCHAR
STARTCHAR Dcaron
ENCODING 270
SWIDTH 836 0
DWIDTH 9 0
BBX 9 13 0 0
BITMAP
014400
01A800
00A000
000000
1BF900
795B40
060380
0E02C0
1D02C0
1C0380
2C0B40
2D6E00
2FE400
ENDCHAR
STARTCHAR dcaron
ENCODING 271
SWIDTH 470 0
DWIDTH 5 0
BBX 8 11 0 0
BITMAP
0004
000D
00A8
00D0
00D0
01C0
1BC0
3A80
7340
B7A4
79E0
ENDCHAR
STARTCHAR Dcroat
ENCODING 272
SWIDTH 821 0
DWIDTH 9 0
BBX 9 9 0 0
BITMAP
07F800
0B5F00
0A0380
0D0380
BFD380
2D4380
280B00
396D00
2FE000
ENDCHAR
STARTCHAR dcroat
ENCODING 273
SWIDTH 470 0
DWIDTH 5 0
BBX 7 9 0 0
BITMAP
00A0
00E0
0FF0
01C0
1BC0
3A80
7340
B7A4
79E0
ENDCHAR
STARTCHAR Emacron
ENCODING 274
SWIDTH 686 0
DWIDTH 8 0
BBX 9 11 0 0
BITMAP
01FC00
005000
06F800
1E5E00
2C0A00
1D0500
0BD000
790000
B00000
795680
1BFE40
ENDCHAR
STARTCHAR emacron
ENCODING 275
SWIDTH 393 0
DWIDTH 4 0
BBX 6 7 0 0
BITMAP
2F80
0500
1E00
7740
BA10
75A0
2F40
ENDCHAR
STARTCHAR Ebreve
ENCODING 276
SWIDTH 686 0
DWIDTH 8 0
BBX 9 12 0 0
BITMAP
024500
01FD00
000000
06F800
1E5E00
2C0A00
1D0500
0BD000
790000
B00000
795680
1BFE40
ENDCHAR
STARTCHAR ebreve
ENCODING 277
SWIDTH 393 0
DWIDTH 4 0
BBX 6 9 0 0
BITMAP
1000
35D0
2F80
0000
1E00
7740
BA10
75A0
2F40
ENDCHAR
STARTCHAR Edotaccent
ENCODING 278
SWIDTH 686 0
DWIDTH 8 0
BBX 9 11 0 0
BITMAP
00B400
000000
06F800
1E5E00
2C0A00
1D0500
0BD000
790000
B00000
795680
1BFE40
ENDCHAR
STARTCHAR edotaccent
ENCODING 279
SWIDTH 393 0
DWIDTH 4 0
BBX 6 7 0 0
BITMAP
0B00
0000
1E00
7740
BA10
75A0
2F40
ENDCHAR
STARTCHAR Eogonek
ENCODING 280
SWIDTH 686 0
DWIDTH 8 0
BBX 9 12 0 -3
BITMAP
06F800
1E5E00
2C0A00
1D0500
0BD000
790000
B00000
795680
1BFF40
00D000
01C000
00F400
ENDCHAR
STARTCHAR eogonek
ENCODING 281
SWIDTH 393 0
DWIDTH 4 0
BBX 6 8 0 -3
BITMAP
1E00
7740
AB00
B8A0
3F80
0D00
1C00
0B40
ENDCHAR
STARTCHAR Ecaron
ENCODING 282
SWIDTH 686 0
DWIDTH 8 0
BBX 9 13 0 0
BITMAP
004400
00DC00
00B400
000000
06F800
1E5E00
2C0A00
1D0500
0BD000
790000
B00000
795680
1BFE40
ENDCHAR
STARTCHAR ecaron
ENCODING 283
SWIDTH 393 0
DWIDTH 4 0
BBX 6 10 0 0
BITMAP
0440
1DC0
0E40
0A00
0000
1E00
7740
BA10
75A0
2F40
ENDCHAR
STARTCHAR Gcircumflex
ENCODING 284
SWIDTH 811 0
DWIDTH 9 0
BBX 10 18 0 -5
BITMAP
003800
00AC00
01C900
000000
02F900
0F5B00
2C0700
380500
740000
742F40
380740
2E5BB0
06FF80
001E00
006D00
00DC00
01A800
00E000
ENDCHAR
STARTCHAR gcircumflex
ENCODING 285
SWIDTH 479 0
DWIDTH 5 0
BBX 7 15 0 -5
BITMAP
0140
0780
0DC0
18C0
0000
1A40
3A80
7340
B7B4
7BD0
0B00
3A00
9900
DC00
B400
ENDCHAR
STARTCHAR Gbreve
ENCODING 286
SWIDTH 811 0
DWIDTH 9 0
BBX 10 17 0 -5
BITMAP
018600
01FD00
000000
02F900
0F5B00
2C0700
380500
740000
742F40
380740
2E5BB0
06FF80
001E00
006D00
00DC00
01A800
00E000
ENDCHAR
STARTCHAR gbreve
ENCODING 287
SWIDTH 479 0
DWIDTH 5 0
BBX 7 14 0 -5
BITMAP
0010
28A0
1FD0
0000
1A40
3A80
7340
B7B4
7BD0
0B00
3A00
9900
DC00
B400
ENDCHAR
STARTCHAR Gdotaccent
ENCODING 288
SWIDTH 811 0
DWIDTH 9 0
BBX 10 16 0 -5
BITMAP
007400
000000
02F900
0F5B00
2C0700
380500
740000
742F40
380740
2E5BB0
06FF80
001E00
006D00
00DC00
01A800
00E000
ENDCHAR
STARTCHAR gdotaccent
ENCODING 289
SWIDTH 479 0
DWIDTH 5 0
BBX 7 12 0 -5
BITMAP
0740
0000
1A40
3A80
7340
B7B4
7BD0
0B00
3A00
9900
DC00
B400
ENDCHAR
STARTCHAR uni0122
ENCODING 290
SWIDTH 811 0
DWIDTH 9 0
BBX 10 14 0 -5
BITMAP
02F900
0F5B00
2C0700
380500
740000
742F40
380740
2E5BB0
06FF80
001E00
0A6D00
09DC00
01A800
00E000
ENDCHAR
STARTCHAR uni0123
ENCODING 291
SWIDTH 479 0
DWIDTH 5 0
BBX 7 14 0 -5
BITMAP
0240
0340
0300
0000
1A40
3A80
7340
B7B4
7BD0
0B00
3A00
9900
DC00
B400
ENDCHAR
STARTCHAR Hcircumflex
ENCODING 292
SWIDTH 873 0
DWIDTH 10 0
BBX 11 13 0 0
BITMAP
002C00
007A00
00D600
0000B0
2E02A4
D74364
474730
070BD0
2FFF40
0E0A00
0E0A04
1D0B58
1C02E0
ENDCHAR
STARTCHAR hcircumflex
ENCODING 293
SWIDTH 502 0
DWIDTH 6 0
BBX 7 14 0 0
BITMAP
0280
0AD0
0C90
0000
0740
0E80
2980
3600
3A00
7AC0
7BC0
7984
7698
71E0
ENDCHAR
STARTCHAR Hbar
ENCODING 294
SWIDTH 856 0
DWIDTH 9 0
BBX 10 9 0 0
BITMAP
0A0280
3FFFE0
1E0780
1D0340
7FFFD0
2D5B40
2C0B00
380A00
280A00
ENDCHAR
STARTCHAR hbar
ENCODING 295
SWIDTH 502 0
DWIDTH 6 0
BBX 7 9 0 0
BITMAP
0D00
1C00
7F80
3800
36C0
7BC0
7984
7698
71E0
ENDCHAR
STARTCHAR Itilde
ENCODING 296
SWIDTH 495 0
DWIDTH 5 0
BBX 7 12 0 0
BITMAP
0A64
19E0
0000
2FF0
0740
0700
0B00
0A00
0E00
0D00
1D00
FF80
ENDCHAR
STARTCHAR itilde
ENCODING 297
SWIDTH 246 0
DWIDTH 3 0
BBX 6 8 -1 0
BITMAP
2D90
6780
0000
0D00
1C00
1C40
1DC0
0E40
ENDCHAR
STARTCHAR Imacron
ENCODING 298
SWIDTH 495 0
DWIDTH 5 0
BBX 6 11 0 0
BITMAP
0BD0
0140
2FF0
0740
0700
0B00
0A00
0E00
0D00
1D00
FF80
ENDCHAR
STARTCHAR imacron
ENCODING 299
SWIDTH 246 0
DWIDTH 3 0
BBX 4 7 0 0
BITMAP
BE
14
34
70
71
77
39
ENDCHAR
STARTCHAR Ibreve
ENCODING 300
SWIDTH 495 0
DWIDTH 5 0
BBX 6 12 0 0
BITMAP
1820
0BE0
0000
2FF0
0740
0700
0B00
0A00
0E00
0D00
1D00
FF80
ENDCHAR
STARTCHAR ibreve
ENCODING 301
SWIDTH 246 0
DWIDTH 3 0
BBX 6 9 -1 0
BITMAP
1040
75D0
2F80
0000
0D00
1C00
1C40
1DC0
0E40
ENDCHAR
STARTCHAR Iogonek
ENCODING 302
SWIDTH 495 0
DWIDTH 5 0
BBX 6 12 0 -3
BITMAP
2FF0
0740
0700
0B00
0A00
0E00
0D00
1D00
FF80
2800
3400
2F00
ENDCHAR
STARTCHAR iogonek
ENCODING 303
SWIDTH 246 0
DWIDTH 3 0
BBX 4 10 0 -3
BITMAP
28
00
34
70
70
73
7D
70
A0
7C
ENDCHAR
STARTCHAR Idotaccent
ENCODING 304
SWIDTH 495 0
DWIDTH 5 0
BBX 6 11 0 0
BITMAP
0380
0000
2FF0
0740
0700
0B00
0A00
0E00
0D00
1D00
FF80
ENDCHAR
STARTCHAR dotlessi
ENCODING 305
SWIDTH 246 0
DWIDTH 3 0
BBX 4 5 0 0
BITMAP
34
70
71
77
39
ENDCHAR
STARTCHAR Jcircumflex
ENCODING 308
SWIDTH 743 0
DWIDTH 8 0
BBX 9 14 0 -1
BITMAP
00B000
01E800
035800
000000
0BFE40
395B00
740E00
240E00
002D00
02EC00
0B2C00
1D3800
1DB000
0FD000
ENDCHAR
STARTCHAR jcircumflex
ENCODING 309
SWIDTH 254 0
DWIDTH 3 0
BBX 7 15 -3 -5
BITMAP
0010
00F4
01A4
0358
0000
00D0
01D0
01C4
01E8
02E0
0780
1B40
3700
6A00
7800
ENDCHAR
STARTCHAR uni0136
ENCODING 310
SWIDTH 937 0
DWIDTH 10 0
BBX 12 12 0 -3
BITMAP
1BF424
39B074
70A0E0
20E780
02FD00
01EE00
41C741
A683DA
2E41F8
000000
003000
002000
ENDCHAR
STARTCHAR uni0137
ENCODING 311
SWIDTH 525 0
DWIDTH 6 0
BBX 7 13 0 -3
BITMAP
0740
0E80
2980
3600
3900
7AD0
79E0
79D4
779C
71F4
0800
0C00
0800
ENDCHAR
STARTCHAR kgreenlandic
ENCODING 312
SWIDTH 465 0
DWIDTH 5 0
BBX 7 5 0 0
BITMAP
36D0
7A90
7D40
7E64
76D0
ENDCHAR
STARTCHAR Lacute
ENCODING 313
SWIDTH 673 0
DWIDTH 7 0
BBX 10 13 -1 0
BITMAP
000040
0002D0
000A00
000000
006F40
01D6C0
0381C0
074140
074000
074000
070010
7FE5A0
7D6F80
ENDCHAR
STARTCHAR lacute
ENCODING 314
SWIDTH 326 0
DWIDTH 4 0
BBX 7 14 0 0
BITMAP
0010
00B4
0280
0000
0740
1E80
2980
3640
3700
7600
7C00
7440
3580
2E00
ENDCHAR
STARTCHAR uni013B
ENCODING 315
SWIDTH 673 0
DWIDTH 7 0
BBX 10 12 -1 -3
BITMAP
006F40
01D6C0
0381C0
074140
074000
074000
070010
7FE5A0
7D6F80
000000
00C000
018000
ENDCHAR
STARTCHAR uni013C
ENCODING 316
SWIDTH 326 0
DWIDTH 4 0
BBX 5 13 0 -3
BITMAP
0740
1E80
2980
3640
3700
7600
7C00
7440
3580
2E00
1400
2400
2000
ENDCHAR
STARTCHAR Lcaron
ENCODING 317
SWIDTH 673 0
DWIDTH 7 0
BBX 11 10 -1 0
BITMAP
000004
006F68
01D6E4
0381C0
074140
074000
074000
070010
7FE5A0
7D6F80
ENDCHAR
STARTCHAR lcaron
ENCODING 318
SWIDTH 237 0
DWIDTH 3 0
BBX 5 11 0 0
BITMAP
0040
0280
1E40
2C00
2800
3400
3400
7000
7100
7600
7800
ENDCHAR
STARTCHAR Ldot
ENCODING 319
SWIDTH 673 0
DWIDTH 7 0
BBX 10 9 -1 0
BITMAP
006F40
01D6C0
0381C0
074140
076C00
074000
070010
7FE5A0
7D6F80
ENDCHAR
STARTCHAR ldot
ENCODING 320
SWIDTH 363 0
DWIDTH 4 0
BBX 6 10 0 0
BITMAP
0D00
1D00
2C00
2800
3A00
3740
7000
7000
75D0
2F40
ENDCHAR
STARTCHAR Lslash
ENCODING 321
SWIDTH 673 0
DWIDTH 7 0
BBX 10 11 -1 0
BITMAP
006FD0
019500
006F40
01D6C0
0381C0
074140
074000
070000
070010
7FE5A0
7D6F80
ENDCHAR
STARTCHAR lslash
ENCODING 322
SWIDTH 326 0
DWIDTH 4 0
BBX 7 11 0 0
BITMAP
06F4
1D50
0B40
1E80
2980
3640
7600
7900
7440
3580
2E00
ENDCHAR
STARTCHAR Nacute
ENCODING 323
SWIDTH 884 0
DWIDTH 10 0
BBX 11 13 0 0
BITMAP
000040
000780
000D00
000000
2E1F80
AB66C0
4782C0
0B42C0
0B0380
0E0740
0E0740
0D079C
0D02E4
ENDCHAR
STARTCHAR nacute
ENCODING 324
SWIDTH 496 0
DWIDTH 5 0
BBX 7 9 0 0
BITMAP
0090
01C0
0240
0000
36C0
7BC0
7A84
76A8
71E0
ENDCHAR
STARTCHAR uni0145
ENCODING 325
SWIDTH 884 0
DWIDTH 10 0
BBX 11 12 0 -3
BITMAP
2E1F80
AB66C0
4782C0
0B42C0
0B0380
0E0740
0E0740
0D079C
0D02E4
000000
00D000
00C000
ENDCHAR
STARTCHAR uni0146
ENCODING 326
SWIDTH 496 0
DWIDTH 5 0
BBX 7 8 0 -3
BITMAP
36C0
7BC0
7A84
76A8
71E0
0800
0C00
0800
ENDCHAR
STARTCHAR Ncaron
ENCODING 327
SWIDTH 884 0
DWIDTH 10 0
BBX 11 13 0 0
BITMAP
001100
007700
002D00
000000
2E1F80
AB66C0
4782C0
0B42C0
0B0380
0E0740
0E0740
0D079C
0D02E4
ENDCHAR
STARTCHAR ncaron
ENCODING 328
SWIDTH 496 0
DWIDTH 5 0
BBX 7 10 0 0
BITMAP
0410
09A0
0AC0
0740
0000
36C0
7BC0
7A84
76A8
71E0
ENDCHAR
STARTCHAR napostrophe
ENCODING 329
SWIDTH 496 0
DWIDTH 5 0
BBX 7 9 0 0
BITMAP
9000
D000
8000
0000
36C0
7BC0
7A84
76A8
71E0
ENDCHAR
STARTCHAR Eng
ENCODING 330
SWIDTH 884 0
DWIDTH 10 0
BBX 11 13 0 -4
BITMAP
2E1F80
AB66C0
4782C0
0B42C0
0B0380
0E0340
0E0700
0D0B5C
0D0BF4
000D00
001C00
0D2800
07E000
ENDCHAR
STARTCHAR eng
ENCODING 331
SWIDTH 495 0
DWIDTH 5 0
BBX 7 8 0 -3
BITMAP
36C0
7BC0
7A84
76A8
73E0
0700
9900
7800
ENDCHAR
STARTCHAR Omacron
ENCODING 332
SWIDTH 816 0
DWIDTH 9 0
BBX 9 11 0 0
BITMAP
01FC00
005000
02F900
0E5B40
2C0380
380380
740380
740340
380B00
2D6D00
0BE400
ENDCHAR
STARTCHAR omacron
ENCODING 333
SWIDTH 451 0
DWIDTH 5 0
BBX 7 7 0 0
BITMAP
2F80
0500
2E00
7780
A3F4
7680
2E00
ENDCHAR
STARTCHAR Obreve
ENCODING 334
SWIDTH 816 0
DWIDTH 9 0
BBX 9 12 0 0
BITMAP
014600
01FD00
000000
02F900
0E5B40
2C0380
380380
740380
740340
380B00
2D6D00
0BE400
ENDCHAR
STARTCHAR obreve
ENCODING 335
SWIDTH 451 0
DWIDTH 5 0
BBX 7 9 0 0
BITMAP
1040
35D0
2F80
0000
2E00
7780
A3F4
7680
2E00
ENDCHAR
STARTCHAR Ohungarumlaut
ENCODING 336
SWIDTH 816 0
DWIDTH 9 0
BBX 9 13 0 0
BITMAP
005500
00AA00
008800
000000
02F900
0E5B40
2C0380
380380
740380
740340
380B00
2D6D00
0BE400
ENDCHAR
STARTCHAR ohungarumlaut
ENCODING 337
SWIDTH 451 0
DWIDTH 5 0
BBX 7 10 0 0
BITMAP
0440
0DD0
1DC0
1540
0000
2E00
7780
A3F4
7680
2E00
ENDCHAR
STARTCHAR OE
ENCODING 338
SWIDTH 1124 0
DWIDTH 12 0
BBX 14 9 0 0
BITMAP
02F97FC0
0F5BE500
2C03D000
3803C000
7403FF40
74039400
380B8000
2D6ED5A0
0BE4BF80
ENDCHAR
STARTCHAR oe
ENCODING 339
SWIDTH 668 0
DWIDTH 7 0
BBX 9 5 0 0
BITMAP
2E7800
77DD00
A2E840
77D680
2EBE00
ENDCHAR
STARTCHAR Racute
ENCODING 340
SWIDTH 880 0
DWIDTH 10 0
BBX 11 13 0 0
BITMAP
000100
000B40
002900
000000
01FE00
0A5780
28D2C0
35D740
73F900
62ED00
728E04
37875C
1F02E0
ENDCHAR
STARTCHAR racute
ENCODING 341
SWIDTH 455 0
DWIDTH 5 0
BBX 7 9 0 0
BITMAP
00C0
0280
0200
0000
36C0
7AD4
79F4
7400
7000
ENDCHAR
STARTCHAR uni0156
ENCODING 342
SWIDTH 880 0
DWIDTH 10 0
BBX 11 12 0 -3
BITMAP
01FE00
0A5780
28D2C0
35D740
73F900
62ED00
728E04
37875C
1F02E0
000000
007000
006000
ENDCHAR
STARTCHAR uni0157
ENCODING 343
SWIDTH 455 0
DWIDTH 5 0
BBX 7 8 0 -3
BITMAP
36C0
7AD4
79F4
7400
7000
6000
A000
9000
ENDCHAR
STARTCHAR Rcaron
ENCODING 344
SWIDTH 880 0
DWIDTH 10 0
BBX 11 13 0 0
BITMAP
004100
00A900
003800
000000
01FE00
0A5780
28D2C0
35D740
73F900
62ED00
728E04
37875C
1F02E0
ENDCHAR
STARTCHAR rcaron
ENCODING 345
SWIDTH 455 0
DWIDTH 5 0
BBX 7 10 0 0
BITMAP
0450
0CD0
0A80
0700
0000
36C0
7AD4
79F4
7400
7000
ENDCHAR
STARTCHAR Sacute
ENCODING 346
SWIDTH 693 0
DWIDTH 8 0
BBX 8 13 0 0
BITMAP
0005
002D
0064
0000
07F8
2D5D
280E
2D04
0BE0
107C
B01D
756C
2FE0
ENDCHAR
STARTCHAR sacute
ENCODING 347
SWIDTH 427 0
DWIDTH 5 0
BBX 6 9 0 0
BITMAP
0180
0340
0600
0000
0D00
1D00
3B10
9BB0
5FD0
ENDCHAR
STARTCHAR Scircumflex
ENCODING 348
SWIDTH 693 0
DWIDTH 8 0
BBX 8 13 0 0
BITMAP
00A0
02B4
0368
0000
07F8
2D5D
280E
2D04
0BE0
107C
B01D
756C
2FE0
ENDCHAR
STARTCHAR scircumflex
ENCODING 349
SWIDTH 427 0
DWIDTH 5 0
BBX 6 10 0 0
BITMAP
0100
0B40
1A80
2580
0000
0D00
1D00
3B10
9BB0
5FD0
ENDCHAR
STARTCHAR Scedilla
ENCODING 350
SWIDTH 693 0
DWIDTH 8 0
BBX 8 12 0 -3
BITMAP
07F8
2D5D
280E
2E04
0BE0
00BC
A01D
742C
2FE0
0280
0180
1F40
ENDCHAR
STARTCHAR scedilla
ENCODING 351
SWIDTH 427 0
DWIDTH 5 0
BBX 6 8 0 -3
BITMAP
0D00
1C00
3E00
A770
5FD0
0A00
0600
7900
ENDCHAR
STARTCHAR Scaron
ENCODING 352
SWIDTH 693 0
DWIDTH 8 0
BBX 8 13 0 0
BITMAP
0104
02A8
00E0
0000
07F8
2D5D
280E
2D04
0BE0
107C
B01D
756C
2FE0
ENDCHAR
STARTCHAR scaron
ENCODING 353
SWIDTH 427 0
DWIDTH 5 0
BBX 6 10 0 0
BITMAP
0440
19C0
0E40
0A00
0000
0D00
1D00
3B10
9BB0
5FD0
ENDCHAR
STARTCHAR uni0162
ENCODING 354
SWIDTH 697 0
DWIDTH 8 0
BBX 10 12 0 -3
BITMAP
1BFFE0
75B540
A0A000
10E000
01D000
01D000
02C000
02C000
07C000
01D000
00D000
0B8000
ENDCHAR
STARTCHAR uni0163
ENCODING 355
SWIDTH 393 0
DWIDTH 4 0
BBX 6 12 0 -3
BITMAP
0780
0E80
1980
2A00
FF80
3500
3400
3860
1FC0
1E00
0600
7D00
ENDCHAR
STARTCHAR Tcaron
ENCODING 356
SWIDTH 697 0
DWIDTH 8 0
BBX 10 13 0 0
BITMAP
004100
009900
003800
000000
1BFFE0
75B540
A0A000
60E000
00D000
01D000
01C000
02C000
028000
ENDCHAR
STARTCHAR tcaron
ENCODING 357
SWIDTH 343 0
DWIDTH 4 0
BBX 5 11 0 0
BITMAP
0040
01C0
0580
1C00
2C00
2800
BF40
3400
7400
35C0
2E40
ENDCHAR
STARTCHAR Tbar
ENCODING 358
SWIDTH 697 0
DWIDTH 8 0
BBX 10 9 0 0
BITMAP
1BFFE0
75B540
A0A000
60E000
0FFD00
01D000
01C000
02C000
028000
ENDCHAR
STARTCHAR tbar
ENCODING 359
SWIDTH 343 0
DWIDTH 4 0
BBX 5 9 0 0
BITMAP
0400
1C00
2C00
2800
BF40
FF00
7440
35C0
2E00
ENDCHAR
STARTCHAR Utilde
ENCODING 360
SWIDTH 890 0
DWIDTH 10 0
BBX 11 12 0 0
BITMAP
00B640
019A00
000000
2F01C0
A741C0
4742C0
0B0380
0B0780
0E0B40
0D1B44
0E77AC
0B92E4
ENDCHAR
STARTCHAR utilde
ENCODING 361
SWIDTH 462 0
DWIDTH 5 0
BBX 7 8 0 0
BITMAP
1D60
26D0
0000
3580
7280
7344
7B64
76D0
ENDCHAR
STARTCHAR Umacron
ENCODING 362
SWIDTH 890 0
DWIDTH 10 0
BBX 11 11 0 0
BITMAP
00BE00
001400
2F01C0
A741C0
4742C0
0B0380
0B0780
0E0B40
0D1B44
0E77AC
0B92E4
ENDCHAR
STARTCHAR umacron
ENCODING 363
SWIDTH 462 0
DWIDTH 5 0
BBX 7 7 0 0
BITMAP
1FC0
0500
3580
7280
7344
7B64
76D0
ENDCHAR
STARTCHAR Ubreve
ENCODING 364
SWIDTH 890 0
DWIDTH 10 0
BBX 11 12 0 0
BITMAP
009240
00BE00
000000
2F01C0
A741C0
4742C0
0B0380
0B0780
0E0B40
0D1B44
0E77AC
0B92E4
ENDCHAR
STARTCHAR ubreve
ENCODING 365
SWIDTH 462 0
DWIDTH 5 0
BBX 7 9 0 0
BITMAP
1000
28A0
1F80
0000
3580
7280
7344
7B64
76D0
ENDCHAR
STARTCHAR Uring
ENCODING 366
SWIDTH 890 0
DWIDTH 10 0
BBX 11 13 0 0
BITMAP
002D00
006A00
003D00
000000
2F01C0
A741C0
4742C0
0B0380
0B0780
0E0B40
0D1B44
0E77AC
0B92E4
ENDCHAR
STARTCHAR uring
ENCODING 367
SWIDTH 462 0
DWIDTH 5 0
BBX 7 9 0 0
BITMAP
0B40
0DC0
0B80
0000
3580
7280
7344
7B64
76D0
ENDCHAR
STARTCHAR Uhungarumlaut
ENCODING 368
SWIDTH 890 0
DWIDTH 10 0
BBX 11 13 0 0
BITMAP
001100
003700
006600
000000
2F01C0
A741C0
4742C0
0B0380
0B0780
0E0B40
0D1B44
0E77AC
0B92E4
ENDCHAR
STARTCHAR uhungarumlaut
ENCODING 369
SWIDTH 462 0
DWIDTH 5 0
BBX 7 10 0 0
BITMAP
0110
0BA0
0DD0
0880
0000
3580
7280
7344
7B64
76D0
ENDCHAR
STARTCHAR Uogonek
ENCODING 370
SWIDTH 890 0
DWIDTH 10 0
BBX 11 12 0 -3
BITMAP
2F01C0
A741C0
4742C0
0B0380
0B0380
0E0B40
0D0B40
0E679C
0B92F4
0000D0
0001C0
0000B4
ENDCHAR
STARTCHAR uogonek
ENCODING 371
SWIDTH 462 0
DWIDTH 5 0
BBX 7 8 0 -3
BITMAP
3580
7280
7344
7B64
76E0
0340
0700
02D0
ENDCHAR
STARTCHAR Wcircumflex
ENCODING 372
SWIDTH 1217 0
DWIDTH 13 0
BBX 14 13 1 0
BITMAP
000B0000
002A4000
00358000
00000000
700D1F40
701D2A80
B02C2680
B03C2B40
B07C0BF0
B0AC0D00
70DD2C00
7B8EB400
2E079000
ENDCHAR
STARTCHAR wcircumflex
ENCODING 373
SWIDTH 700 0
DWIDTH 8 0
BBX 9 10 0 0
BITMAP
004000
02E000
036000
0A3000
000000
628D00
739D00
779FC0
7EF400
39D000
ENDCHAR
STARTCHAR Ycircumflex
ENCODING 374
SWIDTH 851 0
DWIDTH 9 0
BBX 11 16 0 -3
BITMAP
001D00
007A00
009700
000000
2F01C0
A741C0
8742C0
0703C0
0B0780
0E0B80
0E1B40
07E7B4
00AB40
024A00
071D00
03F800
ENDCHAR
STARTCHAR ycircumflex
ENCODING 375
SWIDTH 479 0
DWIDTH 5 0
BBX 7 15 0 -5
BITMAP
0100
0780
0DC0
28C0
0000
3580
7280
7340
7BB4
7B80
0B00
2A00
9900
DC00
B400
ENDCHAR
STARTCHAR Ydieresis
ENCODING 376
SWIDTH 851 0
DWIDTH 9 0
BBX 11 14 0 -3
BITMAP
00A700
000000
2F01C0
A741C0
8742C0
0703C0
0B0780
0E0B80
0E1B40
07E7B4
00AB40
024A00
071D00
03F800
ENDCHAR
STARTCHAR Zacute
ENCODING 377
SWIDTH 721 0
DWIDTH 8 0
BBX 10 13 0 0
BITMAP
000100
001E00
006400
000000
1BFE40
395F40
701D00
203800
00B000
02D000
078000
BF95D0
B9BF40
ENDCHAR
STARTCHAR zacute
ENCODING 378
SWIDTH 445 0
DWIDTH 5 0
BBX 6 9 0 0
BITMAP
01C0
0280
0200
0000
7FC0
1B40
3810
7570
2F90
ENDCHAR
STARTCHAR Zdotaccent
ENCODING 379
SWIDTH 721 0
DWIDTH 8 0
BBX 10 11 0 0
BITMAP
00B000
000000
1BFE40
395F40
701D00
203800
00B000
02D000
078000
BF95D0
B9BF40
ENDCHAR
STARTCHAR zdotaccent
ENCODING 380
SWIDTH 445 0
DWIDTH 5 0
BBX 6 7 0 0
BITMAP
0B00
0000
7FC0
1B40
3810
7570
2F90
ENDCHAR
STARTCHAR Zcaron
ENCODING 381
SWIDTH 721 0
DWIDTH 8 0
BBX 10 13 0 0
BITMAP
014400
01D800
00A000
000000
1BFE40
395F40
701D00
203800
00B000
02D000
078000
BF95D0
B9BF40
ENDCHAR
STARTCHAR zcaron
ENCODING 382
SWIDTH 445 0
DWIDTH 5 0
BBX 6 10 0 0
BITMAP
0450
0CD0
0E80
0B00
0000
7FC0
1B40
3810
7570
2F90
ENDCHAR
STARTCHAR uni018F
ENCODING 399
SWIDTH 792 0
DWIDTH 9 0
BBX 9 9 0 0
BITMAP
06F800
1D5F00
000740
000340
3FFF40
755B40
740B00
2D6D00
0BE400
ENDCHAR
STARTCHAR florin
ENCODING 402
SWIDTH 478 0
DWIDTH 5 0
BBX 7 11 -1 -3
BITMAP
00B8
02D0
0280
1FF4
0780
0340
0700
0700
0B00
0A00
BD00
ENDCHAR
STARTCHAR Ohorn
ENCODING 416
SWIDTH 816 0
DWIDTH 9 0
BBX 10 11 0 0
BITMAP
000090
0001D0
02FF80
0E5B40
2C0380
380380
740380
740340
380B00
2D6D00
0BE400
ENDCHAR
STARTCHAR ohorn
ENCODING 417
SWIDTH 451 0
DWIDTH 5 0
BBX 7 7 0 0
BITMAP
0040
0090
2F80
7780
A3F4
7680
2E00
ENDCHAR
STARTCHAR Uhorn
ENCODING 431
SWIDTH 890 0
DWIDTH 10 0
BBX 11 11 0 0
BITMAP
000018
000028
2F01E0
A741C0
4742C0
0B0380
0B0780
0E0B40
0D1B44
0E77AC
0B92E4
ENDCHAR
STARTCHAR uhorn
ENCODING 432
SWIDTH 512 0
DWIDTH 6 0
BBX 7 7 0 0
BITMAP
0010
0030
35E0
7280
7344
7B5C
76E0
ENDCHAR
STARTCHAR uni01C4
ENCODING 452
SWIDTH 1531 0
DWIDTH 17 0
BBX 17 13 1 0
BITMAP
0000014400
000001A800
000000A000
0000000000
2FE01BFE40
257C755F40
241D702D00
740E207800
700E00B000
B01D02D000
E02C078000
E5B4BF95C0
FF80B9BE40
ENDCHAR
STARTCHAR uni01C5
ENCODING 453
SWIDTH 1191 0
DWIDTH 13 0
BBX 13 10 1 0
BITMAP
00001040
2FE02680
257C1B00
241D1D00
740E0000
700EBF40
B01D2E00
E02C7400
E5B4D500
FF81FF40
ENDCHAR
STARTCHAR uni01C6
ENCODING 454
SWIDTH 895 0
DWIDTH 10 0
BBX 11 9 0 0
BITMAP
00A724
00D3A0
00D2D0
01C000
1BDFF0
3A8690
734E04
B7AE6C
79DBE4
ENDCHAR
STARTCHAR uni01C7
ENCODING 455
SWIDTH 1276 0
DWIDTH 14 0
BBX 15 10 -1 -1
BITMAP
007E07F8
02D7AD78
0383A838
07412834
074000B4
074007B0
070028A0
7FE5B0D0
7D6FF2C0
00007F40
ENDCHAR
STARTCHAR uni01C8
ENCODING 456
SWIDTH 927 0
DWIDTH 10 0
BBX 13 14 -1 -5
BITMAP
006F4000
01D6C000
0381EC00
07404000
07402800
07402800
07003400
7FE5BB40
7D6FB800
0000B000
0002A000
00099000
000DC000
000B4000
ENDCHAR
STARTCHAR uni01C9
ENCODING 457
SWIDTH 610 0
DWIDTH 7 0
BBX 8 15 0 -5
BITMAP
0740
1E80
2980
36B8
3700
7634
7C70
7471
35FA
2EB4
01D0
06D0
19C0
2A40
1E00
ENDCHAR
STARTCHAR uni01CA
ENCODING 458
SWIDTH 1497 0
DWIDTH 16 0
BBX 17 10 0 -1
BITMAP
2E1F82FF40
AB66CE5B00
4782CD0B00
0B42C90A00
0B03801E00
0E0741ED00
0E07475C00
0D079E2800
0D02FD7400
00000BD000
ENDCHAR
STARTCHAR uni01CB
ENCODING 459
SWIDTH 1138 0
DWIDTH 13 0
BBX 14 14 0 -5
BITMAP
2E1F8000
AB66C000
8782C740
0B42C000
0B038700
0E074700
0E074A00
0D079EA0
0D02EF40
00002D00
0000AC00
00019800
0002B400
0001E000
ENDCHAR
STARTCHAR uni01CC
ENCODING 460
SWIDTH 750 0
DWIDTH 8 0
BBX 10 12 0 -5
BITMAP
000B00
000000
36CA00
7BCA00
7A8D00
76AED0
71EE00
002C00
00E800
026400
037000
02D000
ENDCHAR
STARTCHAR Gcaron
ENCODING 486
SWIDTH 811 0
DWIDTH 9 0
BBX 10 18 0 -5
BITMAP
004500
009D00
007400
000000
02F900
0F5B00
2C0700
380500
740000
742F40
380740
2E5BB0
06FF80
001E00
006D00
00DC00
01A800
00E000
ENDCHAR
STARTCHAR gcaron
ENCODING 487
SWIDTH 479 0
DWIDTH 5 0
BBX 7 15 0 -5
BITMAP
0410
0D90
0AC0
0740
0000
1A40
3A80
7340
B7B4
7BD0
0B00
3A00
9900
DC00
B400
ENDCHAR
STARTCHAR uni01EA
ENCODING 490
SWIDTH 816 0
DWIDTH 9 0
BBX 9 12 0 -3
BITMAP
02F900
0B5B40
2C0380
380380
740380
740380
780740
3D1E00
1FF800
01C000
028000
01F400
ENDCHAR
STARTCHAR uni01EB
ENCODING 491
SWIDTH 451 0
DWIDTH 5 0
BBX 7 8 0 -3
BITMAP
2E00
7780
A3F4
B280
3F00
1C00
2800
1F00
ENDCHAR
STARTCHAR Aringacute
ENCODING 506
SWIDTH 786 0
DWIDTH 9 0
BBX 11 14 0 0
BITMAP
000028
001E60
002B40
001F00
000000
01BF80
079540
1E0B00
380A00
740E00
741D00
742D10
39AE70
1F8B80
ENDCHAR
STARTCHAR aringacute
ENCODING 507
SWIDTH 470 0
DWIDTH 5 0
BBX 7 10 0 0
BITMAP
000C
07A4
0DC0
0B80
0000
1A40
3A80
7340
B7A4
79E0
ENDCHAR
STARTCHAR AEacute
ENCODING 508
SWIDTH 1015 0
DWIDTH 11 0
BBX 13 13 0 0
BITMAP
00001400
00007400
00019000
00000000
01B6FE00
07975400
1E070000
380B0000
740FFC00
741E5000
742D0000
39AB5640
1F82FA00
ENDCHAR
STARTCHAR aeacute
ENCODING 509
SWIDTH 653 0
DWIDTH 7 0
BBX 9 9 0 0
BITMAP
002800
003400
005000
000000
1BB800
3ADC00
B2A840
B7D740
7DBD00
ENDCHAR
STARTCHAR Oslashacute
ENCODING 510
SWIDTH 816 0
DWIDTH 9 0
BBX 9 14 0 -1
BITMAP
000400
002C00
00A000
001800
02FD00
0E7B40
2C7380
38A380
74D380
74C340
398B00
2E9D00
0BE400
070000
ENDCHAR
STARTCHAR oslashacute
ENCODING 511
SWIDTH 459 0
DWIDTH 5 0
BBX 7 11 0 -2
BITMAP
0600
0D00
1900
0600
2F40
7A90
A9F4
BA80
2E00
1400
1000
ENDCHAR
STARTCHAR uni0200
ENCODING 512
SWIDTH 786 0
DWIDTH 9 0
BBX 10 13 0 0
BITMAP
005500
00AA00
002200
000000
01BF80
079540
1E0B00
380A00
740E00
741D00
742D10
39AE70
1F8B80
ENDCHAR
STARTCHAR uni0201
ENCODING 513
SWIDTH 470 0
DWIDTH 5 0
BBX 7 10 0 0
BITMAP
1100
3740
2A80
0880
0000
1A40
3A80
7340
B7A4
79E0
ENDCHAR
STARTCHAR uni0202
ENCODING 514
SWIDTH 786 0
DWIDTH 9 0
BBX 10 12 0 0
BITMAP
002F40
0065C0
000000
01BF80
079540
1E0B00
380A00
740E00
741D00
742D10
39AE70
1F8B80
ENDCHAR
STARTCHAR uni0203
ENCODING 515
SWIDTH 470 0
DWIDTH 5 0
BBX 7 8 0 0
BITMAP
0B80
29A0
1450
1A40
3A80
7340
B7A4
79E0
ENDCHAR
STARTCHAR uni0204
ENCODING 516
SWIDTH 686 0
DWIDTH 8 0
BBX 9 13 0 0
BITMAP
011000
037400
019800
000000
06F800
1E5E00
2C0A00
1D0500
0BD000
790000
B00000
795680
1BFE40
ENDCHAR
STARTCHAR uni0205
ENCODING 517
SWIDTH 393 0
DWIDTH 4 0
BBX 6 10 0 0
BITMAP
5500
AA00
3700
2640
0000
1E00
7740
BA10
75A0
2F40
ENDCHAR
STARTCHAR uni0206
ENCODING 518
SWIDTH 686 0
DWIDTH 8 0
BBX 9 12 0 0
BITMAP
01B800
029A00
000000
06F800
1E5E00
2C0A00
1D0500
0BD000
790000
B00000
795680
1BFE40
ENDCHAR
STARTCHAR uni0207
ENCODING 519
SWIDTH 393 0
DWIDTH 4 0
BBX 6 8 0 0
BITMAP
1F80
35D0
2040
1E00
7740
BA10
75A0
2F40
ENDCHAR
STARTCHAR uni0208
ENCODING 520
SWIDTH 495 0
DWIDTH 5 0
BBX 6 13 0 0
BITMAP
0440
1DC0
0980
0000
2FF0
0740
0700
0B00
0A00
0E00
0D00
1D00
FF80
ENDCHAR
STARTCHAR uni0209
ENCODING 521
SWIDTH 246 0
DWIDTH 3 0
BBX 5 10 -1 0
BITMAP
5500
AA00
7700
2640
0000
0D00
1C00
1C40
1DC0
0E40
ENDCHAR
STARTCHAR uni020A
ENCODING 522
SWIDTH 495 0
DWIDTH 5 0
BBX 7 12 0 0
BITMAP
07E0
1D74
0000
2FF0
0740
0700
0B00
0A00
0E00
0D00
1D00
FF80
ENDCHAR
STARTCHAR uni020B
ENCODING 523
SWIDTH 246 0
DWIDTH 3 0
BBX 4 8 0 0
BITMAP
7D
D7
42
34
70
71
77
39
ENDCHAR
STARTCHAR uni020C
ENCODING 524
SWIDTH 816 0
DWIDTH 9 0
BBX 9 13 0 0
BITMAP
011000
02A800
019800
000000
02F900
0E5B40
2C0380
380380
740380
740340
380B00
2D6D00
0BE400
ENDCHAR
STARTCHAR uni020D
ENCODING 525
SWIDTH 451 0
DWIDTH 5 0
BBX 7 10 0 0
BITMAP
5500
AA00
7700
2640
0000
2E00
7780
A3F4
7680
2E00
ENDCHAR
STARTCHAR uni020E
ENCODING 526
SWIDTH 816 0
DWIDTH 9 0
BBX 9 12 0 0
BITMAP
00B900
029A00
000000
02F900
0E5B40
2C0380
380380
740380
740340
380B00
2D6D00
0BE400
ENDCHAR
STARTCHAR uni020F
ENCODING 527
SWIDTH 451 0
DWIDTH 5 0
BBX 7 8 0 0
BITMAP
1F40
35C0
1040
2E00
7780
A3F4
7680
2E00
ENDCHAR
STARTCHAR uni0210
ENCODING 528
SWIDTH 880 0
DWIDTH 10 0
BBX 11 13 0 0
BITMAP
004400
01DC00
008800
000000
01FE00
0A5780
28D2C0
35D740
73F900
62ED00
728E04
37875C
1F02E0
ENDCHAR
STARTCHAR uni0211
ENCODING 529
SWIDTH 455 0
DWIDTH 5 0
BBX 7 10 0 0
BITMAP
1100
7700
3740
1980
0000
36C0
7AD4
79F4
7400
7000
ENDCHAR
STARTCHAR uni0212
ENCODING 530
SWIDTH 880 0
DWIDTH 10 0
BBX 11 12 0 0
BITMAP
00BD00
01D700
000000
01FE00
0A5780
28D2C0
35D740
73F900
62ED00
728E04
37875C
1F02E0
ENDCHAR
STARTCHAR uni0213
ENCODING 531
SWIDTH 455 0
DWIDTH 5 0
BBX 7 8 0 0
BITMAP
0B80
29D0
1050
36C0
7AD4
79F4
7400
7000
ENDCHAR
STARTCHAR uni0214
ENCODING 532
SWIDTH 890 0
DWIDTH 10 0
BBX 11 13 0 0
BITMAP
004400
01DC00
009900
000000
2F01C0
A741C0
4742C0
0B0380
0B0780
0E0B40
0D1B44
0E77AC
0B92E4
ENDCHAR
STARTCHAR uni0215
ENCODING 533
SWIDTH 462 0
DWIDTH 5 0
BBX 7 10 0 0
BITMAP
1100
7700
2640
1980
0000
3580
7280
7344
7B64
76D0
ENDCHAR
STARTCHAR uni0216
ENCODING 534
SWIDTH 890 0
DWIDTH 10 0
BBX 11 12 0 0
BITMAP
007E00
00D740
000000
2F01C0
A741C0
4742C0
0B0380
0B0780
0E0B40
0D1B44
0E77AC
0B92E4
ENDCHAR
STARTCHAR uni0217
ENCODING 535
SWIDTH 462 0
DWIDTH 5 0
BBX 7 8 0 0
BITMAP
0B80
29E0
1050
3580
7280
7344
7B64
76D0
ENDCHAR
STARTCHAR uni0218
ENCODING 536
SWIDTH 693 0
DWIDTH 8 0
BBX 8 12 0 -3
BITMAP
07F8
2D5D
280E
2D04
0BE0
107C
B01D
756C
2FE0
0000
0300
0600
ENDCHAR
STARTCHAR uni0219
ENCODING 537
SWIDTH 427 0
DWIDTH 5 0
BBX 6 8 0 -3
BITMAP
0D00
1D00
3B10
9BB0
5FD0
0800
1C00
1800
ENDCHAR
STARTCHAR uni021A
ENCODING 538
SWIDTH 697 0
DWIDTH 8 0
BBX 10 12 0 -3
BITMAP
1BFFE0
75B540
A0A000
60E000
00D000
01D000
01C000
02C000
028000
000000
028000
024000
ENDCHAR
STARTCHAR uni021B
ENCODING 539
SWIDTH 393 0
DWIDTH 4 0
BBX 6 13 0 -3
BITMAP
0740
0E80
1D80
2A40
2A00
FF80
3500
3410
29A0
1F80
0800
0C00
0800
ENDCHAR
STARTCHAR uni022A
ENCODING 554
SWIDTH 816 0
DWIDTH 9 0
BBX 9 14 0 0
BITMAP
00FD00
001400
000000
01CD00
000000
02F900
0E5B40
2C0380
380380
740380
740340
380B00
2D6D00
0BE400
ENDCHAR
STARTCHAR uni022B
ENCODING 555
SWIDTH 451 0
DWIDTH 5 0
BBX 7 10 0 0
BITMAP
1FC0
0500
0000
2980
0000
2E00
7780
A3F4
7680
2E00
ENDCHAR
STARTCHAR uni022C
ENCODING 556
SWIDTH 816 0
DWIDTH 9 0
BBX 9 14 0 0
BITMAP
00FD00
001400
01E600
026D00
000000
02F900
0E5B40
2C0380
380380
740380
740340
380B00
2D6D00
0BE400
ENDCHAR
STARTCHAR uni022D
ENCODING 557
SWIDTH 451 0
DWIDTH 5 0
BBX 7 10 0 0
BITMAP
1FC0
0500
2D90
6680
0000
2E00
7780
A3F4
7680
2E00
ENDCHAR
STARTCHAR uni0230
ENCODING 560
SWIDTH 816 0
DWIDTH 9 0
BBX 9 14 0 0
BITMAP
00FD00
001400
000000
007400
000000
02F900
0E5B40
2C0380
380380
740380
740340
380B00
2D6D00
0BE400
ENDCHAR
STARTCHAR uni0231
ENCODING 561
SWIDTH 451 0
DWIDTH 5 0
BBX 7 10 0 0
BITMAP
1FC0
0500
0000
0A00
0000
2E00
7780
A3F4
7680
2E00
ENDCHAR
STARTCHAR uni0232
ENCODING 562
SWIDTH 851 0
DWIDTH 9 0
BBX 11 14 0 -3
BITMAP
00BE00
001400
2F01C0
A741C0
8742C0
0703C0
0B0780
0E0B80
0E1B40
07E7B4
00AB40
024A00
071D00
03F800
ENDCHAR
STARTCHAR uni0233
ENCODING 563
SWIDTH 479 0
DWIDTH 5 0
BBX 7 12 0 -5
BITMAP
1FC0
0500
3580
7280
7340
7BB4
7B80
0B00
2A00
9900
DC00
B400
ENDCHAR
STARTCHAR uni0237
ENCODING 567
SWIDTH 254 0
DWIDTH 3 0
BBX 7 10 -3 -5
BITMAP
00D0
01D0
01C4
01E8
02E0
0780
1B40
3700
6A00
7800
ENDCHAR
STARTCHAR uni0259
ENCODING 601
SWIDTH 458 0
DWIDTH 5 0
BBX 5 5 0 0
BITMAP
3E00
1680
7F80
7780
2E00
ENDCHAR
STARTCHAR uni02BC
ENCODING 700
SWIDTH 600 0
DWIDTH 7 0
BBX 2 3 3 6
BITMAP
90
D0
80
ENDCHAR
STARTCHAR circumflex
ENCODING 710
SWIDTH 600 0
DWIDTH 7 0
BBX 4 4 1 6
BITMAP
04
1E
37
63
ENDCHAR
STARTCHAR caron
ENCODING 711
SWIDTH 600 0
DWIDTH 7 0
BBX 4 4 2 6
BITMAP
45
DD
A8
74
ENDCHAR
STARTCHAR uni02C9
ENCODING 713
SWIDTH 600 0
DWIDTH 7 0
BBX 4 2 1 5
BITMAP
7F
14
ENDCHAR
STARTCHAR breve
ENCODING 728
SWIDTH 600 0
DWIDTH 7 0
BBX 5 2 1 6
BITMAP
A280
7F00
ENDCHAR
STARTCHAR dotaccent
ENCODING 729
SWIDTH 600 0
DWIDTH 7 0
BBX 3 1 2 6
BITMAP
74
ENDCHAR
STARTCHAR ring
ENCODING 730
SWIDTH 600 0
DWIDTH 7 0
BBX 3 3 2 6
BITMAP
78
DC
B8
ENDCHAR
STARTCHAR ogonek
ENCODING 731
SWIDTH 600 0
DWIDTH 7 0
BBX 4 4 1 -3
BITMAP
10
30
60
7D
ENDCHAR
STARTCHAR tilde
ENCODING 732
SWIDTH 600 0
DWIDTH 7 0
BBX 5 2 1 6
BITMAP
7980
9B40
ENDCHAR
STARTCHAR hungarumlaut
ENCODING 733
SWIDTH 600 0
DWIDTH 7 0
BBX 4 4 2 6
BITMAP
11
77
99
88
ENDCHAR
STARTCHAR gravecomb
ENCODING 768
SWIDTH 0 0
DWIDTH 0 0
BBX 2 4 -5 6
BITMAP
40
D0
A0
20
ENDCHAR
STARTCHAR acutecomb
ENCODING 769
SWIDTH 0 0
DWIDTH 0 0
BBX 3 3 -4 6
BITMAP
28
34
90
ENDCHAR
STARTCHAR uni0302
ENCODING 770
SWIDTH 0 0
DWIDTH 0 0
BBX 4 4 -5 6
BITMAP
14
3C
A9
C9
ENDCHAR
STARTCHAR tildecomb
ENCODING 771
SWIDTH 0 0
DWIDTH 0 0
BBX 5 2 -6 6
BITMAP
2880
6780
ENDCHAR
STARTCHAR uni0304
ENCODING 772
SWIDTH 0 0
DWIDTH 0 0
BBX 4 2 -5 5
BITMAP
FD
14
ENDCHAR
STARTCHAR uni0306
ENCODING 774
SWIDTH 0 0
DWIDTH 0 0
BBX 5 3 -6 6
BITMAP
1040
71C0
2F40
ENDCHAR
STARTCHAR uni0307
ENCODING 775
SWIDTH 0 0
DWIDTH 0 0
BBX 2 1 -4 6
BITMAP
E0
ENDCHAR
STARTCHAR uni0308
ENCODING 776
SWIDTH 0 0
DWIDTH 0 0
BBX 4 1 -5 6
BITMAP
DA
ENDCHAR
STARTCHAR hookabovecomb
ENCODING 777
SWIDTH 0 0
DWIDTH 0 0
BBX 3 3 -4 6
BITMAP
F0
64
B0
ENDCHAR
STARTCHAR uni030A
ENCODING 778
SWIDTH 0 0
DWIDTH 0 0
BBX 4 3 -5 6
BITMAP
3C
A9
7C
ENDCHAR
STARTCHAR uni030B
ENCODING 779
SWIDTH 0 0
DWIDTH 0 0
BBX 5 4 -5 6
BITMAP
1100
3740
6600
9900
ENDCHAR
STARTCHAR uni030C
ENCODING 780
SWIDTH 0 0
DWIDTH 0 0
BBX 4 4 -5 6
BITMAP
51
A6
6D
38
ENDCHAR
STARTCHAR uni030F
ENCODING 783
SWIDTH 0 0
DWIDTH 0 0
BBX 4 4 -6 6
BITMAP
44
AA
77
22
ENDCHAR
STARTCHAR uni0311
ENCODING 785
SWIDTH 0 0
DWIDTH 0 0
BBX 5 3 -6 5
BITMAP
1F40
76C0
5080
ENDCHAR
STARTCHAR uni0312
ENCODING 786
SWIDTH 0 0
DWIDTH 0 0
BBX 2 3 -4 6
BITMAP
50
A0
90
ENDCHAR
STARTCHAR uni031B
ENCODING 795
SWIDTH 0 0
DWIDTH 0 0
BBX 3 2 -4 4
BITMAP
24
70
ENDCHAR
STARTCHAR dotbelowcomb
ENCODING 803
SWIDTH 0 0
DWIDTH 0 0
BBX 2 1 -5 -2
BITMAP
E0
ENDCHAR
STARTCHAR uni0324
ENCODING 804
SWIDTH 0 0
DWIDTH 0 0
BBX 4 1 -6 -2
BITMAP
DA
ENDCHAR
STARTCHAR uni0326
ENCODING 806
SWIDTH 0 0
DWIDTH 0 0
BBX 2 3 -5 -3
BITMAP
90
90
80
ENDCHAR
STARTCHAR uni0327
ENCODING 807
SWIDTH 0 0
DWIDTH 0 0
BBX 3 3 -6 -3
BITMAP
78
1C
F8
ENDCHAR
STARTCHAR uni0328
ENCODING 808
SWIDTH 0 0
DWIDTH 0 0
BBX 3 4 -5 -3
BITMAP
10
90
C0
B8
ENDCHAR
STARTCHAR uni032E
ENCODING 814
SWIDTH 0 0
DWIDTH 0 0
BBX 5 3 -7 -3
BITMAP
0040
71C0
2F40
ENDCHAR
STARTCHAR uni0331
ENCODING 817
SWIDTH 0 0
DWIDTH 0 0
BBX 4 2 -6 -3
BITMAP
BE
14
ENDCHAR
STARTCHAR uni0394
ENCODING 916
SWIDTH 700 0
DWIDTH 8 0
BBX 7 10 0 0
BITMAP
00D0
01D0
03E0
0760
0A70
0D34
2834
3428
7568
BFF8
ENDCHAR
STARTCHAR uni03A9
ENCODING 937
SWIDTH 816 0
DWIDTH 9 0
BBX 9 10 0 0
BITMAP
02F900
0BAF00
1D0780
380380
340380
740380
740740
380B00
6D2E40
FE3F80
ENDCHAR
STARTCHAR uni03BC
ENCODING 956
SWIDTH 462 0
DWIDTH 5 0
BBX 7 9 0 -3
BITMAP
2580
7280
7340
7754
BFB4
B6D0
A000
A000
A000
ENDCHAR
STARTCHAR pi
ENCODING 960
SWIDTH 496 0
DWIDTH 5 0
BBX 7 6 0 0
BITMAP
BFF0
76C0
7280
7284
B2A8
A1E0
ENDCHAR
STARTCHAR uni0400
ENCODING 1024
SWIDTH 686 0
DWIDTH 8 0
BBX 9 13 0 0
BITMAP
050000
0B4000
019000
000000
06F800
1E5E00
2C0A00
1D0500
0BD000
790000
B00000
795680
1BFE40
ENDCHAR
STARTCHAR uni0401
ENCODING 1025
SWIDTH 686 0
DWIDTH 8 0
BBX 9 11 0 0
BITMAP
01DC00
000000
06F800
1E5E00
2C0A00
1D0500
0BD000
790000
B00000
795680
1BFE40
ENDCHAR
STARTCHAR uni0402
ENCODING 1026
SWIDTH 974 0
DWIDTH 11 0
BBX 12 14 0 -5
BITMAP
1AFFE0
75B040
A0A000
60E000
00EBD0
01F5B0
01D0B1
02C0BE
0280F4
0002D0
000FD0
002AC0
003B40
002E00
ENDCHAR
STARTCHAR uni0403
ENCODING 1027
SWIDTH 635 0
DWIDTH 7 0
BBX 10 13 0 0
BITMAP
000400
002D00
00A000
000000
1BFFD0
76C000
A28000
638000
034000
074000
070000
0B0000
0A0000
ENDCHAR
STARTCHAR uni0404
ENCODING 1028
SWIDTH 687 0
DWIDTH 8 0
BBX 9 9 0 0
BITMAP
02F800
0F5E00
2C0A00
380000
7FF000
740000
380000
2E5680
06FE40
ENDCHAR
STARTCHAR uni0405
ENCODING 1029
SWIDTH 693 0
DWIDTH 8 0
BBX 8 9 0 0
BITMAP
07F8
2D5D
280E
2D04
0BE0
107C
B01D
756C
2FE0
ENDCHAR
STARTCHAR uni0406
ENCODING 1030
SWIDTH 495 0
DWIDTH 5 0
BBX 6 9 0 0
BITMAP
2FF0
0740
0700
0B00
0A00
0E00
0D00
1D00
FF80
ENDCHAR
STARTCHAR uni0407
ENCODING 1031
SWIDTH 495 0
DWIDTH 5 0
BBX 6 11 0 0
BITMAP
0DA0
0000
2FF0
0740
0700
0B00
0A00
0E00
0D00
1D00
FF80
ENDCHAR
STARTCHAR uni0408
ENCODING 1032
SWIDTH 743 0
DWIDTH 8 0
BBX 9 10 0 -1
BITMAP
0BFE40
395B00
740E00
240E00
002D00
02EC00
0B2C00
1D3800
1DB000
0FD000
ENDCHAR
STARTCHAR uni0409
ENCODING 1033
SWIDTH 1158 0
DWIDTH 13 0
BBX 13 9 0 0
BITMAP
000A0000
001E0000
002E0000
003FBE00
007B5B40
009A0380
41CB0740
A7475B00
7E01F800
ENDCHAR
STARTCHAR uni040A
ENCODING 1034
SWIDTH 1182 0
DWIDTH 13 0
BBX 13 9 0 0
BITMAP
2E028000
D7434000
47474000
070BBE00
2FFF4780
0E0A02C0
0E0A0380
1D075B40
1C02F900
ENDCHAR
STARTCHAR uni040B
ENCODING 1035
SWIDTH 979 0
DWIDTH 11 0
BBX 12 9 0 0
BITMAP
1AFFE0
75B040
A0A000
60E000
00EBD0
01F5B0
01D0B0
02C0B7
0280B9
ENDCHAR
STARTCHAR uni040C
ENCODING 1036
SWIDTH 937 0
DWIDTH 10 0
BBX 12 13 0 0
BITMAP
000010
0001E0
000340
000000
1BF424
39B074
70A0E0
20E780
02FD00
01EE00
41C741
A683DA
2E41F8
ENDCHAR
STARTCHAR uni040D
ENCODING 1037
SWIDTH 890 0
DWIDTH 10 0
BBX 11 13 0 0
BITMAP
010000
03D000
007000
000000
2F01C0
A741C0
4742C0
0B0380
0B0780
0E0B40
0D1B44
0E77AC
0B92E4
ENDCHAR
STARTCHAR uni040E
ENCODING 1038
SWIDTH 824 0
DWIDTH 9 0
BBX 11 16 0 -3
BITMAP
000100
00D700
00BD00
000000
2E01C0
A742C0
0703C0
0B0780
0B1F80
07E750
0007F4
006F40
02EB00
074A00
071D00
03F400
ENDCHAR
STARTCHAR uni040F
ENCODING 1039
SWIDTH 890 0
DWIDTH 10 0
BBX 11 11 0 -2
BITMAP
2F01C0
A741C0
4742C0
0B0380
0B0780
0E0B40
0D1B44
1E77AC
0BD2E4
034000
070000
ENDCHAR
STARTCHAR uni0410
ENCODING 1040
SWIDTH 786 0
DWIDTH 9 0
BBX 10 9 0 0
BITMAP
01BF80
079540
1E0B00
380A00
740E00
741D00
742D10
39AE70
1F8B80
ENDCHAR
STARTCHAR uni0411
ENCODING 1041
SWIDTH 917 0
DWIDTH 10 0
BBX 10 10 0 -1
BITMAP
1BFFD0
75D000
A1D000
62C000
02FF80
0B95E0
0380B0
0340E0
075B80
021900
ENDCHAR
STARTCHAR uni0412
ENCODING 1042
SWIDTH 827 0
DWIDTH 9 0
BBX 10 10 0 -1
BITMAP
1AFE40
B956D0
4600D0
0E06C0
0D7E00
1D1B00
1C0740
2D5F00
2FE800
140000
ENDCHAR
STARTCHAR uni0413
ENCODING 1043
SWIDTH 635 0
DWIDTH 7 0
BBX 10 9 0 0
BITMAP
1BFFD0
76C000
A28000
638000
034000
074000
070000
0B0000
0A0000
ENDCHAR
STARTCHAR uni0414
ENCODING 1044
SWIDTH 964 0
DWIDTH 11 0
BBX 11 9 0 0
BITMAP
06FE40
0E56E0
0090B0
02C074
038074
034074
7F40B0
ABD6D0
7D6E40
ENDCHAR
STARTCHAR uni0415
ENCODING 1045
SWIDTH 686 0
DWIDTH 8 0
BBX 9 9 0 0
BITMAP
06F800
1E5E00
2C0A00
1D0500
0BD000
790000
B00000
795680
1BFE40
ENDCHAR
STARTCHAR uni0416
ENCODING 1046
SWIDTH 1234 0
DWIDTH 14 0
BBX 15 9 0 0
BITMAP
0B8182E0
15D28764
00A38A00
0077AC00
002FE000
00EB7800
02CB2C00
A74B0E64
7D0A07E0
ENDCHAR
STARTCHAR uni0417
ENCODING 1047
SWIDTH 725 0
DWIDTH 8 0
BBX 8 9 0 0
BITMAP
07F4
1D6C
1C1C
0428
03F8
100E
701E
797C
1FE0
ENDCHAR
STARTCHAR uni0418
ENCODING 1048
SWIDTH 890 0
DWIDTH 10 0
BBX 11 9 0 0
BITMAP
2F01C0
A741C0
4742C0
0B0380
0B0780
0E0B40
0D1B44
0E77AC
0B92E4
ENDCHAR
STARTCHAR uni0419
ENCODING 1049
SWIDTH 890 0
DWIDTH 10 0
BBX 11 13 0 0
BITMAP
000100
009300
007D00
000000
2F01C0
A741C0
4742C0
0B0380
0B0780
0E0B40
0D1B44
0E77AC
0B92E4
ENDCHAR
STARTCHAR uni041A
ENCODING 1050
SWIDTH 937 0
DWIDTH 10 0
BBX 12 9 0 0
BITMAP
1BF424
39B074
70A0E0
20E780
02FD00
01EE00
41C741
A683DA
2E41F8
ENDCHAR
STARTCHAR uni041B
ENCODING 1051
SWIDTH 861 0
DWIDTH 9 0
BBX 11 9 0 0
BITMAP
000A00
001E00
002E00
003E00
007A00
00AA00
41DB04
A78758
7E02E0
ENDCHAR
STARTCHAR uni041C
ENCODING 1052
SWIDTH 1133 0
DWIDTH 12 0
BBX 14 9 0 0
BITMAP
00382C00
00783C00
00B8BC00
00F8EC00
00E9EC00
01DEAC00
429F6C10
A75F1DA0
7D0D0B80
ENDCHAR
STARTCHAR uni041D
ENCODING 1053
SWIDTH 873 0
DWIDTH 10 0
BBX 11 10 0 0
BITMAP
0000B0
2E02A4
D74364
474730
070BD0
2FFF40
0E0A00
0E0A04
1D0B58
1C02E0
ENDCHAR
STARTCHAR uni041E
ENCODING 1054
SWIDTH 816 0
DWIDTH 9 0
BBX 9 9 0 0
BITMAP
02F900
0E5B40
2C0380
380380
740380
740340
380B00
2D6D00
0BE400
ENDCHAR
STARTCHAR uni041F
ENCODING 1055
SWIDTH 892 0
DWIDTH 10 0
BBX 11 9 0 0
BITMAP
1AFFE8
7AD1D4
A2C1C0
6282C0
038380
074340
074740
07039C
0702F4
ENDCHAR
STARTCHAR uni0420
ENCODING 1056
SWIDTH 805 0
DWIDTH 9 0
BBX 9 11 0 -2
BITMAP
01BE00
0B5780
1C92C0
34D2C0
71DB40
67F900
62C000
638000
778000
2F4000
040000
ENDCHAR
STARTCHAR uni0421
ENCODING 1057
SWIDTH 686 0
DWIDTH 8 0
BBX 9 9 0 0
BITMAP
02F800
0F5E00
2C0A00
380500
740000
740000
380000
2E5680
06FE40
ENDCHAR
STARTCHAR uni0422
ENCODING 1058
SWIDTH 697 0
DWIDTH 8 0
BBX 10 9 0 0
BITMAP
1BFFE0
75B540
A0A000
60E000
00D000
01D000
01C000
02C000
028000
ENDCHAR
STARTCHAR uni0423
ENCODING 1059
SWIDTH 824 0
DWIDTH 9 0
BBX 11 12 0 -3
BITMAP
2E01C0
A742C0
0703C0
0B0780
0B1F80
07E750
0007F4
006F40
02EB00
074A00
071D00
03F400
ENDCHAR
STARTCHAR uni0424
ENCODING 1060
SWIDTH 977 0
DWIDTH 11 0
BBX 11 13 0 -3
BITMAP
090000
0BFE00
002C00
0BE9E0
2D7E74
383838
743434
74B074
75F4A0
3EBF80
00A000
29D000
1F8000
ENDCHAR
STARTCHAR uni0425
ENCODING 1061
SWIDTH 712 0
DWIDTH 8 0
BBX 9 9 0 0
BITMAP
2E0740
974E00
02F800
01F000
02D000
0BE000
2DB000
7479C0
E02F40
ENDCHAR
STARTCHAR uni0426
ENCODING 1062
SWIDTH 890 0
DWIDTH 10 0
BBX 11 12 0 -3
BITMAP
2F01C0
A741C0
4742C0
0B0380
0B0380
0E0B80
0D0B40
0E6798
0B91F4
000BD0
002DC0
001F40
ENDCHAR
STARTCHAR uni0427
ENCODING 1063
SWIDTH 773 0
DWIDTH 9 0
BBX 7 9 1 0
BITMAP
741C
741C
702C
B038
B5B8
7F78
0434
0074
0070
ENDCHAR
STARTCHAR uni0428
ENCODING 1064
SWIDTH 1272 0
DWIDTH 14 0
BBX 16 9 0 0
BITMAP
2F0180D0
A742C1D0
474381D0
0B0342C0
0B0743C0
0E0B0780
0D1E0B80
1EB767DD
0B93D1F4
ENDCHAR
STARTCHAR uni0429
ENCODING 1065
SWIDTH 1272 0
DWIDTH 14 0
BBX 16 12 0 -3
BITMAP
2F0180D0
A742C1D0
474381C0
0B0342C0
0B074380
0E0B0780
0D1E0B80
1EBB66E9
0B93D1F4
00000BD0
00001DC0
00001F80
ENDCHAR
STARTCHAR uni042A
ENCODING 1066
SWIDTH 863 0
DWIDTH 10 0
BBX 9 9 1 0
BITMAP
BFC000
074000
0B0000
0FFD00
3E5B40
1D0740
1D0740
0E5E00
06F400
ENDCHAR
STARTCHAR uni042B
ENCODING 1067
SWIDTH 1078 0
DWIDTH 12 0
BBX 12 9 0 0
BITMAP
0A000D
0D000D
1D001D
2EF81C
BD5E2C
380E28
280E38
2D6C34
0BE034
ENDCHAR
STARTCHAR uni042C
ENCODING 1068
SWIDTH 721 0
DWIDTH 8 0
BBX 8 9 0 0
BITMAP
0A00
0D00
1D00
2EF8
BD5E
380E
280E
2D6C
0BE0
ENDCHAR
STARTCHAR uni042D
ENCODING 1069
SWIDTH 755 0
DWIDTH 8 0
BBX 8 9 0 0
BITMAP
0BF4
296D
100B
000B
0BFF
000B
701D
7478
2FE0
ENDCHAR
STARTCHAR uni042E
ENCODING 1070
SWIDTH 1246 0
DWIDTH 14 0
BBX 14 9 0 0
BITMAP
2E028E00
EB4AC7C0
474FC1D0
076F40D0
2FFC01D0
0E1C01D0
0E1D0380
1D0F5B40
1C02F800
ENDCHAR
STARTCHAR uni042F
ENCODING 1071
SWIDTH 850 0
DWIDTH 9 0
BBX 11 9 0 0
BITMAP
02FE80
0B4780
0E0740
0E0B40
07FF00
007B00
40A704
E6C768
7E02E0
ENDCHAR
STARTCHAR uni0430
ENCODING 1072
SWIDTH 470 0
DWIDTH 5 0
BBX 7 5 0 0
BITMAP
1A40
3A80
7340
B7A4
79E0
ENDCHAR
STARTCHAR uni0431
ENCODING 1073
SWIDTH 473 0
DWIDTH 5 0
BBX 7 10 0 0
BITMAP
06C0
2E40
2800
0D00
0740
2F80
77C0
B2F8
7780
2E00
ENDCHAR
STARTCHAR uni0432
ENCODING 1074
SWIDTH 473 0
DWIDTH 5 0
BBX 7 10 0 0
BITMAP
0740
1E80
2980
3640
3600
7F40
77C0
72F8
3680
2E00
ENDCHAR
STARTCHAR uni0433
ENCODING 1075
SWIDTH 380 0
DWIDTH 4 0
BBX 6 5 0 0
BITMAP
6E00
1B00
2900
B5D0
7F40
ENDCHAR
STARTCHAR uni0434
ENCODING 1076
SWIDTH 479 0
DWIDTH 5 0
BBX 7 10 0 -5
BITMAP
1A40
3A80
7340
B7B4
7BD0
0B00
3A00
9900
DC00
B400
ENDCHAR
STARTCHAR uni0435
ENCODING 1077
SWIDTH 393 0
DWIDTH 4 0
BBX 6 5 0 0
BITMAP
1E00
7740
BA10
75A0
2F40
ENDCHAR
STARTCHAR uni0436
ENCODING 1078
SWIDTH 717 0
DWIDTH 8 0
BBX 9 5 0 0
BITMAP
2DDF00
2BF740
57F140
AAF5C0
799F40
ENDCHAR
STARTCHAR uni0437
ENCODING 1079
SWIDTH 435 0
DWIDTH 5 0
BBX 7 10 -1 -5
BITMAP
0BC0
0590
01C0
1E2C
0BA0
0780
1B40
3340
6A00
7800
ENDCHAR
STARTCHAR uni0438
ENCODING 1080
SWIDTH 462 0
DWIDTH 5 0
BBX 7 5 0 0
BITMAP
3580
7280
7344
7B64
76D0
ENDCHAR
STARTCHAR uni0439
ENCODING 1081
SWIDTH 462 0
DWIDTH 5 0
BBX 7 8 0 0
BITMAP
24D0
2F40
0000
3580
7280
7344
7B64
76D0
ENDCHAR
STARTCHAR uni043A
ENCODING 1082
SWIDTH 465 0
DWIDTH 5 0
BBX 7 5 0 0
BITMAP
36D0
7A90
7D40
7E64
76D0
ENDCHAR
STARTCHAR uni043B
ENCODING 1083
SWIDTH 549 0
DWIDTH 6 0
BBX 7 5 0 0
BITMAP
02C0
03C0
5AC4
EDDC
B4F4
ENDCHAR
STARTCHAR uni043C
ENCODING 1084
SWIDTH 734 0
DWIDTH 8 0
BBX 10 5 0 0
BITMAP
035D00
07AD00
5AB900
EDDA90
B4CB40
ENDCHAR
STARTCHAR uni043D
ENCODING 1085
SWIDTH 475 0
DWIDTH 5 0
BBX 7 5 0 0
BITMAP
35C0
7180
7F80
73A8
62E0
ENDCHAR
STARTCHAR uni043E
ENCODING 1086
SWIDTH 451 0
DWIDTH 5 0
BBX 7 5 0 0
BITMAP
2E00
7780
A3F4
7680
2E00
ENDCHAR
STARTCHAR uni043F
ENCODING 1087
SWIDTH 496 0
DWIDTH 5 0
BBX 7 5 0 0
BITMAP
36C0
7BC0
7A84
76A8
71E0
ENDCHAR
STARTCHAR uni0440
ENCODING 1088
SWIDTH 481 0
DWIDTH 5 0
BBX 9 10 -2 -5
BITMAP
07B400
07AC00
072840
0B7A80
1FEE00
2B0000
360000
6A0000
690000
380000
ENDCHAR
STARTCHAR uni0441
ENCODING 1089
SWIDTH 368 0
DWIDTH 4 0
BBX 6 5 0 0
BITMAP
2E00
7700
A100
B5D0
2F40
ENDCHAR
STARTCHAR uni0442
ENCODING 1090
SWIDTH 744 0
DWIDTH 8 0
BBX 10 5 0 0
BITMAP
368A00
7BEE00
7AD910
76CE90
728B40
ENDCHAR
STARTCHAR uni0443
ENCODING 1091
SWIDTH 479 0
DWIDTH 5 0
BBX 7 10 0 -5
BITMAP
3580
7280
7340
7BB4
7B80
0B00
2A00
9900
DC00
B400
ENDCHAR
STARTCHAR uni0444
ENCODING 1092
SWIDTH 721 0
DWIDTH 8 0
BBX 10 13 0 -4
BITMAP
005000
00D000
00D000
01C000
1BAC00
3ADD00
738D00
B7ADD0
7BEF40
034000
034000
034000
010000
ENDCHAR
STARTCHAR uni0445
ENCODING 1093
SWIDTH 529 0
DWIDTH 6 0
BBX 7 5 0 0
BITMAP
2DA0
2BA0
1700
AB5C
BAE4
ENDCHAR
STARTCHAR uni0446
ENCODING 1094
SWIDTH 501 0
DWIDTH 6 0
BBX 7 8 0 -3
BITMAP
3580
7280
7340
7B98
76E0
0B80
1A40
2E00
ENDCHAR
STARTCHAR uni0447
ENCODING 1095
SWIDTH 555 0
DWIDTH 6 0
BBX 8 6 0 0
BITMAP
0A00
1FF4
29D0
7741
D75D
02E4
ENDCHAR
STARTCHAR uni0448
ENCODING 1096
SWIDTH 693 0
DWIDTH 8 0
BBX 9 5 0 0
BITMAP
358900
729C00
776C40
7BBDC0
7ADE00
ENDCHAR
STARTCHAR uni0449
ENCODING 1097
SWIDTH 732 0
DWIDTH 8 0
BBX 9 8 0 -3
BITMAP
358900
729C00
776C00
7BBD80
7ADF40
002D00
00DC00
00F400
ENDCHAR
STARTCHAR uni044A
ENCODING 1098
SWIDTH 542 0
DWIDTH 6 0
BBX 8 5 0 0
BITMAP
6D00
3F80
39D5
39DC
1FF4
ENDCHAR
STARTCHAR uni044B
ENCODING 1099
SWIDTH 702 0
DWIDTH 8 0
BBX 9 5 0 0
BITMAP
340D00
7BAC00
76FC40
76EDC0
2E4E40
ENDCHAR
STARTCHAR uni044C
ENCODING 1100
SWIDTH 517 0
DWIDTH 6 0
BBX 7 5 0 0
BITMAP
3400
7B80
76C4
76DC
2FE0
ENDCHAR
STARTCHAR uni044D
ENCODING 1101
SWIDTH 466 0
DWIDTH 5 0
BBX 7 5 0 0
BITMAP
2F40
16C0
0FF8
A6C0
7E40
ENDCHAR
STARTCHAR uni044E
ENCODING 1102
SWIDTH 676 0
DWIDTH 7 0
BBX 9 5 0 0
BITMAP
35B400
72AC00
7F5F80
779C00
61F400
ENDCHAR
STARTCHAR uni044F
ENCODING 1103
SWIDTH 543 0
DWIDTH 6 0
BBX 8 5 0 0
BITMAP
0BE0
1DD0
9FD5
E7DC
B8B4
ENDCHAR
STARTCHAR uni0450
ENCODING 1104
SWIDTH 393 0
DWIDTH 4 0
BBX 6 10 0 0
BITMAP
1000
3400
1C00
0900
0000
1E00
7740
BA10
75A0
2F40
ENDCHAR
STARTCHAR uni0451
ENCODING 1105
SWIDTH 393 0
DWIDTH 4 0
BBX 6 7 0 0
BITMAP
29C0
0000
1E00
7740
BA10
75A0
2F40
ENDCHAR
STARTCHAR uni0452
ENCODING 1106
SWIDTH 514 0
DWIDTH 6 0
BBX 7 14 0 -5
BITMAP
0D00
1C00
7F80
3800
36C0
7BC0
79C4
76E8
72D0
0740
2B00
6700
A900
7800
ENDCHAR
STARTCHAR uni0453
ENCODING 1107
SWIDTH 380 0
DWIDTH 4 0
BBX 6 9 0 0
BITMAP
0340
0600
0800
0000
6E00
1B00
2900
B5D0
7F40
ENDCHAR
STARTCHAR uni0454
ENCODING 1108
SWIDTH 379 0
DWIDTH 4 0
BBX 6 5 0 0
BITMAP
2F00
7640
BD00
7590
2F40
ENDCHAR
STARTCHAR uni0455
ENCODING 1109
SWIDTH 427 0
DWIDTH 5 0
BBX 6 5 0 0
BITMAP
0D00
1D00
3B10
9BB0
5FD0
ENDCHAR
STARTCHAR uni0456
ENCODING 1110
SWIDTH 246 0
DWIDTH 3 0
BBX 4 7 0 0
BITMAP
2C
00
34
70
71
77
39
ENDCHAR
STARTCHAR uni0457
ENCODING 1111
SWIDTH 246 0
DWIDTH 3 0
BBX 4 7 0 0
BITMAP
9A
00
34
70
71
77
39
ENDCHAR
STARTCHAR uni0458
ENCODING 1112
SWIDTH 254 0
DWIDTH 3 0
BBX 7 12 -3 -5
BITMAP
00E0
0000
00D0
01D0
01C4
01E8
02E0
0780
1B40
3700
6A00
7800
ENDCHAR
STARTCHAR uni0459
ENCODING 1113
SWIDTH 794 0
DWIDTH 9 0
BBX 10 5 0 0
BITMAP
02C000
03EE00
9AD720
EDDB60
B4BF80
ENDCHAR
STARTCHAR uni045A
ENCODING 1114
SWIDTH 751 0
DWIDTH 8 0
BBX 10 5 0 0
BITMAP
35C000
72AD00
7FDE10
729E90
61FF80
ENDCHAR
STARTCHAR uni045B
ENCODING 1115
SWIDTH 502 0
DWIDTH 6 0
BBX 7 9 0 0
BITMAP
0D00
1C00
7F80
3800
36C0
7BC0
7984
7698
71E0
ENDCHAR
STARTCHAR uni045C
ENCODING 1116
SWIDTH 465 0
DWIDTH 5 0
BBX 7 9 0 0
BITMAP
00C0
0280
0200
0000
36D0
7A90
7D40
7E64
76D0
ENDCHAR
STARTCHAR uni045D
ENCODING 1117
SWIDTH 462 0
DWIDTH 5 0
BBX 7 10 0 0
BITMAP
1400
2800
0D00
0600
0000
3580
7280
7344
7B64
76D0
ENDCHAR
STARTCHAR uni045E
ENCODING 1118
SWIDTH 479 0
DWIDTH 5 0
BBX 7 13 0 -5
BITMAP
24D0
2F40
0000
3580
7280
7340
7BB4
7B80
0B00
2A00
9900
DC00
B400
ENDCHAR
STARTCHAR uni045F
ENCODING 1119
SWIDTH 600 0
DWIDTH 7 0
BBX 7 6 0 -1
BITMAP
3580
7280
7344
7B64
36D0
2000
ENDCHAR
STARTCHAR uni0462
ENCODING 1122
SWIDTH 721 0
DWIDTH 8 0
BBX 8 9 0 0
BITMAP
0A00
7F80
1D00
2EF8
7D5E
380E
280E
2D6C
0BE0
ENDCHAR
STARTCHAR uni0463
ENCODING 1123
SWIDTH 517 0
DWIDTH 6 0
BBX 7 7 0 0
BITMAP
1800
2800
BE00
7B80
76C4
76DC
2FE0
ENDCHAR
STARTCHAR uni046A
ENCODING 1130
SWIDTH 1234 0
DWIDTH 14 0
BBX 15 9 0 0
BITMAP
0BFFFFE0
01E00B40
00A00E00
00742C00
002FE000
00EB7800
02CB2C00
A74B0E64
7D0A07E0
ENDCHAR
STARTCHAR uni046B
ENCODING 1131
SWIDTH 788 0
DWIDTH 9 0
BBX 10 9 0 0
BITMAP
001C00
003C00
007C00
00AC00
07DF80
02DD00
12EC10
ABFD70
B8D7D0
ENDCHAR
STARTCHAR uni0472
ENCODING 1138
SWIDTH 816 0
DWIDTH 9 0
BBX 9 9 0 0
BITMAP
02F900
0E5B40
2C0380
3F8380
79BF80
740740
380B00
2D6D00
0BE400
ENDCHAR
STARTCHAR uni0473
ENCODING 1139
SWIDTH 451 0
DWIDTH 5 0
BBX 7 5 0 0
BITMAP
2E00
7690
BFF4
7780
2E00
ENDCHAR
STARTCHAR uni0474
ENCODING 1140
SWIDTH 797 0
DWIDTH 9 0
BBX 10 9 1 0
BITMAP
700BE0
700E50
B00D00
B01D00
B02800
B03400
74B000
3AD000
1E4000
ENDCHAR
STARTCHAR uni0475
ENCODING 1141
SWIDTH 420 0
DWIDTH 5 0
BBX 6 5 0 0
BITMAP
61F0
7280
7700
7E00
3800
ENDCHAR
STARTCHAR uni048A
ENCODING 1162
SWIDTH 890 0
DWIDTH 10 0
BBX 11 15 0 -2
BITMAP
000100
009300
00BE00
000000
2F01C0
A741C0
4742C0
0B0380
0B0780
0E0B40
0D1B44
0E77AC
0B92F4
0001D0
000280
ENDCHAR
STARTCHAR uni048B
ENCODING 1163
SWIDTH 462 0
DWIDTH 5 0
BBX 7 10 0 -2
BITMAP
2480
1F40
0000
3580
7280
7344
7B64
76E0
0280
0300
ENDCHAR
STARTCHAR uni048C
ENCODING 1164
SWIDTH 721 0
DWIDTH 8 0
BBX 8 9 0 0
BITMAP
0A00
7F80
1D00
2EF8
7D5E
380E
280E
2D6C
0BE0
ENDCHAR
STARTCHAR uni048D
ENCODING 1165
SWIDTH 517 0
DWIDTH 6 0
BBX 7 7 0 0
BITMAP
1800
2800
BE00
7B80
76C4
76DC
2FE0
ENDCHAR
STARTCHAR uni048E
ENCODING 1166
SWIDTH 805 0
DWIDTH 9 0
BBX 10 11 0 -2
BITMAP
01BE00
0A5780
1C92C0
34DBC0
71DBA0
67F900
62C000
638000
778000
2F4000
040000
ENDCHAR
STARTCHAR uni048F
ENCODING 1167
SWIDTH 481 0
DWIDTH 5 0
BBX 9 10 -2 -5
BITMAP
07B400
07AC00
072800
0BBA80
0FEE00
2B0000
360000
6A0000
690000
380000
ENDCHAR
STARTCHAR uni0490
ENCODING 1168
SWIDTH 645 0
DWIDTH 7 0
BBX 10 12 0 0
BITMAP
000010
0000A0
0000A0
1BFFD0
76C000
A28000
638000
034000
074000
070000
0B0000
0A0000
ENDCHAR
STARTCHAR uni0491
ENCODING 1169
SWIDTH 394 0
DWIDTH 4 0
BBX 5 7 0 0
BITMAP
0040
0280
3F40
7400
7000
7000
6000
ENDCHAR
STARTCHAR uni0492
ENCODING 1170
SWIDTH 635 0
DWIDTH 7 0
BBX 10 9 0 0
BITMAP
1BFFD0
76C000
A28000
638000
1FF000
074000
070000
0B0000
0A0000
ENDCHAR
STARTCHAR uni0493
ENCODING 1171
SWIDTH 380 0
DWIDTH 4 0
BBX 6 5 0 0
BITMAP
6E00
1B00
AD00
B5D0
7F40
ENDCHAR
STARTCHAR uni0494
ENCODING 1172
SWIDTH 884 0
DWIDTH 10 0
BBX 11 14 0 -5
BITMAP
1BFFD0
76C000
A2C000
638000
03AF40
07D6C0
0742C4
0B02F8
0A03D0
000B40
003F40
00AB00
00AD00
00B800
ENDCHAR
STARTCHAR uni0495
ENCODING 1173
SWIDTH 441 0
DWIDTH 5 0
BBX 6 8 0 -3
BITMAP
6E00
1B00
2900
7560
7FD0
1F00
3600
7C00
ENDCHAR
STARTCHAR uni0496
ENCODING 1174
SWIDTH 1234 0
DWIDTH 14 0
BBX 15 12 0 -3
BITMAP
0B8182E0
15D28764
00A38A00
0077AC00
002FE000
00EB7800
02CB2C00
A74B0E58
7D0A07E0
00000BC0
00002A80
00002F40
ENDCHAR
STARTCHAR uni0497
ENCODING 1175
SWIDTH 803 0
DWIDTH 9 0
BBX 10 8 0 -3
BITMAP
2DDF00
2BF740
57F100
AAF560
799F90
001B00
003A00
007C00
ENDCHAR
STARTCHAR uni0498
ENCODING 1176
SWIDTH 725 0
DWIDTH 8 0
BBX 8 12 0 -3
BITMAP
07F4
1D6C
1C1C
0428
03F8
100E
701D
797C
1FF0
07E0
0DD0
0F80
ENDCHAR
STARTCHAR uni0499
ENCODING 1177
SWIDTH 445 0
DWIDTH 5 0
BBX 6 8 0 -3
BITMAP
2F40
6740
0A00
57B0
7F90
1B00
3A00
3D00
ENDCHAR
STARTCHAR uni049A
ENCODING 1178
SWIDTH 937 0
DWIDTH 10 0
BBX 12 12 0 -3
BITMAP
1BF424
39B074
70A0E0
20E780
02FD00
01DF00
41C740
A683EA
2E41F4
0007E0
000D90
000F80
ENDCHAR
STARTCHAR uni049B
ENCODING 1179
SWIDTH 531 0
DWIDTH 6 0
BBX 7 8 0 -3
BITMAP
36D0
7A90
7D40
7E58
77F4
06C0
0E80
1F00
ENDCHAR
STARTCHAR uni049C
ENCODING 1180
SWIDTH 937 0
DWIDTH 10 0
BBX 12 9 0 0
BITMAP
1BF424
39B074
70A8E0
20EF80
02FD00
01EE00
41DF41
A697DA
2E41F8
ENDCHAR
STARTCHAR uni049D
ENCODING 1181
SWIDTH 485 0
DWIDTH 5 0
BBX 7 5 0 0
BITMAP
36D0
7B60
7E04
7E68
62E0
ENDCHAR
STARTCHAR uni049E
ENCODING 1182
SWIDTH 937 0
DWIDTH 10 0
BBX 12 9 0 0
BITMAP
1BF424
39B074
73F8E0
20E780
02FD00
01DE00
41C741
A683DA
2E41F8
ENDCHAR
STARTCHAR uni049F
ENCODING 1183
SWIDTH 473 0
DWIDTH 5 0
BBX 7 9 0 0
BITMAP
0D00
1C00
7F80
3800
36D0
7AA0
7D04
7E64
76E0
ENDCHAR
STARTCHAR uni04A0
ENCODING 1184
SWIDTH 937 0
DWIDTH 10 0
BBX 12 9 0 0
BITMAP
3FF424
05B070
00A0D0
00E780
02FD00
01DE00
41C741
A683DA
2E41F8
ENDCHAR
STARTCHAR uni04A1
ENCODING 1185
SWIDTH 555 0
DWIDTH 6 0
BBX 8 5 0 0
BITMAP
7DB4
1EA4
1F50
1F99
1DB4
ENDCHAR
STARTCHAR uni04A2
ENCODING 1186
SWIDTH 907 0
DWIDTH 10 0
BBX 12 13 0 -3
BITMAP
0000B0
2E02A4
D74364
474730
070BD0
2FFE00
0E0E00
0E0A00
1D0B99
1C02F4
0007D0
001DC0
001F40
ENDCHAR
STARTCHAR uni04A3
ENCODING 1187
SWIDTH 515 0
DWIDTH 6 0
BBX 7 8 0 -3
BITMAP
35C0
7180
7F80
7398
62E4
0780
1A80
1E00
ENDCHAR
STARTCHAR uni04A4
ENCODING 1188
SWIDTH 873 0
DWIDTH 10 0
BBX 12 9 0 0
BITMAP
2E00BF
D742D0
474740
070B00
2FFE00
0E0A00
0E0A04
1D0B58
1C02E0
ENDCHAR
STARTCHAR uni04A5
ENCODING 1189
SWIDTH 475 0
DWIDTH 5 0
BBX 7 6 0 0
BITMAP
0010
35D0
7180
7F80
73A8
62E0
ENDCHAR
STARTCHAR uni04A8
ENCODING 1192
SWIDTH 997 0
DWIDTH 11 0
BBX 13 9 0 0
BITMAP
02D00000
0F4BE000
2C2D7800
38742C00
74702C00
74702800
38787400
2E6FEB40
06FAF900
ENDCHAR
STARTCHAR uni04A9
ENCODING 1193
SWIDTH 574 0
DWIDTH 6 0
BBX 8 5 0 0
BITMAP
2DE0
7770
A731
B7A9
2FF4
ENDCHAR
STARTCHAR uni04AA
ENCODING 1194
SWIDTH 781 0
DWIDTH 9 0
BBX 10 14 0 -5
BITMAP
02F800
0E5E00
2C0A00
380500
740000
740000
380110
2D5AA0
0BFF40
002D00
00AC00
019800
02B400
01E000
ENDCHAR
STARTCHAR uni04AB
ENCODING 1195
SWIDTH 431 0
DWIDTH 5 0
BBX 6 8 0 -3
BITMAP
2E00
7700
A100
B560
2F90
1F00
6A00
7C00
ENDCHAR
STARTCHAR uni04AC
ENCODING 1196
SWIDTH 697 0
DWIDTH 8 0
BBX 10 12 0 -3
BITMAP
1BFFE0
75B040
A0A000
50E000
00D000
01D000
01C000
02D000
02F000
07A000
0DD000
0F8000
ENDCHAR
STARTCHAR uni04AD
ENCODING 1197
SWIDTH 784 0
DWIDTH 9 0
BBX 10 8 0 -3
BITMAP
368A00
7BEE00
7AD900
76CE60
728B80
001E00
006900
007800
ENDCHAR
STARTCHAR uni04AE
ENCODING 1198
SWIDTH 677 0
DWIDTH 7 0
BBX 7 9 1 0
BITMAP
701C
3838
2CB0
1ED0
0F80
0700
0700
0B00
0A00
ENDCHAR
STARTCHAR uni04AF
ENCODING 1199
SWIDTH 472 0
DWIDTH 5 0
BBX 7 9 0 -4
BITMAP
61C0
73C0
73F8
3A00
3D00
3800
2800
2800
1400
ENDCHAR
STARTCHAR uni04B0
ENCODING 1200
SWIDTH 677 0
DWIDTH 7 0
BBX 7 9 1 0
BITMAP
701C
3874
2CA0
1EC0
0B40
2FD0
0B00
0B00
0A00
ENDCHAR
STARTCHAR uni04B1
ENCODING 1201
SWIDTH 472 0
DWIDTH 5 0
BBX 7 9 0 -4
BITMAP
61C0
73C0
73F8
3B00
3D00
BE00
3800
2800
1400
ENDCHAR
STARTCHAR uni04B2
ENCODING 1202
SWIDTH 716 0
DWIDTH 8 0
BBX 9 12 0 -3
BITMAP
2E0740
978E00
02F800
01E000
02D000
0BE000
2DB000
747980
E02F40
007D00
01DC00
01F400
ENDCHAR
STARTCHAR uni04B3
ENCODING 1203
SWIDTH 601 0
DWIDTH 7 0
BBX 8 8 0 -3
BITMAP
2DA0
2B60
1700
AB56
BAF8
01E0
0690
0780
ENDCHAR
STARTCHAR uni04B4
ENCODING 1204
SWIDTH 1040 0
DWIDTH 11 0
BBX 13 12 0 -3
BITMAP
1BFF2800
75742800
A0B03800
60E07400
00D0B400
01D0F000
01C1B000
02D67940
00B82F40
0001FC00
0003A800
0002F000
ENDCHAR
STARTCHAR uni04B5
ENCODING 1205
SWIDTH 501 0
DWIDTH 6 0
BBX 7 10 0 -3
BITMAP
1FC0
0000
3580
7280
7340
7B98
76E0
0B80
1A40
2E00
ENDCHAR
STARTCHAR uni04B6
ENCODING 1206
SWIDTH 804 0
DWIDTH 9 0
BBX 9 12 1 -3
BITMAP
741C00
741C00
702C00
B03800
B5B800
7F7400
043400
003EC0
001E00
00AD00
02DC00
01F400
ENDCHAR
STARTCHAR uni04B7
ENCODING 1207
SWIDTH 631 0
DWIDTH 7 0
BBX 8 9 0 -3
BITMAP
0500
0FF4
19D0
3740
9756
43FD
01B0
0360
03D0
ENDCHAR
STARTCHAR uni04B8
ENCODING 1208
SWIDTH 773 0
DWIDTH 9 0
BBX 7 9 1 0
BITMAP
741C
741C
742C
B238
B678
BBF8
2E34
0574
0070
ENDCHAR
STARTCHAR uni04B9
ENCODING 1209
SWIDTH 575 0
DWIDTH 6 0
BBX 8 6 0 0
BITMAP
0A80
1FB4
29E0
7381
D75D
02F4
ENDCHAR
STARTCHAR uni04BA
ENCODING 1210
SWIDTH 755 0
DWIDTH 8 0
BBX 9 9 1 0
BITMAP
340000
340000
740000
700000
B6E000
B97800
F03840
E07A80
D03E00
ENDCHAR
STARTCHAR uni04BB
ENCODING 1211
SWIDTH 502 0
DWIDTH 6 0
BBX 7 10 0 0
BITMAP
0740
0E80
2980
3600
3A00
7AC0
7BC0
7984
7698
71E0
ENDCHAR
STARTCHAR uni04BC
ENCODING 1212
SWIDTH 808 0
DWIDTH 9 0
BBX 11 9 0 0
BITMAP
007E40
02D6C0
0741C0
2B02C0
7FFF80
0E0000
0B0000
079564
01BF90
ENDCHAR
STARTCHAR uni04BD
ENCODING 1213
SWIDTH 483 0
DWIDTH 5 0
BBX 7 5 0 0
BITMAP
0780
1DD0
AE84
6D68
0BD0
ENDCHAR
STARTCHAR uni04BE
ENCODING 1214
SWIDTH 808 0
DWIDTH 9 0
BBX 11 12 0 -3
BITMAP
007E40
02D6C0
0741C0
2B02C0
7FFF80
0E0000
0B0000
079564
01FF90
01C000
018000
00F400
ENDCHAR
STARTCHAR uni04BF
ENCODING 1215
SWIDTH 483 0
DWIDTH 5 0
BBX 7 8 0 -3
BITMAP
0B80
1DD0
AAC0
7D28
1FE0
0340
0700
02D0
ENDCHAR
STARTCHAR uni04C0
ENCODING 1216
SWIDTH 495 0
DWIDTH 5 0
BBX 6 9 0 0
BITMAP
2FF0
0740
0700
0B00
0A00
0E00
0D00
1D00
FF80
ENDCHAR
STARTCHAR uni04C1
ENCODING 1217
SWIDTH 1234 0
DWIDTH 14 0
BBX 15 13 0 0
BITMAP
00000400
00062400
0002E000
00000000
0B8182E0
15D28764
00A38A00
0077AC00
002FE000
00EB7800
02CB2C00
A74B0E64
7D0A07E0
ENDCHAR
STARTCHAR uni04C2
ENCODING 1218
SWIDTH 717 0
DWIDTH 8 0
BBX 9 9 0 0
BITMAP
000400
061800
03F000
000000
2DDF00
2BF740
57F140
AAF5C0
799F40
ENDCHAR
STARTCHAR uni04C3
ENCODING 1219
SWIDTH 937 0
DWIDTH 10 0
BBX 12 12 0 -3
BITMAP
1BF424
39B074
70A0E0
20E780
02FD00
01DF00
41C740
A683EA
2E41F4
0007E0
000D90
000F80
ENDCHAR
STARTCHAR uni04C4
ENCODING 1220
SWIDTH 531 0
DWIDTH 6 0
BBX 7 8 0 -3
BITMAP
36D0
7A90
7D40
7E58
77F4
06C0
0E80
1F00
ENDCHAR
STARTCHAR uni04C5
ENCODING 1221
SWIDTH 861 0
DWIDTH 9 0
BBX 11 11 0 -2
BITMAP
000A00
001E00
002E00
003E00
007A00
00AA00
41DB04
A78758
7E02E0
0002C0
000340
ENDCHAR
STARTCHAR uni04C6
ENCODING 1222
SWIDTH 549 0
DWIDTH 6 0
BBX 7 7 0 -2
BITMAP
02C0
03C0
5AC4
EDDC
B4F4
00A0
0180
ENDCHAR
STARTCHAR uni04C7
ENCODING 1223
SWIDTH 907 0
DWIDTH 10 0
BBX 12 13 0 -3
BITMAP
0000B0
2E02A4
D74364
474730
070BD0
2FFE00
0E0E00
0E0A00
1D0B99
1C02F4
0007D0
001DC0
001F40
ENDCHAR
STARTCHAR uni04C8
ENCODING 1224
SWIDTH 515 0
DWIDTH 6 0
BBX 7 8 0 -3
BITMAP
35C0
7180
7F80
7398
62E4
0780
1A80
1E00
ENDCHAR
STARTCHAR uni04C9
ENCODING 1225
SWIDTH 873 0
DWIDTH 10 0
BBX 11 13 0 -3
BITMAP
0000B0
2E02A4
D74364
474730
070BD0
2FFE00
0E0A00
0E0A04
1D0B68
1C02F0
0001D0
000380
000100
ENDCHAR
STARTCHAR uni04CA
ENCODING 1226
SWIDTH 475 0
DWIDTH 5 0
BBX 7 7 0 -2
BITMAP
35C0
7180
7F80
73A8
62E0
02C0
0340
ENDCHAR
STARTCHAR uni04CB
ENCODING 1227
SWIDTH 773 0
DWIDTH 9 0
BBX 7 12 1 -3
BITMAP
741C
741C
702C
B038
B5B8
7F78
0434
0074
01F0
1EC0
3A80
2F00
ENDCHAR
STARTCHAR uni04CC
ENCODING 1228
SWIDTH 555 0
DWIDTH 6 0
BBX 8 7 0 -1
BITMAP
0A00
1FF4
29D0
7741
D75D
02F4
0020
ENDCHAR
STARTCHAR uni04CD
ENCODING 1229
SWIDTH 1133 0
DWIDTH 12 0
BBX 14 11 0 -2
BITMAP
00382C00
00783C00
00B8BC00
00F8EC00
00E9EC00
01DEAC00
429F6C10
A75F1D60
7D0D0B80
00000B00
00000D00
ENDCHAR
STARTCHAR uni04CE
ENCODING 1230
SWIDTH 734 0
DWIDTH 8 0
BBX 10 7 0 -2
BITMAP
035D00
07AD00
5AB900
EDDA90
B4CB80
000A00
000C00
ENDCHAR
STARTCHAR uni04CF
ENCODING 1231
SWIDTH 222 0
DWIDTH 2 0
BBX 3 9 0 0
BITMAP
04
1C
28
38
34
74
70
B0
A0
ENDCHAR
STARTCHAR uni04D0
ENCODING 1232
SWIDTH 786 0
DWIDTH 9 0
BBX 10 13 0 0
BITMAP
000040
003180
002E40
000000
01BF80
079540
1E0B00
380A00
740E00
741D00
742D10
39AE70
1F8B80
ENDCHAR
STARTCHAR uni04D1
ENCODING 1233
SWIDTH 470 0
DWIDTH 5 0
BBX 7 8 0 0
BITMAP
1490
1F80
0000
1A40
3A80
7340
B7A4
79E0
ENDCHAR
STARTCHAR uni04D2
ENCODING 1234
SWIDTH 786 0
DWIDTH 9 0
BBX 10 11 0 0
BITMAP
003680
000000
01BF80
079540
1E0B00
380A00
740E00
741D00
742D10
39AE70
1F8B80
ENDCHAR
STARTCHAR uni04D3
ENCODING 1235
SWIDTH 470 0
DWIDTH 5 0
BBX 7 7 0 0
BITMAP
1CD0
0000
1A40
3A80
7340
B7A4
79E0
ENDCHAR
STARTCHAR uni04D4
ENCODING 1236
SWIDTH 1015 0
DWIDTH 11 0
BBX 13 9 0 0
BITMAP
01B6FE00
07975400
1E070000
380B0000
740FFC00
741E5000
742D0000
39AB5640
1F82FA00
ENDCHAR
STARTCHAR uni04D5
ENCODING 1237
SWIDTH 653 0
DWIDTH 7 0
BBX 9 5 0 0
BITMAP
1BB800
3ADC00
B2A840
B7D740
7DBD00
ENDCHAR
STARTCHAR uni04D6
ENCODING 1238
SWIDTH 686 0
DWIDTH 8 0
BBX 9 13 0 0
BITMAP
000100
018900
01F800
000000
06F800
1E5E00
2C0A00
1D0500
0BD000
790000
B00000
795680
1BFE40
ENDCHAR
STARTCHAR uni04D7
ENCODING 1239
SWIDTH 393 0
DWIDTH 4 0
BBX 6 9 0 0
BITMAP
0040
21C0
2F40
0000
1E00
7740
BA10
75A0
2F40
ENDCHAR
STARTCHAR uni04D8
ENCODING 1240
SWIDTH 792 0
DWIDTH 9 0
BBX 9 9 0 0
BITMAP
06F800
1D5F00
000740
000340
3FFF40
755B40
740B00
2D6D00
0BE400
ENDCHAR
STARTCHAR uni04D9
ENCODING 1241
SWIDTH 455 0
DWIDTH 5 0
BBX 7 5 0 0
BITMAP
2E40
1680
7FF4
A780
7E00
ENDCHAR
STARTCHAR uni04DA
ENCODING 1242
SWIDTH 792 0
DWIDTH 9 0
BBX 9 11 0 0
BITMAP
029C00
000000
06F800
1D5F00
000740
000340
3FFF40
755B40
740B00
2D6D00
0BE400
ENDCHAR
STARTCHAR uni04DB
ENCODING 1243
SWIDTH 455 0
DWIDTH 5 0
BBX 7 7 0 0
BITMAP
2980
0000
2E40
1680
7FF4
A780
7E00
ENDCHAR
STARTCHAR uni04DC
ENCODING 1244
SWIDTH 1234 0
DWIDTH 14 0
BBX 15 11 0 0
BITMAP
00077400
00000000
0B8182E0
15D28764
00A38A00
0077AC00
002FE000
00EB7800
02CB2C00
A74B0E64
7D0A07E0
ENDCHAR
STARTCHAR uni04DD
ENCODING 1245
SWIDTH 717 0
DWIDTH 8 0
BBX 9 7 0 0
BITMAP
036800
000000
2DDF00
2BF740
57F140
AAF5C0
799F40
ENDCHAR
STARTCHAR uni04DE
ENCODING 1246
SWIDTH 725 0
DWIDTH 8 0
BBX 8 11 0 0
BITMAP
029C
0000
07F4
1D6C
1C1C
0428
03F8
100E
701E
797C
1FE0
ENDCHAR
STARTCHAR uni04DF
ENCODING 1247
SWIDTH 435 0
DWIDTH 5 0
BBX 7 12 -1 -5
BITMAP
0D90
0000
0BC0
0590
01C0
1E2C
0BA0
0780
1B40
3340
6A00
7800
ENDCHAR
STARTCHAR uni04E0
ENCODING 1248
SWIDTH 744 0
DWIDTH 8 0
BBX 9 9 0 0
BITMAP
0BFE00
1D5F40
1C1D00
007800
03F800
100E00
701E00
797C00
1FE000
ENDCHAR
STARTCHAR uni04E1
ENCODING 1249
SWIDTH 435 0
DWIDTH 5 0
BBX 7 10 -1 -5
BITMAP
1FF0
06D0
0A04
1D28
0BD0
0B40
2A40
7340
6A00
7800
ENDCHAR
STARTCHAR uni04E2
ENCODING 1250
SWIDTH 890 0
DWIDTH 10 0
BBX 11 11 0 0
BITMAP
00BE00
001400
2F01C0
A741C0
4742C0
0B0380
0B0780
0E0B40
0D1B44
0E77AC
0B92E4
ENDCHAR
STARTCHAR uni04E3
ENCODING 1251
SWIDTH 462 0
DWIDTH 5 0
BBX 7 7 0 0
BITMAP
1FC0
0500
3580
7280
7344
7B64
76D0
ENDCHAR
STARTCHAR uni04E4
ENCODING 1252
SWIDTH 890 0
DWIDTH 10 0
BBX 11 11 0 0
BITMAP
00A600
000000
2F01C0
A741C0
4742C0
0B0380
0B0780
0E0B40
0D1B44
0E77AC
0B92E4
ENDCHAR
STARTCHAR uni04E5
ENCODING 1253
SWIDTH 462 0
DWIDTH 5 0
BBX 7 7 0 0
BITMAP
1DD0
0000
3580
7280
7344
7B64
76D0
ENDCHAR
STARTCHAR uni04E6
ENCODING 1254
SWIDTH 816 0
DWIDTH 9 0
BBX 9 11 0 0
BITMAP
01CD00
000000
02F900
0E5B40
2C0380
380380
740380
740340
380B00
2D6D00
0BE400
ENDCHAR
STARTCHAR uni04E7
ENCODING 1255
SWIDTH 451 0
DWIDTH 5 0
BBX 7 7 0 0
BITMAP
2980
0000
2E00
7780
A3F4
7680
2E00
ENDCHAR
STARTCHAR uni04E8
ENCODING 1256
SWIDTH 816 0
DWIDTH 9 0
BBX 9 9 0 0
BITMAP
02F900
0F5B40
2C0380
380380
7FFF80
740740
380B00
2D6D00
0BE400
ENDCHAR
STARTCHAR uni04E9
ENCODING 1257
SWIDTH 451 0
DWIDTH 5 0
BBX 7 5 0 0
BITMAP
2E00
7690
BFF4
7780
2E00
ENDCHAR
STARTCHAR uni04EA
ENCODING 1258
SWIDTH 816 0
DWIDTH 9 0
BBX 9 11 0 0
BITMAP
01CD00
000000
02F900
0F5B40
2C0380
380380
7FFF80
740740
380B00
2D6D00
0BE400
ENDCHAR
STARTCHAR uni04EB
ENCODING 1259
SWIDTH 451 0
DWIDTH 5 0
BBX 7 7 0 0
BITMAP
2580
0000
2E00
7690
BFF4
7780
2E00
ENDCHAR
STARTCHAR uni04EC
ENCODING 1260
SWIDTH 755 0
DWIDTH 8 0
BBX 8 11 0 0
BITMAP
029C
0000
0BF4
296D
100B
000B
0BFF
000B
701D
7478
2FE0
ENDCHAR
STARTCHAR uni04ED
ENCODING 1261
SWIDTH 466 0
DWIDTH 5 0
BBX 7 7 0 0
BITMAP
29C0
0000
2F40
16C0
0FF8
A6C0
7E40
ENDCHAR
STARTCHAR uni04EE
ENCODING 1262
SWIDTH 824 0
DWIDTH 9 0
BBX 11 14 0 -3
BITMAP
00FD00
001400
2E01C0
A742C0
0703C0
0B0780
0B1F80
07E750
0007F4
006F40
02EB00
074A00
071D00
03F400
ENDCHAR
STARTCHAR uni04EF
ENCODING 1263
SWIDTH 479 0
DWIDTH 5 0
BBX 7 12 0 -5
BITMAP
1FC0
0500
3580
7280
7340
7BB4
7B80
0B00
2A00
9900
DC00
B400
ENDCHAR
STARTCHAR uni04F0
ENCODING 1264
SWIDTH 824 0
DWIDTH 9 0
BBX 11 14 0 -3
BITMAP
00DA00
000000
2E01C0
A742C0
0703C0
0B0780
0B1F80
07E750
0007F4
006F40
02EB00
074A00
071D00
03F400
ENDCHAR
STARTCHAR uni04F1
ENCODING 1265
SWIDTH 479 0
DWIDTH 5 0
BBX 7 12 0 -5
BITMAP
1DD0
0000
3580
7280
7340
7BB4
7B80
0B00
2A00
9900
DC00
B400
ENDCHAR
STARTCHAR uni04F2
ENCODING 1266
SWIDTH 824 0
DWIDTH 9 0
BBX 11 16 0 -3
BITMAP
001100
007700
009900
000000
2E01C0
A742C0
0703C0
0B0780
0B1F80
07E750
0007F4
006F40
02EB00
074A00
071D00
03F400
ENDCHAR
STARTCHAR uni04F3
ENCODING 1267
SWIDTH 479 0
DWIDTH 5 0
BBX 7 15 0 -5
BITMAP
0110
0BA0
0DD0
0880
0000
3580
7280
7340
7BB4
7B80
0B00
2A00
9900
DC00
B400
ENDCHAR
STARTCHAR uni04F4
ENCODING 1268
SWIDTH 773 0
DWIDTH 9 0
BBX 7 11 1 0
BITMAP
0A70
0000
741C
741C
702C
B038
B5B8
7F78
0434
0074
0070
ENDCHAR
STARTCHAR uni04F5
ENCODING 1269
SWIDTH 555 0
DWIDTH 6 0
BBX 8 7 0 0
BITMAP
0368
0A00
1FF4
29D0
7741
D75D
02E4
ENDCHAR
STARTCHAR uni04F6
ENCODING 1270
SWIDTH 600 0
DWIDTH 7 0
BBX 10 12 0 -3
BITMAP
1BFFD0
76C000
A28000
638000
034000
074000
070000
0B4000
0BC000
1E8000
374000
3E0000
ENDCHAR
STARTCHAR uni04F7
ENCODING 1271
SWIDTH 441 0
DWIDTH 5 0
BBX 6 8 0 -3
BITMAP
6E00
1B00
2900
7560
7FD0
1F00
3600
7C00
ENDCHAR
STARTCHAR uni04F8
ENCODING 1272
SWIDTH 1078 0
DWIDTH 12 0
BBX 12 11 0 0
BITMAP
0029C0
000000
0A000D
0D000D
1D001D
2EF81C
BD5E2C
380E28
280E38
2D6C34
0BE034
ENDCHAR
STARTCHAR uni04F9
ENCODING 1273
SWIDTH 702 0
DWIDTH 8 0
BBX 9 7 0 0
BITMAP
036800
000000
340D00
7BAC00
76FC40
76EDC0
2E4E40
ENDCHAR
STARTCHAR uni04FA
ENCODING 1274
SWIDTH 635 0
DWIDTH 7 0
BBX 11 13 -1 -4
BITMAP
06FFF4
1DB000
28A000
18E000
07FC00
01D000
01D000
02C000
02C000
038000
034000
5B0000
BD0000
ENDCHAR
STARTCHAR uni04FB
ENCODING 1275
SWIDTH 441 0
DWIDTH 5 0
BBX 6 8 0 -3
BITMAP
6E00
1B00
AD00
B560
7F90
1F00
3600
7C00
ENDCHAR
STARTCHAR uni04FC
ENCODING 1276
SWIDTH 716 0
DWIDTH 8 0
BBX 9 12 0 -3
BITMAP
2E0740
978E00
02F800
01E000
02D000
0BE000
2DB000
747980
E02F40
007D00
01DC00
01F400
ENDCHAR
STARTCHAR uni04FD
ENCODING 1277
SWIDTH 601 0
DWIDTH 7 0
BBX 8 8 0 -3
BITMAP
2DA0
2B60
1700
AB56
BAF8
01E0
0690
0780
ENDCHAR
STARTCHAR uni04FE
ENCODING 1278
SWIDTH 712 0
DWIDTH 8 0
BBX 9 9 0 0
BITMAP
2E0740
974E00
02EC00
01F400
1FFC00
07E000
1EB000
7875C0
E02F40
ENDCHAR
STARTCHAR uni04FF
ENCODING 1279
SWIDTH 529 0
DWIDTH 6 0
BBX 7 5 0 0
BITMAP
2DA0
2BA0
1FC0
AB5C
BAF4
ENDCHAR
STARTCHAR uni0510
ENCODING 1296
SWIDTH 706 0
DWIDTH 8 0
BBX 8 9 0 0
BITMAP
07F4
0E6D
1C0D
0E00
1FD0
7400
740D
7D6C
1BE4
ENDCHAR
STARTCHAR uni0511
ENCODING 1297
SWIDTH 392 0
DWIDTH 4 0
BBX 6 5 0 0
BITMAP
2E00
7500
3C00
B590
7F40
ENDCHAR
STARTCHAR uni0512
ENCODING 1298
SWIDTH 884 0
DWIDTH 10 0
BBX 11 12 0 -3
BITMAP
000A00
001E00
002E00
003E00
007A00
00AA00
41DB00
A78758
7E02E4
000BD0
002DC0
001F40
ENDCHAR
STARTCHAR uni0513
ENCODING 1299
SWIDTH 631 0
DWIDTH 7 0
BBX 8 8 0 -3
BITMAP
02C0
03C0
4BC0
EDD6
B4FD
00B0
02A0
03D0
ENDCHAR
STARTCHAR uni051A
ENCODING 1306
SWIDTH 816 0
DWIDTH 9 0
BBX 10 12 0 -3
BITMAP
02F900
0F5B40
2C0380
380380
740380
740340
380B00
2E6D00
06F400
00B400
003860
001F80
ENDCHAR
STARTCHAR uni051B
ENCODING 1307
SWIDTH 500 0
DWIDTH 6 0
BBX 7 10 0 -4
BITMAP
0040
1BC0
3A80
7380
B7BC
7F60
0760
0750
0790
07C0
ENDCHAR
STARTCHAR uni051C
ENCODING 1308
SWIDTH 1217 0
DWIDTH 13 0
BBX 14 9 1 0
BITMAP
700D1F40
701D2A80
B02C2680
B03C2B40
B07C0BF0
B0AC0D00
70DD2C00
7B8EB400
2E079000
ENDCHAR
STARTCHAR uni051D
ENCODING 1309
SWIDTH 700 0
DWIDTH 8 0
BBX 9 5 0 0
BITMAP
628D00
739D00
779FC0
7EF400
39D000
ENDCHAR
STARTCHAR uni0524
ENCODING 1316
SWIDTH 892 0
DWIDTH 10 0
BBX 11 12 0 -3
BITMAP
1AFFE8
7AD1D4
A2C1C0
6282C0
038380
074340
074740
0703E8
0701F4
000BD0
001DC0
001F40
ENDCHAR
STARTCHAR uni0525
ENCODING 1317
SWIDTH 536 0
DWIDTH 6 0
BBX 7 8 0 -3
BITMAP
36C0
7BC0
7A80
7698
71F4
07C0
0D80
0F40
ENDCHAR
STARTCHAR uni0526
ENCODING 1318
SWIDTH 818 0
DWIDTH 9 0
BBX 10 12 1 -3
BITMAP
280000
380000
740000
740000
B6E000
B97800
F03800
E03D50
D03F80
006D00
01DD00
01F800
ENDCHAR
STARTCHAR uni0527
ENCODING 1319
SWIDTH 542 0
DWIDTH 6 0
BBX 7 13 0 -3
BITMAP
0740
0E80
2980
3600
3A00
7AC0
7BC0
7980
7698
71F4
06C0
0D80
0F40
ENDCHAR
STARTCHAR uni0528
ENCODING 1320
SWIDTH 873 0
DWIDTH 10 0
BBX 12 13 -1 -3
BITMAP
00002C
0B80A9
35D0D9
11D1CC
01C2F4
0BFFD0
038280
038281
0742D6
0700B8
0B0000
9D0000
F80000
ENDCHAR
STARTCHAR uni0529
ENCODING 1321
SWIDTH 475 0
DWIDTH 5 0
BBX 8 8 -1 -3
BITMAP
0D70
1C60
1FE0
1CEA
1CB8
1C00
9C00
F400
ENDCHAR
STARTCHAR uni052E
ENCODING 1326
SWIDTH 884 0
DWIDTH 10 0
BBX 11 12 0 -3
BITMAP
000A00
001E00
002E00
003E00
007A00
00AA00
41DB00
A78758
7E02E4
000BD0
002DC0
001F40
ENDCHAR
STARTCHAR uni052F
ENCODING 1327
SWIDTH 631 0
DWIDTH 7 0
BBX 8 8 0 -3
BITMAP
02C0
03C0
4BC0
EDD6
B4FD
00B0
02A0
03D0
ENDCHAR
STARTCHAR Wgrave
ENCODING 7808
SWIDTH 1217 0
DWIDTH 13 0
BBX 14 13 1 0
BITMAP
00400000
00E00000
00180000
00000000
700D1F40
701D2A80
B02C2680
B03C2B40
B07C0BF0
B0AC0D00
70DD2C00
7B8EB400
2E079000
ENDCHAR
STARTCHAR wgrave
ENCODING 7809
SWIDTH 700 0
DWIDTH 8 0
BBX 9 10 0 0
BITMAP
040000
0A0000
070000
014000
000000
628D00
739D00
779FC0
7EF400
39D000
ENDCHAR
STARTCHAR Wacute
ENCODING 7810
SWIDTH 1217 0
DWIDTH 13 0
BBX 14 13 1 0
BITMAP
00005000
0002D000
00064000
00000000
700D1F40
701D2A80
B02C2680
B03C2B40
B07C0BF0
B0AC0D00
70DD2C00
7B8EB400
2E079000
ENDCHAR
STARTCHAR wacute
ENCODING 7811
SWIDTH 700 0
DWIDTH 8 0
BBX 9 9 0 0
BITMAP
007000
00A000
008000
000000
628D00
739D00
779FC0
7EF400
39D000
ENDCHAR
STARTCHAR Wdieresis
ENCODING 7812
SWIDTH 1217 0
DWIDTH 13 0
BBX 14 11 1 0
BITMAP
00368000
00000000
700D1F40
701D2A80
B02C2680
B03C2B40
B07C0BF0
B0AC0D00
70DD2C00
7B8EB400
2E079000
ENDCHAR
STARTCHAR wdieresis
ENCODING 7813
SWIDTH 700 0
DWIDTH 8 0
BBX 9 7 0 0
BITMAP
067000
000000
628D00
739D00
779FC0
7EF400
39D000
ENDCHAR
STARTCHAR uni1E9E
ENCODING 7838
SWIDTH 843 0
DWIDTH 9 0
BBX 8 10 1 -1
BITMAP
28BD
3B5F
790E
B878
B5F8
B01E
E00E
E01D
D1B4
0140
ENDCHAR
STARTCHAR uni1EA0
ENCODING 7840
SWIDTH 786 0
DWIDTH 9 0
BBX 10 11 0 -2
BITMAP
01BF80
079540
1E0B00
380A00
740E00
741D00
742D10
39AE70
1F8B80
000000
028000
ENDCHAR
STARTCHAR uni1EA1
ENCODING 7841
SWIDTH 470 0
DWIDTH 5 0
BBX 7 7 0 -2
BITMAP
1A40
3A80
7340
B7A4
79E0
0000
2C00
ENDCHAR
STARTCHAR uni1EA2
ENCODING 7842
SWIDTH 786 0
DWIDTH 9 0
BBX 10 13 0 0
BITMAP
001E00
000740
000F00
000000
01BF80
079540
1E0B00
380A00
740E00
741D00
742D10
39AE70
1F8B80
ENDCHAR
STARTCHAR uni1EA3
ENCODING 7843
SWIDTH 470 0
DWIDTH 5 0
BBX 7 9 0 0
BITMAP
0780
01C0
0380
0000
1A40
3A80
7340
B7A4
79E0
ENDCHAR
STARTCHAR uni1EA4
ENCODING 7844
SWIDTH 786 0
DWIDTH 9 0
BBX 10 17 0 0
BITMAP
000010
0001E0
000640
000000
000E00
002B40
007240
000000
01BF80
079540
1E0B00
380A00
740E00
741D00
742D10
39AE70
1F8B80
ENDCHAR
STARTCHAR uni1EA5
ENCODING 7845
SWIDTH 470 0
DWIDTH 5 0
BBX 7 10 0 0
BITMAP
0004
0024
0780
18C0
0000
1A40
3A80
7340
B7A4
79E0
ENDCHAR
STARTCHAR uni1EA6
ENCODING 7846
SWIDTH 786 0
DWIDTH 9 0
BBX 10 17 0 0
BITMAP
004000
00B400
001C00
000000
000E00
002B40
007240
000000
01BF80
079540
1E0B00
380A00
740E00
741D00
742D10
39AE70
1F8B80
ENDCHAR
STARTCHAR uni1EA7
ENCODING 7847
SWIDTH 470 0
DWIDTH 5 0
BBX 7 10 0 0
BITMAP
1000
6400
0780
18C0
0000
1A40
3A80
7340
B7A4
79E0
ENDCHAR
STARTCHAR uni1EA8
ENCODING 7848
SWIDTH 786 0
DWIDTH 9 0
BBX 10 17 0 0
BITMAP
000B40
000280
000740
000000
000E00
002B40
007240
000000
01BF80
079540
1E0B00
380A00
740E00
741D00
742D10
39AE70
1F8B80
ENDCHAR
STARTCHAR uni1EA9
ENCODING 7849
SWIDTH 470 0
DWIDTH 5 0
BBX 7 9 0 0
BITMAP
0078
001C
07B8
1DD0
1E40
3A80
7340
B7A4
79E0
ENDCHAR
STARTCHAR uni1EAA
ENCODING 7850
SWIDTH 786 0
DWIDTH 9 0
BBX 10 16 0 0
BITMAP
002D60
0036C0
000000
000E00
002B40
007240
000000
01BF80
079540
1E0B00
380A00
740E00
741D00
742D10
39AE70
1F8B80
ENDCHAR
STARTCHAR uni1EAB
ENCODING 7851
SWIDTH 470 0
DWIDTH 5 0
BBX 7 10 0 0
BITMAP
0A60
0580
0B80
1CC0
0000
1A40
3A80
7340
B7A4
79E0
ENDCHAR
STARTCHAR uni1EAC
ENCODING 7852
SWIDTH 786 0
DWIDTH 9 0
BBX 10 15 0 -2
BITMAP
000E00
002B40
007240
000000
01BF80
079540
1E0B00
380A00
740E00
741D00
742D10
39AE70
1F8B80
000000
028000
ENDCHAR
STARTCHAR uni1EAD
ENCODING 7853
SWIDTH 470 0
DWIDTH 5 0
BBX 7 12 0 -2
BITMAP
0140
0780
0DC0
18C0
0000
1A40
3A80
7340
B7A4
79E0
0000
2C00
ENDCHAR
STARTCHAR uni1EAE
ENCODING 7854
SWIDTH 786 0
DWIDTH 9 0
BBX 10 13 0 0
BITMAP
000240
006580
003F80
000000
01BF80
079540
1E0B00
380A00
740E00
741D00
742D10
39AE70
1F8B80
ENDCHAR
STARTCHAR uni1EAF
ENCODING 7855
SWIDTH 470 0
DWIDTH 5 0
BBX 7 9 0 0
BITMAP
01D0
1560
1FD0
0000
1A40
3A80
7340
B7A4
79E0
ENDCHAR
STARTCHAR uni1EB0
ENCODING 7856
SWIDTH 786 0
DWIDTH 9 0
BBX 10 13 0 0
BITMAP
002800
006580
003F40
000000
01BF80
079540
1E0B00
380A00
740E00
741D00
742D10
39AE70
1F8B80
ENDCHAR
STARTCHAR uni1EB1
ENCODING 7857
SWIDTH 470 0
DWIDTH 5 0
BBX 7 9 0 0
BITMAP
0900
1560
1FD0
0000
1A40
3A80
7340
B7A4
79E0
ENDCHAR
STARTCHAR uni1EB2
ENCODING 7858
SWIDTH 786 0
DWIDTH 9 0
BBX 10 14 0 0
BITMAP
000E00
000E00
0065C0
003F40
000000
01BF80
079540
1E0B00
380A00
740E00
741D00
742D10
39AE70
1F8B80
ENDCHAR
STARTCHAR uni1EB3
ENCODING 7859
SWIDTH 470 0
DWIDTH 5 0
BBX 7 10 0 0
BITMAP
0780
0380
29A0
1FD0
0000
1A40
3A80
7340
B7A4
79E0
ENDCHAR
STARTCHAR uni1EB4
ENCODING 7860
SWIDTH 786 0
DWIDTH 9 0
BBX 10 14 0 0
BITMAP
002980
001240
006180
002F40
000000
01BF80
079540
1E0B00
380A00
740E00
741D00
742D10
39AE70
1F8B80
ENDCHAR
STARTCHAR uni1EB5
ENCODING 7861
SWIDTH 470 0
DWIDTH 5 0
BBX 7 10 0 0
BITMAP
0A60
1590
2460
1FD0
0000
1A40
3A80
7340
B7A4
79E0
ENDCHAR
STARTCHAR uni1EB6
ENCODING 7862
SWIDTH 786 0
DWIDTH 9 0
BBX 10 14 0 -2
BITMAP
006180
003F40
000000
01BF80
079540
1E0B00
380A00
740E00
741D00
742D10
39AE70
1F8B80
000000
028000
ENDCHAR
STARTCHAR uni1EB7
ENCODING 7863
SWIDTH 470 0
DWIDTH 5 0
BBX 7 11 0 -2
BITMAP
0010
28A0
1FD0
0000
1A40
3A80
7340
B7A4
79E0
0000
2C00
ENDCHAR
STARTCHAR uni1EB8
ENCODING 7864
SWIDTH 686 0
DWIDTH 8 0
BBX 9 11 0 -2
BITMAP
06F800
1E5E00
2C0A00
1D0500
0BD000
790000
B00000
795680
1BFE40
000000
038000
ENDCHAR
STARTCHAR uni1EB9
ENCODING 7865
SWIDTH 393 0
DWIDTH 4 0
BBX 6 7 0 -2
BITMAP
1E00
7740
BA10
75A0
2F40
0000
1D00
ENDCHAR
STARTCHAR uni1EBA
ENCODING 7866
SWIDTH 686 0
DWIDTH 8 0
BBX 9 13 0 0
BITMAP
00B800
001C00
007800
000000
06F800
1E5E00
2C0A00
1D0500
0BD000
790000
B00000
795680
1BFE40
ENDCHAR
STARTCHAR uni1EBB
ENCODING 7867
SWIDTH 393 0
DWIDTH 4 0
BBX 6 9 0 0
BITMAP
0F40
0280
0B40
0000
1E00
7740
BA10
75A0
2F40
ENDCHAR
STARTCHAR uni1EBC
ENCODING 7868
SWIDTH 686 0
DWIDTH 8 0
BBX 9 12 0 0
BITMAP
01D600
036D00
000000
06F800
1E5E00
2C0A00
1D0500
0BD000
790000
B00000
795680
1BFE40
ENDCHAR
STARTCHAR uni1EBD
ENCODING 7869
SWIDTH 393 0
DWIDTH 4 0
BBX 6 8 0 0
BITMAP
2D90
6680
0000
1E00
7740
BA10
75A0
2F40
ENDCHAR
STARTCHAR uni1EBE
ENCODING 7870
SWIDTH 686 0
DWIDTH 8 0
BBX 9 14 0 0
BITMAP
000140
000640
00B400
019C00
000000
06F800
1E5E00
2C0A00
1D0500
0BD000
790000
B00000
795680
1BFE40
ENDCHAR
STARTCHAR uni1EBF
ENCODING 7871
SWIDTH 393 0
DWIDTH 4 0
BBX 6 10 0 0
BITMAP
0010
0060
0B40
2580
0000
1E00
7740
BA10
75A0
2F40
ENDCHAR
STARTCHAR uni1EC0
ENCODING 7872
SWIDTH 686 0
DWIDTH 8 0
BBX 9 14 0 0
BITMAP
050000
064000
00B400
019C00
000000
06F800
1E5E00
2C0A00
1D0500
0BD000
790000
B00000
795680
1BFE40
ENDCHAR
STARTCHAR uni1EC1
ENCODING 7873
SWIDTH 393 0
DWIDTH 4 0
BBX 6 10 0 0
BITMAP
4000
6000
0B40
2580
0000
1E00
7740
BA10
75A0
2F40
ENDCHAR
STARTCHAR uni1EC2
ENCODING 7874
SWIDTH 686 0
DWIDTH 8 0
BBX 9 13 0 0
BITMAP
000740
000180
00BB40
01EC00
06F800
1E5E00
2C0A00
1D0500
0BD000
790000
B00000
795680
1BFE40
ENDCHAR
STARTCHAR uni1EC3
ENCODING 7875
SWIDTH 393 0
DWIDTH 4 0
BBX 7 9 0 0
BITMAP
00B4
0024
0BB4
2A80
2F00
7740
BA10
75A0
2F40
ENDCHAR
STARTCHAR uni1EC4
ENCODING 7876
SWIDTH 686 0
DWIDTH 8 0
BBX 9 14 0 0
BITMAP
00E600
015800
00B800
019C00
000000
06F800
1E5E00
2C0A00
1D0500
0BD000
790000
B00000
795680
1BFE40
ENDCHAR
STARTCHAR uni1EC5
ENCODING 7877
SWIDTH 393 0
DWIDTH 4 0
BBX 6 10 0 0
BITMAP
1E90
1640
0F40
2580
0000
1E00
7740
BA10
75A0
2F40
ENDCHAR
STARTCHAR uni1EC6
ENCODING 7878
SWIDTH 686 0
DWIDTH 8 0
BBX 9 15 0 -2
BITMAP
007400
00E800
028C00
000000
06F800
1E5E00
2C0A00
1D0500
0BD000
790000
B00000
795680
1BFE40
000000
038000
ENDCHAR
STARTCHAR uni1EC7
ENCODING 7879
SWIDTH 393 0
DWIDTH 4 0
BBX 6 12 0 -2
BITMAP
0100
0B40
1A80
2580
0000
1E00
7740
BA10
75A0
2F40
0000
1D00
ENDCHAR
STARTCHAR uni1EC8
ENCODING 7880
SWIDTH 495 0
DWIDTH 5 0
BBX 6 13 0 0
BITMAP
03D0
0190
02C0
0000
2FF0
0740
0700
0B00
0A00
0E00
0D00
1D00
FF80
ENDCHAR
STARTCHAR uni1EC9
ENCODING 7881
SWIDTH 246 0
DWIDTH 3 0
BBX 4 9 0 0
BITMAP
3D
19
2C
00
34
70
71
77
39
ENDCHAR
STARTCHAR uni1ECA
ENCODING 7882
SWIDTH 495 0
DWIDTH 5 0
BBX 6 11 0 -2
BITMAP
2FF0
0740
0700
0B00
0A00
0E00
0D00
1D00
FF80
0000
2C00
ENDCHAR
STARTCHAR uni1ECB
ENCODING 7883
SWIDTH 246 0
DWIDTH 3 0
BBX 4 9 0 -2
BITMAP
2C
00
34
70
71
77
39
00
B0
ENDCHAR
STARTCHAR uni1ECC
ENCODING 7884
SWIDTH 816 0
DWIDTH 9 0
BBX 9 11 0 -2
BITMAP
02F900
0E5B40
2C0380
380380
740380
740340
380B00
2D6D00
0BE400
000000
038000
ENDCHAR
STARTCHAR uni1ECD
ENCODING 7885
SWIDTH 451 0
DWIDTH 5 0
BBX 7 7 0 -2
BITMAP
2E00
7780
A3F4
7680
2E00
0000
2C00
ENDCHAR
STARTCHAR uni1ECE
ENCODING 7886
SWIDTH 816 0
DWIDTH 9 0
BBX 9 13 0 0
BITMAP
007800
001C00
003800
000000
02F900
0E5B40
2C0380
380380
740380
740340
380B00
2D6D00
0BE400
ENDCHAR
STARTCHAR uni1ECF
ENCODING 7887
SWIDTH 451 0
DWIDTH 5 0
BBX 7 9 0 0
BITMAP
0F40
0240
0B00
0000
2E00
7780
A3F4
7680
2E00
ENDCHAR
STARTCHAR uni1ED0
ENCODING 7888
SWIDTH 816 0
DWIDTH 9 0
BBX 9 14 0 0
BITMAP
000040
000240
007800
018C00
000000
02F900
0E5B40
2C0380
380380
740380
740340
380B00
2D6D00
0BE400
ENDCHAR
STARTCHAR uni1ED1
ENCODING 7889
SWIDTH 451 0
DWIDTH 5 0
BBX 7 10 0 0
BITMAP
0010
0060
0B40
2580
0000
2E00
7780
A3F4
7680
2E00
ENDCHAR
STARTCHAR uni1ED2
ENCODING 7890
SWIDTH 816 0
DWIDTH 9 0
BBX 9 14 0 0
BITMAP
010000
064000
007800
018C00
000000
02F900
0E5B40
2C0380
380380
740380
740340
380B00
2D6D00
0BE400
ENDCHAR
STARTCHAR uni1ED3
ENCODING 7891
SWIDTH 451 0
DWIDTH 5 0
BBX 7 10 0 0
BITMAP
4000
A000
0B40
2580
0000
2E00
7780
A3F4
7680
2E00
ENDCHAR
STARTCHAR uni1ED4
ENCODING 7892
SWIDTH 816 0
DWIDTH 9 0
BBX 9 13 0 0
BITMAP
000780
0001C0
007B80
01DD00
02FD00
0E5B40
2C0380
380380
740380
740340
380B00
2D6D00
0BE400
ENDCHAR
STARTCHAR uni1ED5
ENCODING 7893
SWIDTH 451 0
DWIDTH 5 0
BBX 7 9 0 0
BITMAP
00B4
0024
0BB0
2A80
2F40
7780
A3F4
7680
2E00
ENDCHAR
STARTCHAR uni1ED6
ENCODING 7894
SWIDTH 816 0
DWIDTH 9 0
BBX 9 14 0 0
BITMAP
00A600
005800
00B800
01CC00
000000
02F900
0E5B40
2C0380
380380
740380
740340
380B00
2D6D00
0BE400
ENDCHAR
STARTCHAR uni1ED7
ENCODING 7895
SWIDTH 451 0
DWIDTH 5 0
BBX 7 10 0 0
BITMAP
1D90
1640
0F40
2580
0000
2E00
7780
A3F4
7680
2E00
ENDCHAR
STARTCHAR uni1ED8
ENCODING 7896
SWIDTH 816 0
DWIDTH 9 0
BBX 9 15 0 -2
BITMAP
007800
00EC00
018D00
000000
02F900
0E5B40
2C0380
380380
740380
740340
380B00
2D6D00
0BE400
000000
038000
ENDCHAR
STARTCHAR uni1ED9
ENCODING 7897
SWIDTH 451 0
DWIDTH 5 0
BBX 7 12 0 -2
BITMAP
0100
0B40
1A80
3580
0000
2E00
7780
A3F4
7680
2E00
0000
2C00
ENDCHAR
STARTCHAR uni1EDA
ENCODING 7898
SWIDTH 816 0
DWIDTH 9 0
BBX 10 13 0 0
BITMAP
000100
000B00
002890
0001D0
02FF80
0E5B40
2C0380
380380
740380
740340
380B00
2D6D00
0BE400
ENDCHAR
STARTCHAR uni1EDB
ENCODING 7899
SWIDTH 451 0
DWIDTH 5 0
BBX 7 9 0 0
BITMAP
0280
0740
0940
0090
2F80
7780
A3F4
7680
2E00
ENDCHAR
STARTCHAR uni1EDC
ENCODING 7900
SWIDTH 816 0
DWIDTH 9 0
BBX 10 13 0 0
BITMAP
050000
078000
019090
0001D0
02FF80
0E5B40
2C0380
380380
740380
740340
380B00
2D6D00
0BE400
ENDCHAR
STARTCHAR uni1EDD
ENCODING 7901
SWIDTH 451 0
DWIDTH 5 0
BBX 7 10 0 0
BITMAP
1000
7400
2800
0840
0090
2F80
7780
A3F4
7680
2E00
ENDCHAR
STARTCHAR uni1EDE
ENCODING 7902
SWIDTH 816 0
DWIDTH 9 0
BBX 10 13 0 0
BITMAP
007800
001C00
003890
0001D0
02FF80
0E5B40
2C0380
380380
740380
740340
380B00
2D6D00
0BE400
ENDCHAR
STARTCHAR uni1EDF
ENCODING 7903
SWIDTH 451 0
DWIDTH 5 0
BBX 7 9 0 0
BITMAP
1E00
0740
0B40
0090
2F80
7780
A3F4
7680
2E00
ENDCHAR
STARTCHAR uni1EE0
ENCODING 7904
SWIDTH 816 0
DWIDTH 9 0
BBX 10 12 0 0
BITMAP
01E600
026D90
0001D0
02FF80
0E5B40
2C0380
380380
740380
740340
380B00
2D6D00
0BE400
ENDCHAR
STARTCHAR uni1EE1
ENCODING 7905
SWIDTH 451 0
DWIDTH 5 0
BBX 7 8 0 0
BITMAP
2980
2780
0090
2F80
7780
A3F4
7680
2E00
ENDCHAR
STARTCHAR uni1EE2
ENCODING 7906
SWIDTH 816 0
DWIDTH 9 0
BBX 10 13 0 -2
BITMAP
000090
0001D0
02FF80
0E5B40
2C0380
380380
740380
740340
380B00
2D6D00
0BE400
000000
038000
ENDCHAR
STARTCHAR uni1EE3
ENCODING 7907
SWIDTH 451 0
DWIDTH 5 0
BBX 7 9 0 -2
BITMAP
0040
0090
2F80
7780
A3F4
7680
2E00
0000
2C00
ENDCHAR
STARTCHAR uni1EE4
ENCODING 7908
SWIDTH 890 0
DWIDTH 10 0
BBX 11 11 0 -2
BITMAP
2F01C0
A741C0
4742C0
0B0380
0B0780
0E0B40
0D1B44
0E77AC
0B92E4
000000
01D000
ENDCHAR
STARTCHAR uni1EE5
ENCODING 7909
SWIDTH 462 0
DWIDTH 5 0
BBX 7 7 0 -2
BITMAP
3580
7280
7344
7B64
76D0
0000
1D00
ENDCHAR
STARTCHAR uni1EE6
ENCODING 7910
SWIDTH 890 0
DWIDTH 10 0
BBX 11 13 0 0
BITMAP
003D00
000A00
002D00
000000
2F01C0
A741C0
4742C0
0B0380
0B0780
0E0B40
0D1B44
0E77AC
0B92E4
ENDCHAR
STARTCHAR uni1EE7
ENCODING 7911
SWIDTH 462 0
DWIDTH 5 0
BBX 7 9 0 0
BITMAP
0B40
01C0
0740
0000
3580
7280
7344
7B64
76D0
ENDCHAR
STARTCHAR uni1EE8
ENCODING 7912
SWIDTH 890 0
DWIDTH 10 0
BBX 11 13 0 0
BITMAP
000140
000780
001918
000028
2F01E0
A741C0
4742C0
0B0380
0B0780
0E0B40
0D1B44
0E77AC
0B92E4
ENDCHAR
STARTCHAR uni1EE9
ENCODING 7913
SWIDTH 512 0
DWIDTH 6 0
BBX 7 9 0 0
BITMAP
00C0
0280
0210
0030
35E0
7280
7344
7B5C
76E0
ENDCHAR
STARTCHAR uni1EEA
ENCODING 7914
SWIDTH 890 0
DWIDTH 10 0
BBX 11 13 0 0
BITMAP
010000
03D000
007018
000028
2F01E0
A741C0
4742C0
0B0380
0B0780
0E0B40
0D1B44
0E77AC
0B92E4
ENDCHAR
STARTCHAR uni1EEB
ENCODING 7915
SWIDTH 512 0
DWIDTH 6 0
BBX 7 10 0 0
BITMAP
1400
2800
0D00
0610
0030
35E0
7280
7344
7B5C
76E0
ENDCHAR
STARTCHAR uni1EEC
ENCODING 7916
SWIDTH 890 0
DWIDTH 10 0
BBX 11 13 0 0
BITMAP
003D00
000A00
002D18
000028
2F01E0
A741C0
4742C0
0B0380
0B0780
0E0B40
0D1B44
0E77AC
0B92E4
ENDCHAR
STARTCHAR uni1EED
ENCODING 7917
SWIDTH 512 0
DWIDTH 6 0
BBX 7 9 0 0
BITMAP
0B40
01C0
0750
0030
35E0
7280
7344
7B5C
76E0
ENDCHAR
STARTCHAR uni1EEE
ENCODING 7918
SWIDTH 890 0
DWIDTH 10 0
BBX 11 12 0 0
BITMAP
00B640
019A18
000028
2F01E0
A741C0
4742C0
0B0380
0B0780
0E0B40
0D1B44
0E77AC
0B92E4
ENDCHAR
STARTCHAR uni1EEF
ENCODING 7919
SWIDTH 512 0
DWIDTH 6 0
BBX 7 8 0 0
BITMAP
1D90
2690
0030
35E0
7280
7344
7B5C
76E0
ENDCHAR
STARTCHAR uni1EF0
ENCODING 7920
SWIDTH 890 0
DWIDTH 10 0
BBX 11 13 0 -2
BITMAP
000018
000028
2F01E0
A741C0
4742C0
0B0380
0B0780
0E0B40
0D1B44
0E77AC
0B92E4
000000
01D000
ENDCHAR
STARTCHAR uni1EF1
ENCODING 7921
SWIDTH 512 0
DWIDTH 6 0
BBX 7 9 0 -2
BITMAP
0010
0030
35E0
7280
7344
7B5C
76E0
0000
1D00
ENDCHAR
STARTCHAR Ygrave
ENCODING 7922
SWIDTH 851 0
DWIDTH 9 0
BBX 11 16 0 -3
BITMAP
010000
02D000
006400
000000
2F01C0
A741C0
8742C0
0703C0
0B0780
0E0B80
0E1B40
07E7B4
00AB40
024A00
071D00
03F800
ENDCHAR
STARTCHAR ygrave
ENCODING 7923
SWIDTH 479 0
DWIDTH 5 0
BBX 7 15 0 -5
BITMAP
1400
2800
0D00
0600
0000
3580
7280
7340
7BB4
7B80
0B00
2A00
9900
DC00
B400
ENDCHAR
STARTCHAR uni1EF4
ENCODING 7924
SWIDTH 851 0
DWIDTH 9 0
BBX 11 12 0 -3
BITMAP
2F01C0
A741C0
8742C0
0703C0
0B0780
0E0B80
0E1B40
07E7B4
00AB40
024A00
071D00
03FAD0
ENDCHAR
STARTCHAR uni1EF5
ENCODING 7925
SWIDTH 479 0
DWIDTH 5 0
BBX 7 10 0 -5
BITMAP
3580
7280
7340
7BB4
7B80
0B00
2A00
9900
DEC0
B400
ENDCHAR
STARTCHAR uni1EF6
ENCODING 7926
SWIDTH 851 0
DWIDTH 9 0
BBX 11 16 0 -3
BITMAP
002D00
000A00
001D00
000000
2F01C0
A741C0
8742C0
0703C0
0B0780
0E0B80
0E1B40
07E7B4
00AB40
024A00
071D00
03F800
ENDCHAR
STARTCHAR uni1EF7
ENCODING 7927
SWIDTH 479 0
DWIDTH 5 0
BBX 7 14 0 -5
BITMAP
0B40
01C0
0740
0000
3580
7280
7340
7BB4
7B80
0B00
2A00
9900
DC00
B400
ENDCHAR
STARTCHAR uni1EF8
ENCODING 7928
SWIDTH 851 0
DWIDTH 9 0
BBX 11 15 0 -3
BITMAP
00B580
00DB00
000000
2F01C0
A741C0
8742C0
0703C0
0B0780
0E0B80
0E1B40
07E7B4
00AB40
024A00
071D00
03F800
ENDCHAR
STARTCHAR uni1EF9
ENCODING 7929
SWIDTH 479 0
DWIDTH 5 0
BBX 7 13 0 -5
BITMAP
1D60
26D0
0000
3580
7280
7340
7BB4
7B80
0B00
2A00
9900
DC00
B400
ENDCHAR
STARTCHAR endash
ENCODING 8211
SWIDTH 484 0
DWIDTH 5 0
BBX 5 2 0 2
BITMAP
7F80
0500
ENDCHAR
STARTCHAR emdash
ENCODING 8212
SWIDTH 620 0
DWIDTH 7 0
BBX 7 2 0 2
BITMAP
7FF4
0540
ENDCHAR
STARTCHAR quoteleft
ENCODING 8216
SWIDTH 237 0
DWIDTH 3 0
BBX 2 4 1 6
BITMAP
30
70
B0
50
ENDCHAR
STARTCHAR quoteright
ENCODING 8217
SWIDTH 236 0
DWIDTH 3 0
BBX 2 4 1 6
BITMAP
70
B0
A0
40
ENDCHAR
STARTCHAR quotesinglbase
ENCODING 8218
SWIDTH 257 0
DWIDTH 3 0
BBX 2 4 0 -2
BITMAP
10
B0
A0
90
ENDCHAR
STARTCHAR quotedblleft
ENCODING 8220
SWIDTH 457 0
DWIDTH 5 0
BBX 5 4 1 6
BITMAP
3240
7340
B740
5100
ENDCHAR
STARTCHAR quotedblright
ENCODING 8221
SWIDTH 456 0
DWIDTH 5 0
BBX 5 4 1 6
BITMAP
7280
B340
A700
4100
ENDCHAR
STARTCHAR quotedblbase
ENCODING 8222
SWIDTH 477 0
DWIDTH 5 0
BBX 5 4 0 -2
BITMAP
1100
B780
A740
9600
ENDCHAR
STARTCHAR dagger
ENCODING 8224
SWIDTH 588 0
DWIDTH 6 0
BBX 6 8 1 2
BITMAP
0600
0A00
7FD0
1D00
0D00
0C00
1C00
0400
ENDCHAR
STARTCHAR daggerdbl
ENCODING 8225
SWIDTH 588 0
DWIDTH 6 0
BBX 6 8 1 2
BITMAP
0600
0A00
7FD0
1D00
BFC0
1D00
1C00
0400
ENDCHAR
STARTCHAR bullet
ENCODING 8226
SWIDTH 512 0
DWIDTH 6 0
BBX 4 3 1 1
BITMAP
7D
BD
7C
ENDCHAR
STARTCHAR ellipsis
ENCODING 8230
SWIDTH 777 0
DWIDTH 9 0
BBX 8 2 0 0
BITMAP
76CA
76CA
ENDCHAR
STARTCHAR perthousand
ENCODING 8240
SWIDTH 1277 0
DWIDTH 14 0
BBX 14 8 0 0
BITMAP
2E060000
771D0000
77F80000
2E700000
0097D7D0
01CDA960
034DAD60
060B87D0
ENDCHAR
STARTCHAR guilsinglleft
ENCODING 8249
SWIDTH 350 0
DWIDTH 4 0
BBX 4 4 0 0
BITMAP
1D
74
74
1C
ENDCHAR
STARTCHAR guilsinglright
ENCODING 8250
SWIDTH 350 0
DWIDTH 4 0
BBX 4 4 0 0
BITMAP
74
2D
1D
64
ENDCHAR
STARTCHAR fraction
ENCODING 8260
SWIDTH 200 0
DWIDTH 2 0
BBX 5 7 -1 1
BITMAP
0280
0740
0A00
1C00
3400
A000
9000
ENDCHAR
STARTCHAR uni2074
ENCODING 8308
SWIDTH 450 0
DWIDTH 5 0
BBX 4 5 1 4
BITMAP
24
76
9A
FF
0D
ENDCHAR
STARTCHAR colonmonetary
ENCODING 8353
SWIDTH 517 0
DWIDTH 6 0
BBX 6 8 0 -1
BITMAP
05A0
1FE0
36A0
7980
7A00
7A90
2F80
9400
ENDCHAR
STARTCHAR franc
ENCODING 8355
SWIDTH 750 0
DWIDTH 8 0
BBX 8 6 0 0
BITMAP
3FF8
3409
3FAE
71EA
72D0
6180
ENDCHAR
STARTCHAR lira
ENCODING 8356
SWIDTH 525 0
DWIDTH 6 0
BBX 6 6 0 0
BITMAP
0BD0
29A0
7F00
BF00
7940
BFD0
ENDCHAR
STARTCHAR uni20A6
ENCODING 8358
SWIDTH 672 0
DWIDTH 7 0
BBX 7 7 0 0
BITMAP
0414
2D28
2F28
BFFC
BFFC
75B4
3070
ENDCHAR
STARTCHAR peseta
ENCODING 8359
SWIDTH 1085 0
DWIDTH 12 0
BBX 12 7 0 0
BITMAP
6E4900
7A8D00
35FF9C
72DD28
7B5C7D
741DDA
600B6D
ENDCHAR
STARTCHAR uni20A9
ENCODING 8361
SWIDTH 775 0
DWIDTH 9 0
BBX 9 6 0 0
BITMAP
BFFF80
29D700
BFFF80
2ADD00
2AA800
1DB400
ENDCHAR
STARTCHAR dong
ENCODING 8363
SWIDTH 463 0
DWIDTH 5 0
BBX 6 10 0 -2
BITMAP
00D0
3FE0
05C0
1FC0
7A80
B340
A740
7B40
FF80
1500
ENDCHAR
STARTCHAR Euro
ENCODING 8364
SWIDTH 552 0
DWIDTH 6 0
BBX 6 6 0 0
BITMAP
0BD0
2D70
BF10
BF00
3960
1B90
ENDCHAR
STARTCHAR uni20AD
ENCODING 8365
SWIDTH 590 0
DWIDTH 6 0
BBX 7 7 0 0
BITMAP
0410
2870
29D0
BFF0
3780
71D0
70B4
ENDCHAR
STARTCHAR uni20AE
ENCODING 8366
SWIDTH 513 0
DWIDTH 6 0
BBX 5 6 1 0
BITMAP
FF80
6900
6900
7900
7400
3000
ENDCHAR
STARTCHAR uni20B1
ENCODING 8369
SWIDTH 557 0
DWIDTH 6 0
BBX 6 7 0 0
BITMAP
1500
3EC0
BFF0
FFF0
3B80
3900
3000
ENDCHAR
STARTCHAR uni20B2
ENCODING 8370
SWIDTH 599 0
DWIDTH 7 0
BBX 7 10 0 -2
BITMAP
0100
0200
1BD0
3AA0
7210
76B4
7AB4
1FB0
0920
0400
ENDCHAR
STARTCHAR uni20B4
ENCODING 8372
SWIDTH 570 0
DWIDTH 6 0
BBX 6 6 0 0
BITMAP
1F80
25D0
7FF0
BFF0
3990
2F80
ENDCHAR
STARTCHAR uni20B5
ENCODING 8373
SWIDTH 517 0
DWIDTH 6 0
BBX 6 10 0 -2
BITMAP
0200
0740
1FD0
36A0
7200
7600
7A90
1F80
0900
0400
ENDCHAR
STARTCHAR uni20B8
ENCODING 8376
SWIDTH 522 0
DWIDTH 6 0
BBX 6 6 0 0
BITMAP
3FE0
7FD0
1A40
0900
0D00
0C00
ENDCHAR
STARTCHAR uni20B9
ENCODING 8377
SWIDTH 511 0
DWIDTH 6 0
BBX 6 7 0 0
BITMAP
7FE0
0B00
7FE0
0B00
BC00
0E00
07D0
ENDCHAR
STARTCHAR uni20BA
ENCODING 8378
SWIDTH 452 0
DWIDTH 5 0
BBX 5 7 0 0
BITMAP
1400
2900
2D00
7A00
7400
7580
3E00
ENDCHAR
STARTCHAR uni20BC
ENCODING 8380
SWIDTH 673 0
DWIDTH 7 0
BBX 7 8 0 0
BITMAP
0040
0080
07E0
1EB4
3968
7268
B22C
A228
ENDCHAR
STARTCHAR uni20BD
ENCODING 8381
SWIDTH 505 0
DWIDTH 6 0
BBX 6 7 0 0
BITMAP
2F80
29D0
28D0
3AC0
BE40
BE00
7400
ENDCHAR
STARTCHAR uni2116
ENCODING 8470
SWIDTH 1198 0
DWIDTH 13 0
BBX 12 9 1 0
BITMAP
35B82D
7B6DA7
7D1DA7
782C7D
B42C00
B039FD
E03810
E07400
D07400
ENDCHAR
STARTCHAR trademark
ENCODING 8482
SWIDTH 1150 0
DWIDTH 13 0
BBX 11 5 1 4
BITMAP
BF6B7C
28768C
24A25C
349318
104104
ENDCHAR
STARTCHAR partialdiff
ENCODING 8706
SWIDTH 451 0
DWIDTH 5 0
BBX 5 9 0 0
BITMAP
2400
1E00
0340
0280
2FC0
76C0
A280
B340
3E00
ENDCHAR
STARTCHAR product
ENCODING 8719
SWIDTH 700 0
DWIDTH 8 0
BBX 8 9 0 0
BITMAP
0FFD
1D5D
1C0D
281C
281C
3828
3428
3438
7034
ENDCHAR
STARTCHAR summation
ENCODING 8721
SWIDTH 700 0
DWIDTH 8 0
BBX 8 10 0 -1
BITMAP
1FFD
0F54
0380
01E0
00B0
01D0
0740
2D00
7FF4
1550
ENDCHAR
STARTCHAR minus
ENCODING 8722
SWIDTH 700 0
DWIDTH 8 0
BBX 6 2 1 2
BITMAP
FFE0
1540
ENDCHAR
STARTCHAR uni2215
ENCODING 8725
SWIDTH 700 0
DWIDTH 8 0
BBX 6 11 1 0
BITMAP
0010
0070
00E0
01C0
0380
0700
0E00
1C00
3400
B000
9000
ENDCHAR
STARTCHAR uni2219
ENCODING 8729
SWIDTH 700 0
DWIDTH 8 0
BBX 2 2 3 2
BITMAP
50
E0
ENDCHAR
STARTCHAR radical
ENCODING 8730
SWIDTH 700 0
DWIDTH 8 0
BBX 8 10 0 0
BITMAP
0001
0007
000A
000C
0028
7834
0D60
0AD0
07C0
0340
ENDCHAR
STARTCHAR infinity
ENCODING 8734
SWIDTH 700 0
DWIDTH 8 0
BBX 8 4 0 1
BITMAP
3EB8
A38D
A38D
7EF8
ENDCHAR
STARTCHAR integral
ENCODING 8747
SWIDTH 700 0
DWIDTH 8 0
BBX 8 13 0 -3
BITMAP
007D
00E4
01D0
01C0
01C0
02C0
0280
0380
0340
0340
0740
0B00
7D00
ENDCHAR
STARTCHAR approxequal
ENCODING 8776
SWIDTH 700 0
DWIDTH 8 0
BBX 7 6 0 0
BITMAP
0504
2F9C
34B4
0404
3F68
61B0
ENDCHAR
STARTCHAR notequal
ENCODING 8800
SWIDTH 700 0
DWIDTH 8 0
BBX 6 7 1 0
BITMAP
0140
BFF0
1A40
0D00
FFE0
3540
2000
ENDCHAR
STARTCHAR lessequal
ENCODING 8804
SWIDTH 700 0
DWIDTH 8 0
BBX 7 8 0 -1
BITMAP
0004
01BC
2E90
2E90
01B8
0000
7FF8
1550
ENDCHAR
STARTCHAR greaterequal
ENCODING 8805
SWIDTH 700 0
DWIDTH 8 0
BBX 7 7 0 -1
BITMAP
2E40
01B8
06B8
3E40
1000
7FF8
1550
ENDCHAR
STARTCHAR lozenge
ENCODING 9674
SWIDTH 700 0
DWIDTH 8 0
BBX 6 11 1 0
BITMAP
0100
0780
0AC0
1CD0
34A0
7060
70A0
31C0
2740
1E00
0D00
ENDCHAR
STARTCHAR fi
ENCODING 64257
SWIDTH 633 0
DWIDTH 7 0
BBX 9 13 0 -3
BITMAP
02C000
0A9000
0D9000
1D9C00
2F4000
BFF400
397400
377000
377740
372D00
370000
3A0000
2D0000
ENDCHAR
STARTCHAR fl
ENCODING 64258
SWIDTH 688 0
DWIDTH 8 0
BBX 9 13 0 -3
BITMAP
038740
0ADE80
1CE980
29B640
3A7700
3D7A00
747C00
7BF040
797580
792E00
750000
790000
3C0000
ENDCHAR
STARTCHAR .notdef
ENCODING -1
SWIDTH 265 0
DWIDTH 3 0
BBX 1 1 0 0
BITMAP
00
ENDCHAR
STARTCHAR Iacute_J.loclNLD
ENCODING -1
SWIDTH 776 0
DWIDTH 9 0
BBX 10 13 1 0
BITMAP
014040
0782D0
190A00
000000
741C00
741C00
B02C00
B03C00
B5B800
7F7800
043400
95B000
7F8000
ENDCHAR
STARTCHAR A.ss01
ENCODING -1
SWIDTH 780 0
DWIDTH 9 0
BBX 9 9 0 0
BITMAP
01BF80
079500
1E0700
380A00
740E00
741D00
742D00
39BD00
1F9C00
ENDCHAR
STARTCHAR Aacute.ss01
ENCODING -1
SWIDTH 780 0
DWIDTH 9 0
BBX 10 13 0 0
BITMAP
000040
0002D0
000A00
000000
01BF80
079500
1E0700
380A00
740E00
741D00
742D00
39BD00
1F9C00
ENDCHAR
STARTCHAR Abreve.ss01
ENCODING -1
SWIDTH 780 0
DWIDTH 9 0
BBX 9 12 0 0
BITMAP
006180
003F40
000000
01BF80
079500
1E0700
380A00
740E00
741D00
742D00
39BD00
1F9C00
ENDCHAR
STARTCHAR uni1EAE.ss01
ENCODING -1
SWIDTH 780 0
DWIDTH 9 0
BBX 9 13 0 0
BITMAP
000240
006580
003F80
000000
01BF80
079500
1E0700
380A00
740E00
741D00
742D00
39BD00
1F9C00
ENDCHAR
STARTCHAR uni1EB6.ss01
ENCODING -1
SWIDTH 780 0
DWIDTH 9 0
BBX 9 14 0 -2
BITMAP
006180
003F40
000000
01BF80
079500
1E0700
380A00
740E00
741D00
742D00
39BD00
1F9C00
000000
028000
ENDCHAR
STARTCHAR uni1EB0.ss01
ENCODING -1
SWIDTH 780 0
DWIDTH 9 0
BBX 9 13 0 0
BITMAP
002800
006580
003F40
000000
01BF80
079500
1E0700
380A00
740E00
741D00
742D00
39BD00
1F9C00
ENDCHAR
STARTCHAR uni1EB2.ss01
ENCODING -1
SWIDTH 780 0
DWIDTH 9 0
BBX 9 14 0 0
BITMAP
000E00
000E00
0065C0
003F40
000000
01BF80
079500
1E0700
380A00
740E00
741D00
742D00
39BD00
1F9C00
ENDCHAR
STARTCHAR uni1EB4.ss01
ENCODING -1
SWIDTH 780 0
DWIDTH 9 0
BBX 9 14 0 0
BITMAP
002980
001240
006180
002F40
000000
01BF80
079500
1E0700
380A00
740E00
741D00
742D00
39BD00
1F9C00
ENDCHAR
STARTCHAR Acircumflex.ss01
ENCODING -1
SWIDTH 780 0
DWIDTH 9 0
BBX 9 13 0 0
BITMAP
000E00
002B40
007240
000000
01BF80
079500
1E0700
380A00
740E00
741D00
742D00
39BD00
1F9C00
ENDCHAR
STARTCHAR uni1EA4.ss01
ENCODING -1
SWIDTH 780 0
DWIDTH 9 0
BBX 10 14 0 0
BITMAP
000010
0000A0
001A00
003640
000000
01BF80
079500
1E0700
380A00
740E00
741D00
742D00
39BD00
1F9C00
ENDCHAR
STARTCHAR uni1EAC.ss01
ENCODING -1
SWIDTH 780 0
DWIDTH 9 0
BBX 9 15 0 -2
BITMAP
000E00
002B40
007240
000000
01BF80
079500
1E0700
380A00
740E00
741D00
742D00
39BD00
1F9C00
000000
028000
ENDCHAR
STARTCHAR uni1EA6.ss01
ENCODING -1
SWIDTH 780 0
DWIDTH 9 0
BBX 9 14 0 0
BITMAP
004000
00A000
001A00
003640
000000
01BF80
079500
1E0700
380A00
740E00
741D00
742D00
39BD00
1F9C00
ENDCHAR
STARTCHAR uni1EA8.ss01
ENCODING -1
SWIDTH 780 0
DWIDTH 9 0
BBX 10 13 0 0
BITMAP
0000E0
000070
001EA0
003B40
01BF80
079500
1E0700
380A00
740E00
741D00
742D00
39BD00
1F9C00
ENDCHAR
STARTCHAR uni1EAA.ss01
ENCODING -1
SWIDTH 780 0
DWIDTH 9 0
BBX 9 14 0 0
BITMAP
002D80
001640
001F00
003640
000000
01BF80
079500
1E0700
380A00
740E00
741D00
742D00
39BD00
1F9C00
ENDCHAR
STARTCHAR uni0200.ss01
ENCODING -1
SWIDTH 780 0
DWIDTH 9 0
BBX 9 13 0 0
BITMAP
005500
00AA00
002200
000000
01BF80
079500
1E0700
380A00
740E00
741D00
742D00
39BD00
1F9C00
ENDCHAR
STARTCHAR Adieresis.ss01
ENCODING -1
SWIDTH 780 0
DWIDTH 9 0
BBX 9 11 0 0
BITMAP
003680
000000
01BF80
079500
1E0700
380A00
740E00
741D00
742D00
39BD00
1F9C00
ENDCHAR
STARTCHAR uni1EA0.ss01
ENCODING -1
SWIDTH 780 0
DWIDTH 9 0
BBX 9 11 0 -2
BITMAP
01BF80
079500
1E0700
380A00
740E00
741D00
742D00
39BD00
1F9C00
000000
028000
ENDCHAR
STARTCHAR Agrave.ss01
ENCODING -1
SWIDTH 780 0
DWIDTH 9 0
BBX 9 13 0 0
BITMAP
004000
01E000
002800
000000
01BF80
079500
1E0700
380A00
740E00
741D00
742D00
39BD00
1F9C00
ENDCHAR
STARTCHAR uni1EA2.ss01
ENCODING -1
SWIDTH 780 0
DWIDTH 9 0
BBX 9 13 0 0
BITMAP
001E00
000740
000F00
000000
01BF80
079500
1E0700
380A00
740E00
741D00
742D00
39BD00
1F9C00
ENDCHAR
STARTCHAR uni0202.ss01
ENCODING -1
SWIDTH 780 0
DWIDTH 9 0
BBX 9 12 0 0
BITMAP
002F40
0065C0
000000
01BF80
079500
1E0700
380A00
740E00
741D00
742D00
39BD00
1F9C00
ENDCHAR
STARTCHAR Amacron.ss01
ENCODING -1
SWIDTH 780 0
DWIDTH 9 0
BBX 9 11 0 0
BITMAP
003F40
000400
01BF80
079500
1E0700
380A00
740E00
741D00
742D00
39BD00
1F9C00
ENDCHAR
STARTCHAR Aogonek.ss01
ENCODING -1
SWIDTH 780 0
DWIDTH 9 0
BBX 9 12 0 -3
BITMAP
01BF80
079500
1E0700
380A00
740E00
741D00
742D00
39BD00
1FAC00
003400
007000
003E00
ENDCHAR
STARTCHAR Aring.ss01
ENCODING -1
SWIDTH 780 0
DWIDTH 9 0
BBX 9 13 0 0
BITMAP
001E00
002B40
001F00
000000
01BF80
079500
1E0700
380A00
740E00
741D00
742D00
39BD00
1F9C00
ENDCHAR
STARTCHAR Aringacute.ss01
ENCODING -1
SWIDTH 780 0
DWIDTH 9 0
BBX 11 14 0 0
BITMAP
000028
001E60
002B40
001F00
000000
01BF80
079500
1E0700
380A00
740E00
741D00
742D00
39BD00
1F9C00
ENDCHAR
STARTCHAR Atilde.ss01
ENCODING -1
SWIDTH 780 0
DWIDTH 9 0
BBX 9 12 0 0
BITMAP
0038C0
00A780
000000
01BF80
079500
1E0700
380A00
740E00
741D00
742D00
39BD00
1F9C00
ENDCHAR
STARTCHAR AE.ss01
ENCODING -1
SWIDTH 1057 0
DWIDTH 12 0
BBX 12 9 0 0
BITMAP
01B6FE
079754
1E0700
380B00
740FFC
741E50
742D00
39BB55
1F82FD
ENDCHAR
STARTCHAR AEacute.ss01
ENCODING -1
SWIDTH 1057 0
DWIDTH 12 0
BBX 12 13 0 0
BITMAP
000014
000074
000190
000000
01B6FE
079754
1E0700
380B00
740FFC
741E50
742D00
39BB55
1F82FD
ENDCHAR
STARTCHAR B.ss01
ENCODING -1
SWIDTH 826 0
DWIDTH 9 0
BBX 8 9 1 0
BITMAP
2FF8
255E
240B
741D
72F4
B07C
E02C
E5B8
BF90
ENDCHAR
STARTCHAR C.ss01
ENCODING -1
SWIDTH 704 0
DWIDTH 8 0
BBX 8 9 0 0
BITMAP
02F8
0F5E
2C0A
3805
7400
7400
3801
2D5A
0BE4
ENDCHAR
STARTCHAR Cacute.ss01
ENCODING -1
SWIDTH 704 0
DWIDTH 8 0
BBX 8 13 0 0
BITMAP
0001
000B
0028
0000
02F8
0F5E
2C0A
3805
7400
7400
3801
2D5A
0BE4
ENDCHAR
STARTCHAR Ccaron.ss01
ENCODING -1
SWIDTH 704 0
DWIDTH 8 0
BBX 8 13 0 0
BITMAP
0045
00DD
0074
0000
02F8
0F5E
2C0A
3805
7400
7400
3801
2D5A
0BE4
ENDCHAR
STARTCHAR Ccedilla.ss01
ENCODING -1
SWIDTH 704 0
DWIDTH 8 0
BBX 8 12 0 -3
BITMAP
02F8
0F5E
2C0A
3805
7400
7400
3800
2D1A
07E4
01D0
0090
0B80
ENDCHAR
STARTCHAR Ccircumflex.ss01
ENCODING -1
SWIDTH 704 0
DWIDTH 8 0
BBX 8 13 0 0
BITMAP
0074
00EC
018D
0000
02F8
0F5E
2C0A
3805
7400
7400
3801
2D5A
0BE4
ENDCHAR
STARTCHAR Cdotaccent.ss01
ENCODING -1
SWIDTH 704 0
DWIDTH 8 0
BBX 8 11 0 0
BITMAP
0074
0000
02F8
0F5E
2C0A
3805
7400
7400
3801
2D5A
0BE4
ENDCHAR
STARTCHAR D.ss01
ENCODING -1
SWIDTH 810 0
DWIDTH 9 0
BBX 8 9 1 0
BITMAP
2FE0
257C
241D
740E
700E
B01D
E02C
E5B4
FF80
ENDCHAR
STARTCHAR uni01C4.ss01
ENCODING -1
SWIDTH 1455 0
DWIDTH 16 0
BBX 15 13 1 0
BITMAP
00000114
00000374
000001D0
00000000
2FE07FFC
257C057C
241D00B4
740E01E0
700E0780
B01D0F00
E02C2D00
E5B4B900
FF80FFF8
ENDCHAR
STARTCHAR Eth.ss01
ENCODING -1
SWIDTH 821 0
DWIDTH 9 0
BBX 9 9 0 0
BITMAP
07F800
0B5F00
0A0380
0D0380
BFD380
2D4380
280B00
396D00
2FE000
ENDCHAR
STARTCHAR Dcaron.ss01
ENCODING -1
SWIDTH 810 0
DWIDTH 9 0
BBX 8 13 1 0
BITMAP
0510
0760
02C0
0000
2FE0
257C
241D
740E
700E
B01D
E02C
E5B4
FF80
ENDCHAR
STARTCHAR Dcroat.ss01
ENCODING -1
SWIDTH 821 0
DWIDTH 9 0
BBX 9 9 0 0
BITMAP
07F800
0B5F00
0A0380
0D0380
BFD380
2D4380
280B00
396D00
2FE000
ENDCHAR
STARTCHAR E.ss01
ENCODING -1
SWIDTH 720 0
DWIDTH 8 0
BBX 8 9 0 0
BITMAP
06F8
1E5E
2C0A
1D05
0BD0
3900
7401
795A
1FE4
ENDCHAR
STARTCHAR Eacute.ss01
ENCODING -1
SWIDTH 720 0
DWIDTH 8 0
BBX 8 13 0 0
BITMAP
0001
001E
0034
0000
06F8
1E5E
2C0A
1D05
0BD0
3900
7401
795A
1FE4
ENDCHAR
STARTCHAR Ebreve.ss01
ENCODING -1
SWIDTH 720 0
DWIDTH 8 0
BBX 8 12 0 0
BITMAP
0249
02FC
0000
06F8
1E5E
2C0A
1D05
0BD0
3900
7401
795A
1FE4
ENDCHAR
STARTCHAR Ecaron.ss01
ENCODING -1
SWIDTH 720 0
DWIDTH 8 0
BBX 8 13 0 0
BITMAP
0044
01DC
00B0
0000
06F8
1E5E
2C0A
1D05
0BD0
3900
7401
795A
1FE4
ENDCHAR
STARTCHAR Ecircumflex.ss01
ENCODING -1
SWIDTH 720 0
DWIDTH 8 0
BBX 8 13 0 0
BITMAP
0074
01E8
028C
0000
06F8
1E5E
2C0A
1D05
0BD0
3900
7401
795A
1FE4
ENDCHAR
STARTCHAR uni1EBE.ss01
ENCODING -1
SWIDTH 720 0
DWIDTH 8 0
BBX 9 14 0 0
BITMAP
000140
000640
00B400
029800
000000
06F800
1E5E00
2C0A00
1D0500
0BD000
390000
740100
795A00
1FE400
ENDCHAR
STARTCHAR uni1EC6.ss01
ENCODING -1
SWIDTH 720 0
DWIDTH 8 0
BBX 8 15 0 -2
BITMAP
0074
01E8
028C
0000
06F8
1E5E
2C0A
1D05
0BD0
3900
7401
795A
1FE4
0000
0740
ENDCHAR
STARTCHAR uni1EC0.ss01
ENCODING -1
SWIDTH 720 0
DWIDTH 8 0
BBX 8 14 0 0
BITMAP
0500
0600
00B4
0298
0000
06F8
1E5E
2C0A
1D05
0BD0
3900
7401
795A
1FE4
ENDCHAR
STARTCHAR uni1EC2.ss01
ENCODING -1
SWIDTH 720 0
DWIDTH 8 0
BBX 9 13 0 0
BITMAP
000740
000180
00BB40
01EC00
07F800
1E5E00
2C0A00
1D0500
0BD000
390000
740100
795A00
1FE400
ENDCHAR
STARTCHAR uni1EC4.ss01
ENCODING -1
SWIDTH 720 0
DWIDTH 8 0
BBX 8 14 0 0
BITMAP
01E5
0158
00B4
029C
0000
06F8
1E5E
2C0A
1D05
0BD0
3900
7401
795A
1FE4
ENDCHAR
STARTCHAR uni0204.ss01
ENCODING -1
SWIDTH 720 0
DWIDTH 8 0
BBX 8 13 0 0
BITMAP
0110
0374
0154
0000
06F8
1E5E
2C0A
1D05
0BD0
3900
7401
795A
1FE4
ENDCHAR
STARTCHAR Edieresis.ss01
ENCODING -1
SWIDTH 720 0
DWIDTH 8 0
BBX 8 11 0 0
BITMAP
029C
0000
06F8
1E5E
2C0A
1D05
0BD0
3900
7401
795A
1FE4
ENDCHAR
STARTCHAR Edotaccent.ss01
ENCODING -1
SWIDTH 720 0
DWIDTH 8 0
BBX 8 11 0 0
BITMAP
00B0
0000
06F8
1E5E
2C0A
1D05
0BD0
3900
7401
795A
1FE4
ENDCHAR
STARTCHAR uni1EB8.ss01
ENCODING -1
SWIDTH 720 0
DWIDTH 8 0
BBX 8 11 0 -2
BITMAP
06F8
1E5E
2C0A
1D05
0BD0
3900
7401
795A
1FE4
0000
0740
ENDCHAR
STARTCHAR Egrave.ss01
ENCODING -1
SWIDTH 720 0
DWIDTH 8 0
BBX 8 13 0 0
BITMAP
0500
0B40
0190
0000
06F8
1E5E
2C0A
1D05
0BD0
3900
7401
795A
1FE4
ENDCHAR
STARTCHAR uni1EBA.ss01
ENCODING -1
SWIDTH 720 0
DWIDTH 8 0
BBX 8 13 0 0
BITMAP
00B4
0028
0074
0000
06F8
1E5E
2C0A
1D05
0BD0
3900
7401
795A
1FE4
ENDCHAR
STARTCHAR uni0206.ss01
ENCODING -1
SWIDTH 720 0
DWIDTH 8 0
BBX 8 12 0 0
BITMAP
01F8
0359
0000
06F8
1E5E
2C0A
1D05
0BD0
3900
7401
795A
1FE4
ENDCHAR
STARTCHAR Emacron.ss01
ENCODING -1
SWIDTH 720 0
DWIDTH 8 0
BBX 8 11 0 0
BITMAP
02F8
0050
06F8
1E5E
2C0A
1D05
0BD0
3900
7401
795A
1FE4
ENDCHAR
STARTCHAR Eogonek.ss01
ENCODING -1
SWIDTH 720 0
DWIDTH 8 0
BBX 8 12 0 -3
BITMAP
06F8
1E5E
2C0A
1D05
0BD0
3900
7401
795A
1FF8
01C0
0280
01F4
ENDCHAR
STARTCHAR uni1EBC.ss01
ENCODING -1
SWIDTH 720 0
DWIDTH 8 0
BBX 8 12 0 0
BITMAP
02D6
036D
0000
06F8
1E5E
2C0A
1D05
0BD0
3900
7401
795A
1FE4
ENDCHAR
STARTCHAR F.ss01
ENCODING -1
SWIDTH 671 0
DWIDTH 7 0
BBX 8 9 0 0
BITMAP
3FFF
0B40
0B00
0A00
7FF8
1D50
1D00
1C00
1C00
ENDCHAR
STARTCHAR G.ss01
ENCODING -1
SWIDTH 811 0
DWIDTH 9 0
BBX 9 12 0 -3
BITMAP
02F900
0F5B00
2C0700
380500
740000
742F40
380740
2E5B00
06FF00
000B00
000A00
000400
ENDCHAR
STARTCHAR Gbreve.ss01
ENCODING -1
SWIDTH 811 0
DWIDTH 9 0
BBX 9 15 0 -3
BITMAP
018600
01FD00
000000
02F900
0F5B00
2C0700
380500
740000
742F40
380740
2E5B00
06FF00
000B00
000A00
000400
ENDCHAR
STARTCHAR Gcaron.ss01
ENCODING -1
SWIDTH 811 0
DWIDTH 9 0
BBX 9 16 0 -3
BITMAP
004100
009D00
007400
000000
02F900
0F5B00
2C0700
380500
740000
742F40
380740
2E5B00
06FF00
000B00
000A00
000400
ENDCHAR
STARTCHAR Gcircumflex.ss01
ENCODING -1
SWIDTH 811 0
DWIDTH 9 0
BBX 9 16 0 -3
BITMAP
003800
00AC00
01C900
000000
02F900
0F5B00
2C0700
380500
740000
742F40
380740
2E5B00
06FF00
000B00
000A00
000400
ENDCHAR
STARTCHAR uni0122.ss01
ENCODING -1
SWIDTH 811 0
DWIDTH 9 0
BBX 9 12 0 -3
BITMAP
02F900
0F5B00
2C0700
380500
740000
742F40
380740
2E5B00
06FF00
000B00
01CA00
018400
ENDCHAR
STARTCHAR Gdotaccent.ss01
ENCODING -1
SWIDTH 811 0
DWIDTH 9 0
BBX 9 14 0 -3
BITMAP
007400
000000
02F900
0F5B00
2C0700
380500
740000
742F40
380740
2E5B00
06FF00
000B00
000A00
000400
ENDCHAR
STARTCHAR H.ss01
ENCODING -1
SWIDTH 846 0
DWIDTH 9 0
BBX 9 9 0 0
BITMAP
0A0280
0E0380
0E0380
1D0740
7FFFC0
2D5B00
280B00
380E00
340D00
ENDCHAR
STARTCHAR Hbar.ss01
ENCODING -1
SWIDTH 856 0
DWIDTH 9 0
BBX 10 9 0 0
BITMAP
0A0280
3FFFE0
1E0780
1D0340
7FFFD0
2D5B40
2C0B00
380A00
280A00
ENDCHAR
STARTCHAR Hcircumflex.ss01
ENCODING -1
SWIDTH 846 0
DWIDTH 9 0
BBX 9 13 0 0
BITMAP
002800
00AD00
00C900
000000
0A0280
0E0380
0E0380
1D0740
7FFFC0
2D5B00
280B00
380E00
340D00
ENDCHAR
STARTCHAR I.ss01
ENCODING -1
SWIDTH 357 0
DWIDTH 4 0
BBX 3 9 1 0
BITMAP
34
34
74
70
B0
A0
E0
E0
D0
ENDCHAR
STARTCHAR Iacute.ss01
ENCODING -1
SWIDTH 357 0
DWIDTH 4 0
BBX 5 13 1 0
BITMAP
0140
0780
1900
0000
3400
3400
7400
7000
B000
A000
E000
E000
D000
ENDCHAR
STARTCHAR Iacute_J.loclNLD.ss01
ENCODING -1
SWIDTH 776 0
DWIDTH 9 0
BBX 10 13 1 0
BITMAP
014040
0782D0
190A00
000000
741C00
741C00
B02C00
B03C00
B5B800
7F7800
043400
95B000
7F8000
ENDCHAR
STARTCHAR Ibreve.ss01
ENCODING -1
SWIDTH 357 0
DWIDTH 4 0
BBX 5 12 1 0
BITMAP
9240
BE00
0000
3400
3400
7400
7000
B000
A000
E000
E000
D000
ENDCHAR
STARTCHAR Icircumflex.ss01
ENCODING -1
SWIDTH 357 0
DWIDTH 4 0
BBX 4 13 1 0
BITMAP
2C
7A
96
00
34
34
74
70
B0
A0
E0
E0
D0
ENDCHAR
STARTCHAR uni0208.ss01
ENCODING -1
SWIDTH 357 0
DWIDTH 4 0
BBX 5 13 0 0
BITMAP
1100
7700
2640
0000
0D00
0D00
1D00
1C00
2C00
2800
3800
3800
3400
ENDCHAR
STARTCHAR Idieresis.ss01
ENCODING -1
SWIDTH 357 0
DWIDTH 4 0
BBX 4 11 1 0
BITMAP
A7
00
34
34
74
70
B0
A0
E0
E0
D0
ENDCHAR
STARTCHAR Idotaccent.ss01
ENCODING -1
SWIDTH 357 0
DWIDTH 4 0
BBX 3 11 1 0
BITMAP
2C
00
34
34
74
70
B0
A0
E0
E0
D0
ENDCHAR
STARTCHAR uni1ECA.ss01
ENCODING -1
SWIDTH 357 0
DWIDTH 4 0
BBX 4 11 0 -2
BITMAP
0D
0D
1D
1C
2C
28
38
38
34
00
74
ENDCHAR
STARTCHAR Igrave.ss01
ENCODING -1
SWIDTH 357 0
DWIDTH 4 0
BBX 4 13 0 0
BITMAP
40
B4
1C
00
0D
0D
1D
1C
2C
28
38
38
34
ENDCHAR
STARTCHAR uni1EC8.ss01
ENCODING -1
SWIDTH 357 0
DWIDTH 4 0
BBX 4 13 1 0
BITMAP
3D
0A
2D
00
34
34
74
70
B0
A0
E0
E0
D0
ENDCHAR
STARTCHAR uni020A.ss01
ENCODING -1
SWIDTH 357 0
DWIDTH 4 0
BBX 5 12 1 0
BITMAP
7E00
D740
0000
3400
3400
7400
7000
B000
A000
E000
E000
D000
ENDCHAR
STARTCHAR Imacron.ss01
ENCODING -1
SWIDTH 357 0
DWIDTH 4 0
BBX 4 11 1 0
BITMAP
BE
14
34
34
74
70
B0
A0
E0
E0
D0
ENDCHAR
STARTCHAR Iogonek.ss01
ENCODING -1
SWIDTH 357 0
DWIDTH 4 0
BBX 4 12 0 -3
BITMAP
09
0D
1D
1D
2C
2C
38
38
34
70
A0
7C
ENDCHAR
STARTCHAR Itilde.ss01
ENCODING -1
SWIDTH 357 0
DWIDTH 4 0
BBX 6 12 0 0
BITMAP
2D90
6680
0000
0D00
0D00
1D00
1C00
2C00
2800
3800
3800
3400
ENDCHAR
STARTCHAR J.ss01
ENCODING -1
SWIDTH 716 0
DWIDTH 8 0
BBX 7 9 1 0
BITMAP
2FF8
E574
D074
90B0
00B0
00A0
40D0
E6C0
7E40
ENDCHAR
STARTCHAR Jcircumflex.ss01
ENCODING -1
SWIDTH 716 0
DWIDTH 8 0
BBX 7 13 1 0
BITMAP
02D0
07A0
0960
0000
2FF8
E574
D074
90B0
00B0
00A0
40D0
E6C0
7E40
ENDCHAR
STARTCHAR K.ss01
ENCODING -1
SWIDTH 779 0
DWIDTH 9 0
BBX 8 9 1 0
BITMAP
280D
382C
7474
75E0
FF40
B780
E2D0
E0E4
D07D
ENDCHAR
STARTCHAR uni0136.ss01
ENCODING -1
SWIDTH 779 0
DWIDTH 9 0
BBX 8 12 1 -3
BITMAP
280D
382C
7474
75E0
FF40
B780
E2D0
E0E4
D07D
0000
0900
0900
ENDCHAR
STARTCHAR L.ss01
ENCODING -1
SWIDTH 625 0
DWIDTH 7 0
BBX 6 9 1 0
BITMAP
3400
3400
7400
7000
B000
A000
E000
E550
FFE0
ENDCHAR
STARTCHAR uni01C7.ss01
ENCODING -1
SWIDTH 1291 0
DWIDTH 14 0
BBX 13 9 1 0
BITMAP
3401BF80
340B5780
740A0380
70060740
B0000740
A0000700
E0040A00
E55A5D00
FFE2F400
ENDCHAR
STARTCHAR Lacute.ss01
ENCODING -1
SWIDTH 625 0
DWIDTH 7 0
BBX 6 13 1 0
BITMAP
0140
0780
1900
0000
3400
3400
7400
7000
B000
A000
E000
E550
FFE0
ENDCHAR
STARTCHAR Lcaron.ss01
ENCODING -1
SWIDTH 625 0
DWIDTH 7 0
BBX 6 10 1 0
BITMAP
0050
34A0
3490
7400
7000
B000
A000
E000
E550
FFE0
ENDCHAR
STARTCHAR uni013B.ss01
ENCODING -1
SWIDTH 625 0
DWIDTH 7 0
BBX 6 12 1 -3
BITMAP
3400
3400
7400
7000
B000
A000
E000
E550
FFE0
0000
0D00
0C00
ENDCHAR
STARTCHAR Ldot.ss01
ENCODING -1
SWIDTH 625 0
DWIDTH 7 0
BBX 6 9 1 0
BITMAP
3400
3400
7400
7000
B1D0
A000
E000
E550
FFE0
ENDCHAR
STARTCHAR uni01C8.ss01
ENCODING -1
SWIDTH 854 0
DWIDTH 9 0
BBX 9 14 1 -5
BITMAP
340000
340000
740380
700000
B00300
A00700
E00700
E55A00
FFEA00
001D00
006D00
019C00
02A400
01E000
ENDCHAR
STARTCHAR Lslash.ss01
ENCODING -1
SWIDTH 625 0
DWIDTH 7 0
BBX 7 9 0 0
BITMAP
0D00
0D00
1ED0
1F40
7C00
7800
3800
3954
3FF8
ENDCHAR
STARTCHAR M.ss01
ENCODING -1
SWIDTH 1139 0
DWIDTH 13 0
BBX 11 9 1 0
BITMAP
35F1B8
7A7B6C
7C3D2C
783C28
B03838
B07434
E0B074
E0B070
D0A070
ENDCHAR
STARTCHAR N.ss01
ENCODING -1
SWIDTH 799 0
DWIDTH 9 0
BBX 8 9 1 0
BITMAP
35B8
7B6D
7D1D
782C
B42C
B038
E038
E074
D074
ENDCHAR
STARTCHAR uni01CA.ss01
ENCODING -1
SWIDTH 1515 0
DWIDTH 17 0
BBX 16 9 1 0
BITMAP
35B81BF9
7B6D396D
7D1D702C
782C202C
B42C0038
B0380034
E0381074
E07475A0
D0741F80
ENDCHAR
STARTCHAR Nacute.ss01
ENCODING -1
SWIDTH 799 0
DWIDTH 9 0
BBX 8 13 1 0
BITMAP
0004
002C
00A0
0000
35B8
7B6D
7D1D
782C
B42C
B038
E038
E074
D074
ENDCHAR
STARTCHAR Ncaron.ss01
ENCODING -1
SWIDTH 799 0
DWIDTH 9 0
BBX 8 13 1 0
BITMAP
0114
0374
01D0
0000
35B8
7B6D
7D1D
782C
B42C
B038
E038
E074
D074
ENDCHAR
STARTCHAR uni0145.ss01
ENCODING -1
SWIDTH 799 0
DWIDTH 9 0
BBX 8 12 1 -3
BITMAP
35B8
7B6D
7D1D
782C
B42C
B038
E038
E074
D074
0000
0900
0900
ENDCHAR
STARTCHAR Eng.ss01
ENCODING -1
SWIDTH 792 0
DWIDTH 9 0
BBX 7 13 1 -4
BITMAP
35B8
7B6C
7D1C
782C
B438
B038
E074
E070
D0A0
00E0
01D0
E280
7E00
ENDCHAR
STARTCHAR uni01CB.ss01
ENCODING -1
SWIDTH 1008 0
DWIDTH 11 0
BBX 11 14 1 -5
BITMAP
35B800
7B6D00
7D1D74
782C00
B42C60
B038A0
E038A0
E074D0
D074D0
0002C0
000AC0
002A80
003700
002D00
ENDCHAR
STARTCHAR Ntilde.ss01
ENCODING -1
SWIDTH 799 0
DWIDTH 9 0
BBX 8 12 1 0
BITMAP
0798
09B4
0000
35B8
7B6D
7D1D
782C
B42C
B038
E038
E074
D074
ENDCHAR
STARTCHAR OE.ss01
ENCODING -1
SWIDTH 1166 0
DWIDTH 13 0
BBX 13 9 0 0
BITMAP
02F97FC0
0E5BE500
2C03D000
3803C000
7403FF40
74039400
380B8000
2D6ED540
0BE4BF40
ENDCHAR
STARTCHAR P.ss01
ENCODING -1
SWIDTH 662 0
DWIDTH 7 0
BBX 8 9 0 0
BITMAP
1BE4
1E6C
0E1D
0D1D
1D78
7FE0
2C00
2800
2800
ENDCHAR
STARTCHAR Thorn.ss01
ENCODING -1
SWIDTH 658 0
DWIDTH 7 0
BBX 7 9 0 0
BITMAP
0A00
1FE0
2E78
1D2C
1D2C
1C78
7FD0
2800
2800
ENDCHAR
STARTCHAR Q.ss01
ENCODING -1
SWIDTH 816 0
DWIDTH 9 0
BBX 9 12 0 -3
BITMAP
02F900
0E5B40
2C0380
380380
740380
740380
380B40
2D1E00
0BF400
01E000
007800
002C00
ENDCHAR
STARTCHAR R.ss01
ENCODING -1
SWIDTH 744 0
DWIDTH 8 0
BBX 7 9 1 0
BITMAP
6F90
B9B0
3870
75E0
FF40
BB40
A2C0
E1E0
90BC
ENDCHAR
STARTCHAR Racute.ss01
ENCODING -1
SWIDTH 744 0
DWIDTH 8 0
BBX 7 13 1 0
BITMAP
0010
00B4
0290
0000
6F90
B9B0
3870
75E0
FF40
BB40
A2C0
E1E0
90BC
ENDCHAR
STARTCHAR Rcaron.ss01
ENCODING -1
SWIDTH 744 0
DWIDTH 8 0
BBX 7 13 1 0
BITMAP
0410
0A90
0380
0000
6F90
B9B0
3870
75E0
FF40
BB40
A2C0
E1E0
90BC
ENDCHAR
STARTCHAR uni0156.ss01
ENCODING -1
SWIDTH 744 0
DWIDTH 8 0
BBX 7 12 1 -3
BITMAP
6F90
B9B0
3870
75E0
FF40
BB40
A2C0
E1E0
90BC
0000
0900
0800
ENDCHAR
STARTCHAR uni0210.ss01
ENCODING -1
SWIDTH 744 0
DWIDTH 8 0
BBX 7 13 1 0
BITMAP
1540
1DC0
0880
0000
6F90
B9B0
3870
75E0
FF40
BB40
A2C0
E1E0
90BC
ENDCHAR
STARTCHAR uni0212.ss01
ENCODING -1
SWIDTH 744 0
DWIDTH 8 0
BBX 7 12 1 0
BITMAP
0BD0
1D70
0000
6F90
B9B0
3870
75E0
FF40
BB40
A2C0
E1E0
90BC
ENDCHAR
STARTCHAR T.ss01
ENCODING -1
SWIDTH 631 0
DWIDTH 7 0
BBX 7 9 1 0
BITMAP
FFFC
5B50
0B00
0E00
0D00
1D00
1D00
2C00
1800
ENDCHAR
STARTCHAR Tbar.ss01
ENCODING -1
SWIDTH 631 0
DWIDTH 7 0
BBX 7 9 1 0
BITMAP
FFFC
5B50
0B00
0E00
BFD0
1D00
1D00
2C00
1800
ENDCHAR
STARTCHAR Tcaron.ss01
ENCODING -1
SWIDTH 631 0
DWIDTH 7 0
BBX 7 13 1 0
BITMAP
0410
09D0
0780
0000
FFFC
5B50
0B00
0E00
0D00
1D00
1D00
2C00
1800
ENDCHAR
STARTCHAR uni0162.ss01
ENCODING -1
SWIDTH 631 0
DWIDTH 7 0
BBX 7 12 1 -3
BITMAP
FFFC
5B50
0B00
0E00
0D00
1D00
1C00
2C00
3C00
1D00
0900
B800
ENDCHAR
STARTCHAR uni021A.ss01
ENCODING -1
SWIDTH 631 0
DWIDTH 7 0
BBX 7 12 1 -3
BITMAP
FFFC
5B50
0B00
0E00
0D00
1D00
1D00
2C00
1800
0000
2800
2400
ENDCHAR
STARTCHAR U.ss01
ENCODING -1
SWIDTH 800 0
DWIDTH 9 0
BBX 8 9 1 0
BITMAP
340D
341D
741D
702C
B03C
A078
E0F8
F7B4
7D34
ENDCHAR
STARTCHAR Uacute.ss01
ENCODING -1
SWIDTH 800 0
DWIDTH 9 0
BBX 8 13 1 0
BITMAP
0004
002C
00A0
0000
340D
341D
741D
702C
B03C
A078
E0F8
F7B4
7D34
ENDCHAR
STARTCHAR Ubreve.ss01
ENCODING -1
SWIDTH 800 0
DWIDTH 9 0
BBX 8 12 1 0
BITMAP
0518
07F4
0000
340D
341D
741D
702C
B03C
A078
E0F8
F7B4
7D34
ENDCHAR
STARTCHAR Ucircumflex.ss01
ENCODING -1
SWIDTH 800 0
DWIDTH 9 0
BBX 8 13 1 0
BITMAP
01E0
03B0
0634
0000
340D
341D
741D
702C
B03C
A078
E0F8
F7B4
7D34
ENDCHAR
STARTCHAR uni0214.ss01
ENCODING -1
SWIDTH 800 0
DWIDTH 9 0
BBX 8 13 1 0
BITMAP
0440
0AA0
0660
0000
340D
341D
741D
702C
B03C
A078
E0F8
F7B4
7D34
ENDCHAR
STARTCHAR Udieresis.ss01
ENCODING -1
SWIDTH 800 0
DWIDTH 9 0
BBX 8 11 1 0
BITMAP
0734
0000
340D
341D
741D
702C
B03C
A078
E0F8
F7B4
7D34
ENDCHAR
STARTCHAR uni1EE4.ss01
ENCODING -1
SWIDTH 800 0
DWIDTH 9 0
BBX 8 11 1 -2
BITMAP
340D
341D
741D
702C
B03C
A078
E0F8
F7B4
7D34
0000
0B00
ENDCHAR
STARTCHAR Ugrave.ss01
ENCODING -1
SWIDTH 800 0
DWIDTH 9 0
BBX 8 13 1 0
BITMAP
1400
1E00
0640
0000
340D
341D
741D
702C
B03C
A078
E0F8
F7B4
7D34
ENDCHAR
STARTCHAR uni1EE6.ss01
ENCODING -1
SWIDTH 800 0
DWIDTH 9 0
BBX 8 13 1 0
BITMAP
01E0
0070
00E0
0000
340D
341D
741D
702C
B03C
A078
E0F8
F7B4
7D34
ENDCHAR
STARTCHAR Uhorn.ss01
ENCODING -1
SWIDTH 800 0
DWIDTH 9 0
BBX 9 11 1 0
BITMAP
000040
0001C0
340F80
341D00
741D00
702C00
B03C00
A07800
E0F800
F7B400
7D3400
ENDCHAR
STARTCHAR uni1EE8.ss01
ENCODING -1
SWIDTH 800 0
DWIDTH 9 0
BBX 9 13 1 0
BITMAP
000400
002C00
00A040
0001C0
340F80
341D00
741D00
702C00
B03C00
A07800
E0F800
F7B400
7D3400
ENDCHAR
STARTCHAR uni1EF0.ss01
ENCODING -1
SWIDTH 800 0
DWIDTH 9 0
BBX 9 13 1 -2
BITMAP
000040
0001C0
340F80
341D00
741D00
702C00
B03C00
A07800
E0F800
F7B400
7D3400
000000
0B0000
ENDCHAR
STARTCHAR uni1EEA.ss01
ENCODING -1
SWIDTH 800 0
DWIDTH 9 0
BBX 9 13 1 0
BITMAP
140000
1E0000
064040
0001C0
340F80
341D00
741D00
702C00
B03C00
A07800
E0F800
F7B400
7D3400
ENDCHAR
STARTCHAR uni1EEC.ss01
ENCODING -1
SWIDTH 800 0
DWIDTH 9 0
BBX 9 13 1 0
BITMAP
01E000
007000
00E040
0001C0
340F80
341D00
741D00
702C00
B03C00
A07800
E0F800
F7B400
7D3400
ENDCHAR
STARTCHAR uni1EEE.ss01
ENCODING -1
SWIDTH 800 0
DWIDTH 9 0
BBX 9 12 1 0
BITMAP
079800
09B440
0001C0
340F80
341D00
741D00
702C00
B03C00
A07800
E0F800
F7B400
7D3400
ENDCHAR
STARTCHAR Uhungarumlaut.ss01
ENCODING -1
SWIDTH 800 0
DWIDTH 9 0
BBX 8 13 1 0
BITMAP
0154
02A8
0220
0000
340D
341D
741D
702C
B03C
A078
E0F8
F7B4
7D34
ENDCHAR
STARTCHAR uni0216.ss01
ENCODING -1
SWIDTH 800 0
DWIDTH 9 0
BBX 8 12 1 0
BITMAP
02E4
0A68
0000
340D
341D
741D
702C
B03C
A078
E0F8
F7B4
7D34
ENDCHAR
STARTCHAR Umacron.ss01
ENCODING -1
SWIDTH 800 0
DWIDTH 9 0
BBX 8 11 1 0
BITMAP
07F0
0140
340D
341D
741D
702C
B03C
A078
E0F8
F7B4
7D34
ENDCHAR
STARTCHAR Uogonek.ss01
ENCODING -1
SWIDTH 800 0
DWIDTH 9 0
BBX 8 12 1 -3
BITMAP
340D
341D
741D
702C
B03C
A078
E0F8
F7B8
7D34
0060
0090
007C
ENDCHAR
STARTCHAR Uring.ss01
ENCODING -1
SWIDTH 800 0
DWIDTH 9 0
BBX 8 13 1 0
BITMAP
01E0
0370
02E0
0000
340D
341D
741D
702C
B03C
A078
E0F8
F7B4
7D34
ENDCHAR
STARTCHAR Utilde.ss01
ENCODING -1
SWIDTH 800 0
DWIDTH 9 0
BBX 8 12 1 0
BITMAP
0798
09B4
0000
340D
341D
741D
702C
B03C
A078
E0F8
F7B4
7D34
ENDCHAR
STARTCHAR V.ss01
ENCODING -1
SWIDTH 797 0
DWIDTH 9 0
BBX 8 9 1 0
BITMAP
740B
740E
B00D
B01D
B028
B034
74B0
3AD0
1E40
ENDCHAR
STARTCHAR W.ss01
ENCODING -1
SWIDTH 1236 0
DWIDTH 14 0
BBX 13 9 1 0
BITMAP
700D0280
701D0380
B02D0740
B03C0B00
B07C0E00
B0BC1D00
70DD2800
7B8EB000
2E079000
ENDCHAR
STARTCHAR Wacute.ss01
ENCODING -1
SWIDTH 1236 0
DWIDTH 14 0
BBX 13 13 1 0
BITMAP
00005000
0002D000
00064000
00000000
700D0280
701D0380
B02D0740
B03C0B00
B07C0E00
B0BC1D00
70DD2800
7B8EB000
2E079000
ENDCHAR
STARTCHAR Wcircumflex.ss01
ENCODING -1
SWIDTH 1236 0
DWIDTH 14 0
BBX 13 13 1 0
BITMAP
000B0000
002A4000
00358000
00000000
700D0280
701D0380
B02D0740
B03C0B00
B07C0E00
B0BC1D00
70DD2800
7B8EB000
2E079000
ENDCHAR
STARTCHAR Wdieresis.ss01
ENCODING -1
SWIDTH 1236 0
DWIDTH 14 0
BBX 13 11 1 0
BITMAP
00368000
00000000
700D0280
701D0380
B02D0740
B03C0B00
B07C0E00
B0BC1D00
70DD2800
7B8EB000
2E079000
ENDCHAR
STARTCHAR Wgrave.ss01
ENCODING -1
SWIDTH 1236 0
DWIDTH 14 0
BBX 13 13 1 0
BITMAP
00400000
00E00000
00180000
00000000
700D0280
701D0380
B02D0740
B03C0B00
B07C0E00
B0BC1D00
70DD2800
7B8EB000
2E079000
ENDCHAR
STARTCHAR X.ss01
ENCODING -1
SWIDTH 677 0
DWIDTH 7 0
BBX 9 9 -1 0
BITMAP
0701C0
038740
02DE00
00F800
00F000
03B400
0B2C00
2D1D00
740A00
ENDCHAR
STARTCHAR Y.ss01
ENCODING -1
SWIDTH 776 0
DWIDTH 9 0
BBX 7 9 1 0
BITMAP
741C
741C
B02C
B03C
B5B8
7F78
0434
95B0
7F80
ENDCHAR
STARTCHAR Yacute.ss01
ENCODING -1
SWIDTH 776 0
DWIDTH 9 0
BBX 7 13 1 0
BITMAP
0004
0078
01D0
0000
741C
741C
B02C
B03C
B5B8
7F78
0434
95B0
7F80
ENDCHAR
STARTCHAR Ycircumflex.ss01
ENCODING -1
SWIDTH 776 0
DWIDTH 9 0
BBX 7 13 1 0
BITMAP
01D0
07A0
0970
0000
741C
741C
B02C
B03C
B5B8
7F78
0434
95B0
7F80
ENDCHAR
STARTCHAR Ydieresis.ss01
ENCODING -1
SWIDTH 776 0
DWIDTH 9 0
BBX 7 11 1 0
BITMAP
0A70
0000
741C
741C
B02C
B03C
B5B8
7F78
0434
95B0
7F80
ENDCHAR
STARTCHAR uni1EF4.ss01
ENCODING -1
SWIDTH 776 0
DWIDTH 9 0
BBX 7 11 1 -2
BITMAP
741C
741C
B02C
B03C
B5B8
7F78
0434
95B0
7F80
0000
1D00
ENDCHAR
STARTCHAR Ygrave.ss01
ENCODING -1
SWIDTH 776 0
DWIDTH 9 0
BBX 7 13 1 0
BITMAP
1000
2D00
0640
0000
741C
741C
B02C
B03C
B5B8
7F78
0434
95B0
7F80
ENDCHAR
STARTCHAR uni1EF6.ss01
ENCODING -1
SWIDTH 776 0
DWIDTH 9 0
BBX 7 13 1 0
BITMAP
02D0
00A0
01D0
0000
741C
741C
B02C
B03C
B5B8
7F78
0434
95B0
7F80
ENDCHAR
STARTCHAR uni0232.ss01
ENCODING -1
SWIDTH 776 0
DWIDTH 9 0
BBX 7 11 1 0
BITMAP
0BE0
0140
741C
741C
B02C
B03C
B5B8
7F78
0434
95B0
7F80
ENDCHAR
STARTCHAR uni1EF8.ss01
ENCODING -1
SWIDTH 776 0
DWIDTH 9 0
BBX 7 12 1 0
BITMAP
0B58
0DB0
0000
741C
741C
B02C
B03C
B5B8
7F78
0434
95B0
7F80
ENDCHAR
STARTCHAR Z.ss01
ENCODING -1
SWIDTH 665 0
DWIDTH 7 0
BBX 8 9 0 0
BITMAP
2FFD
056D
0078
00E0
03C0
0B40
2D00
7900
BFFC
ENDCHAR
STARTCHAR Zacute.ss01
ENCODING -1
SWIDTH 665 0
DWIDTH 7 0
BBX 8 13 0 0
BITMAP
0004
002D
00A4
0000
2FFD
056D
0078
00E0
03C0
0B40
2D00
7900
BFFC
ENDCHAR
STARTCHAR Zcaron.ss01
ENCODING -1
SWIDTH 665 0
DWIDTH 7 0
BBX 8 13 0 0
BITMAP
0104
02A8
00E0
0000
2FFD
056D
0078
00E0
03C0
0B40
2D00
7900
BFFC
ENDCHAR
STARTCHAR Zdotaccent.ss01
ENCODING -1
SWIDTH 665 0
DWIDTH 7 0
BBX 8 11 0 0
BITMAP
00E0
0000
2FFD
056D
0078
00E0
03C0
0B40
2D00
7900
BFFC
ENDCHAR
STARTCHAR i.loclTRK
ENCODING -1
SWIDTH 246 0
DWIDTH 3 0
BBX 4 7 0 0
BITMAP
28
00
34
70
71
77
39
ENDCHAR
STARTCHAR a.fina
ENCODING -1
SWIDTH 458 0
DWIDTH 5 0
BBX 5 5 0 0
BITMAP
1B80
3A80
7380
B740
7B40
ENDCHAR
STARTCHAR aacute.fina
ENCODING -1
SWIDTH 458 0
DWIDTH 5 0
BBX 6 9 0 0
BITMAP
00D0
01C0
0200
0000
1B80
3A80
7380
B740
7B40
ENDCHAR
STARTCHAR abreve.fina
ENCODING -1
SWIDTH 458 0
DWIDTH 5 0
BBX 6 9 0 0
BITMAP
0010
28A0
1FD0
0000
1B80
3A80
7380
B740
7B40
ENDCHAR
STARTCHAR uni1EAF.fina
ENCODING -1
SWIDTH 458 0
DWIDTH 5 0
BBX 6 9 0 0
BITMAP
01D0
1560
1FD0
0000
1B80
3A80
7380
B740
7B40
ENDCHAR
STARTCHAR uni1EB7.fina
ENCODING -1
SWIDTH 458 0
DWIDTH 5 0
BBX 6 11 0 -2
BITMAP
0010
28A0
1FD0
0000
1B80
3A80
7380
B740
7B40
0000
2C00
ENDCHAR
STARTCHAR uni1EB1.fina
ENCODING -1
SWIDTH 458 0
DWIDTH 5 0
BBX 6 9 0 0
BITMAP
0900
1560
1FD0
0000
1B80
3A80
7380
B740
7B40
ENDCHAR
STARTCHAR uni1EB3.fina
ENCODING -1
SWIDTH 458 0
DWIDTH 5 0
BBX 6 10 0 0
BITMAP
0780
0380
29A0
1FD0
0000
1B80
3A80
7380
B740
7B40
ENDCHAR
STARTCHAR uni1EB5.fina
ENCODING -1
SWIDTH 458 0
DWIDTH 5 0
BBX 6 10 0 0
BITMAP
0A60
1590
2460
1FD0
0000
1B80
3A80
7380
B740
7B40
ENDCHAR
STARTCHAR acircumflex.fina
ENCODING -1
SWIDTH 458 0
DWIDTH 5 0
BBX 5 10 0 0
BITMAP
0140
0780
0DC0
18C0
0000
1B80
3A80
7380
B740
7B40
ENDCHAR
STARTCHAR uni1EA5.fina
ENCODING -1
SWIDTH 458 0
DWIDTH 5 0
BBX 7 10 0 0
BITMAP
0004
0024
0780
18C0
0000
1B80
3A80
7380
B740
7B40
ENDCHAR
STARTCHAR uni1EAD.fina
ENCODING -1
SWIDTH 458 0
DWIDTH 5 0
BBX 5 12 0 -2
BITMAP
0140
0780
0DC0
18C0
0000
1B80
3A80
7380
B740
7B40
0000
2C00
ENDCHAR
STARTCHAR uni1EA7.fina
ENCODING -1
SWIDTH 458 0
DWIDTH 5 0
BBX 5 10 0 0
BITMAP
1000
6400
0780
18C0
0000
1B80
3A80
7380
B740
7B40
ENDCHAR
STARTCHAR uni1EA9.fina
ENCODING -1
SWIDTH 458 0
DWIDTH 5 0
BBX 7 9 0 0
BITMAP
0078
001C
07B8
1DD0
1F80
3A80
7380
B740
7B40
ENDCHAR
STARTCHAR uni1EAB.fina
ENCODING -1
SWIDTH 458 0
DWIDTH 5 0
BBX 6 10 0 0
BITMAP
0A60
0580
0B80
1CC0
0000
1B80
3A80
7380
B740
7B40
ENDCHAR
STARTCHAR uni0201.fina
ENCODING -1
SWIDTH 458 0
DWIDTH 5 0
BBX 5 10 0 0
BITMAP
1100
3740
2A80
0880
0000
1B80
3A80
7380
B740
7B40
ENDCHAR
STARTCHAR adieresis.fina
ENCODING -1
SWIDTH 458 0
DWIDTH 5 0
BBX 6 7 0 0
BITMAP
1CD0
0000
1B80
3A80
7380
B740
7B40
ENDCHAR
STARTCHAR uni1EA1.fina
ENCODING -1
SWIDTH 458 0
DWIDTH 5 0
BBX 5 7 0 -2
BITMAP
1B80
3A80
7380
B740
7B40
0000
2C00
ENDCHAR
STARTCHAR agrave.fina
ENCODING -1
SWIDTH 458 0
DWIDTH 5 0
BBX 5 10 0 0
BITMAP
0400
1C00
0D00
0600
0000
1B80
3A80
7380
B740
7B40
ENDCHAR
STARTCHAR uni1EA3.fina
ENCODING -1
SWIDTH 458 0
DWIDTH 5 0
BBX 5 9 0 0
BITMAP
0780
01C0
0380
0000
1B80
3A80
7380
B740
7B40
ENDCHAR
STARTCHAR uni0203.fina
ENCODING -1
SWIDTH 458 0
DWIDTH 5 0
BBX 6 8 0 0
BITMAP
0B80
29A0
1450
1B80
3A80
7380
B740
7B40
ENDCHAR
STARTCHAR amacron.fina
ENCODING -1
SWIDTH 458 0
DWIDTH 5 0
BBX 5 7 0 0
BITMAP
1FC0
0100
1B80
3A80
7380
B740
7B40
ENDCHAR
STARTCHAR aogonek.fina
ENCODING -1
SWIDTH 458 0
DWIDTH 5 0
BBX 5 8 0 -3
BITMAP
1A40
3A80
7380
B740
7B40
0600
0A00
07C0
ENDCHAR
STARTCHAR aring.fina
ENCODING -1
SWIDTH 458 0
DWIDTH 5 0
BBX 5 9 0 0
BITMAP
0780
0DC0
0B80
0000
1B80
3A80
7380
B740
7B40
ENDCHAR
STARTCHAR aringacute.fina
ENCODING -1
SWIDTH 458 0
DWIDTH 5 0
BBX 7 10 0 0
BITMAP
000C
07A4
0DC0
0B80
0000
1B80
3A80
7380
B740
7B40
ENDCHAR
STARTCHAR atilde.fina
ENCODING -1
SWIDTH 458 0
DWIDTH 5 0
BBX 6 8 0 0
BITMAP
1E60
26D0
0000
1B80
3A80
7380
B740
7B40
ENDCHAR
STARTCHAR ae.fina
ENCODING -1
SWIDTH 671 0
DWIDTH 7 0
BBX 8 5 0 0
BITMAP
1BB8
3ADC
B2A8
B7DA
7DB8
ENDCHAR
STARTCHAR aeacute.fina
ENCODING -1
SWIDTH 671 0
DWIDTH 7 0
BBX 8 9 0 0
BITMAP
0028
0034
0050
0000
1BB8
3ADC
B2A8
B7DA
7DB8
ENDCHAR
STARTCHAR b.fina
ENCODING -1
SWIDTH 475 0
DWIDTH 5 0
BBX 5 10 0 0
BITMAP
0740
1E80
2980
3640
3600
7F40
76C0
71C0
3680
2E00
ENDCHAR
STARTCHAR c.fina
ENCODING -1
SWIDTH 404 0
DWIDTH 4 0
BBX 5 5 0 0
BITMAP
2E00
7700
A100
B680
2E00
ENDCHAR
STARTCHAR cacute.fina
ENCODING -1
SWIDTH 404 0
DWIDTH 4 0
BBX 5 9 0 0
BITMAP
0180
0340
0600
0000
2E00
7700
A100
B680
2E00
ENDCHAR
STARTCHAR ccaron.fina
ENCODING -1
SWIDTH 404 0
DWIDTH 4 0
BBX 5 10 0 0
BITMAP
0440
19C0
0E40
0A00
0000
2E00
7700
A100
B680
2E00
ENDCHAR
STARTCHAR ccedilla.fina
ENCODING -1
SWIDTH 404 0
DWIDTH 4 0
BBX 5 8 0 -3
BITMAP
1E00
7700
A100
B140
7F40
1E00
0600
7D00
ENDCHAR
STARTCHAR ccircumflex.fina
ENCODING -1
SWIDTH 404 0
DWIDTH 4 0
BBX 5 10 0 0
BITMAP
0100
0B40
1A80
3580
0000
2E00
7700
A100
B680
2E00
ENDCHAR
STARTCHAR cdotaccent.fina
ENCODING -1
SWIDTH 404 0
DWIDTH 4 0
BBX 5 7 0 0
BITMAP
0A00
0000
2E00
7700
A100
B680
2E00
ENDCHAR
STARTCHAR d.fina
ENCODING -1
SWIDTH 493 0
DWIDTH 5 0
BBX 7 10 0 0
BITMAP
0074
00E8
01D8
02A4
02A0
1BA0
37C0
7280
B780
7E80
ENDCHAR
STARTCHAR dcaron.fina
ENCODING -1
SWIDTH 458 0
DWIDTH 5 0
BBX 8 10 0 0
BITMAP
0009
00AC
00E8
00D0
01C0
1BC0
3A80
7380
B740
7B40
ENDCHAR
STARTCHAR dcroat.fina
ENCODING -1
SWIDTH 458 0
DWIDTH 5 0
BBX 6 9 0 0
BITMAP
00A0
00E0
0FF0
01C0
1BC0
3A80
7380
B740
7B40
ENDCHAR
STARTCHAR uni01C6.fina
ENCODING -1
SWIDTH 876 0
DWIDTH 10 0
BBX 11 13 0 -4
BITMAP
00A624
00D3A0
00D3C0
01C550
1BDFF0
3A82D0
734A00
B7AE00
79E380
000B80
002680
007740
003D00
ENDCHAR
STARTCHAR e.fina
ENCODING -1
SWIDTH 411 0
DWIDTH 5 0
BBX 5 5 0 0
BITMAP
1E00
7740
BA00
7580
2E40
ENDCHAR
STARTCHAR eacute.fina
ENCODING -1
SWIDTH 411 0
DWIDTH 5 0
BBX 5 9 0 0
BITMAP
0180
0340
0600
0000
1E00
7740
BA00
7580
2E40
ENDCHAR
STARTCHAR ebreve.fina
ENCODING -1
SWIDTH 411 0
DWIDTH 5 0
BBX 6 9 0 0
BITMAP
1000
35D0
2F80
0000
1E00
7740
BA00
7580
2E40
ENDCHAR
STARTCHAR ecaron.fina
ENCODING -1
SWIDTH 411 0
DWIDTH 5 0
BBX 5 10 0 0
BITMAP
0440
1DC0
0E40
0A00
0000
1E00
7740
BA00
7580
2E40
ENDCHAR
STARTCHAR ecircumflex.fina
ENCODING -1
SWIDTH 411 0
DWIDTH 5 0
BBX 5 10 0 0
BITMAP
0100
0B40
1A80
2580
0000
1E00
7740
BA00
7580
2E40
ENDCHAR
STARTCHAR uni1EBF.fina
ENCODING -1
SWIDTH 411 0
DWIDTH 5 0
BBX 6 10 0 0
BITMAP
0010
0060
0B40
2580
0000
1E00
7740
BA00
7580
2E40
ENDCHAR
STARTCHAR uni1EC7.fina
ENCODING -1
SWIDTH 411 0
DWIDTH 5 0
BBX 5 12 0 -2
BITMAP
0100
0B40
1A80
2580
0000
1E00
7740
BA00
7580
2E40
0000
1D00
ENDCHAR
STARTCHAR uni1EC1.fina
ENCODING -1
SWIDTH 411 0
DWIDTH 5 0
BBX 5 10 0 0
BITMAP
4000
6000
0B40
2580
0000
1E00
7740
BA00
7580
2E40
ENDCHAR
STARTCHAR uni1EC3.fina
ENCODING -1
SWIDTH 411 0
DWIDTH 5 0
BBX 7 9 0 0
BITMAP
00B4
0024
0BB4
2A80
2F00
7740
BA00
7580
2E40
ENDCHAR
STARTCHAR uni1EC5.fina
ENCODING -1
SWIDTH 411 0
DWIDTH 5 0
BBX 6 10 0 0
BITMAP
1E90
1640
0F40
2580
0000
1E00
7740
BA00
7580
2E40
ENDCHAR
STARTCHAR uni0205.fina
ENCODING -1
SWIDTH 411 0
DWIDTH 5 0
BBX 5 10 0 0
BITMAP
5500
AA00
3700
2640
0000
1E00
7740
BA00
7580
2E40
ENDCHAR
STARTCHAR edieresis.fina
ENCODING -1
SWIDTH 411 0
DWIDTH 5 0
BBX 5 7 0 0
BITMAP
29C0
0000
1E00
7740
BA00
7580
2E40
ENDCHAR
STARTCHAR edotaccent.fina
ENCODING -1
SWIDTH 411 0
DWIDTH 5 0
BBX 5 7 0 0
BITMAP
0B00
0000
1E00
7740
BA00
7580
2E40
ENDCHAR
STARTCHAR uni1EB9.fina
ENCODING -1
SWIDTH 411 0
DWIDTH 5 0
BBX 5 7 0 -2
BITMAP
1E00
7740
BA00
7580
2E40
0000
1D00
ENDCHAR
STARTCHAR egrave.fina
ENCODING -1
SWIDTH 411 0
DWIDTH 5 0
BBX 5 10 0 0
BITMAP
1000
3400
1C00
0900
0000
1E00
7740
BA00
7580
2E40
ENDCHAR
STARTCHAR uni1EBB.fina
ENCODING -1
SWIDTH 411 0
DWIDTH 5 0
BBX 5 9 0 0
BITMAP
0F40
0280
0B40
0000
1E00
7740
BA00
7580
2E40
ENDCHAR
STARTCHAR uni0207.fina
ENCODING -1
SWIDTH 411 0
DWIDTH 5 0
BBX 6 8 0 0
BITMAP
1F80
35D0
2040
1E00
7740
BA00
7580
2E40
ENDCHAR
STARTCHAR emacron.fina
ENCODING -1
SWIDTH 411 0
DWIDTH 5 0
BBX 5 7 0 0
BITMAP
2F80
0500
1E00
7740
BA00
7580
2E40
ENDCHAR
STARTCHAR eogonek.fina
ENCODING -1
SWIDTH 411 0
DWIDTH 5 0
BBX 5 8 0 -3
BITMAP
1E00
7740
AB00
B980
7B40
1D00
1C00
0F40
ENDCHAR
STARTCHAR uni1EBD.fina
ENCODING -1
SWIDTH 411 0
DWIDTH 5 0
BBX 6 8 0 0
BITMAP
2D90
6680
0000
1E00
7740
BA00
7580
2E40
ENDCHAR
STARTCHAR g.fina
ENCODING -1
SWIDTH 449 0
DWIDTH 5 0
BBX 5 10 0 -5
BITMAP
1A40
3A80
7380
B740
7B40
0B00
3A00
9900
DC00
B400
ENDCHAR
STARTCHAR gbreve.fina
ENCODING -1
SWIDTH 449 0
DWIDTH 5 0
BBX 6 14 0 -5
BITMAP
0010
28A0
1FD0
0000
1A40
3A80
7380
B740
7B40
0B00
3A00
9900
DC00
B400
ENDCHAR
STARTCHAR gcaron.fina
ENCODING -1
SWIDTH 449 0
DWIDTH 5 0
BBX 6 15 0 -5
BITMAP
0410
0D90
0AC0
0740
0000
1A40
3A80
7380
B740
7B40
0B00
3A00
9900
DC00
B400
ENDCHAR
STARTCHAR gcircumflex.fina
ENCODING -1
SWIDTH 449 0
DWIDTH 5 0
BBX 5 15 0 -5
BITMAP
0140
0780
0DC0
18C0
0000
1A40
3A80
7380
B740
7B40
0B00
3A00
9900
DC00
B400
ENDCHAR
STARTCHAR uni0123.fina
ENCODING -1
SWIDTH 449 0
DWIDTH 5 0
BBX 5 14 0 -5
BITMAP
0240
0340
0300
0000
1A40
3A80
7380
B740
7B40
0B00
3A00
9900
DC00
B400
ENDCHAR
STARTCHAR gdotaccent.fina
ENCODING -1
SWIDTH 449 0
DWIDTH 5 0
BBX 5 12 0 -5
BITMAP
0740
0000
1A40
3A80
7380
B740
7B40
0B00
3A00
9900
DC00
B400
ENDCHAR
STARTCHAR h.fina
ENCODING -1
SWIDTH 490 0
DWIDTH 5 0
BBX 5 10 0 0
BITMAP
0740
0E80
2980
3600
3A00
7AC0
7BC0
79C0
7680
7280
ENDCHAR
STARTCHAR hbar.fina
ENCODING -1
SWIDTH 490 0
DWIDTH 5 0
BBX 5 9 0 0
BITMAP
0D00
1C00
7F80
3800
36C0
7BC0
79C0
7680
7280
ENDCHAR
STARTCHAR hcircumflex.fina
ENCODING -1
SWIDTH 490 0
DWIDTH 5 0
BBX 6 14 0 0
BITMAP
0280
0AD0
0C90
0000
0740
0E80
2980
3600
3A00
7AC0
7BC0
79C0
7680
7280
ENDCHAR
STARTCHAR i.fina
ENCODING -1
SWIDTH 222 0
DWIDTH 2 0
BBX 3 7 0 0
BITMAP
2C
00
34
74
70
B0
A0
ENDCHAR
STARTCHAR dotlessi.fina
ENCODING -1
SWIDTH 222 0
DWIDTH 2 0
BBX 3 5 0 0
BITMAP
34
74
70
B0
A0
ENDCHAR
STARTCHAR iacute.fina
ENCODING -1
SWIDTH 222 0
DWIDTH 2 0
BBX 4 9 0 0
BITMAP
06
0D
18
00
34
74
70
B0
A0
ENDCHAR
STARTCHAR iacute_j.loclNLD.fina
ENCODING -1
SWIDTH 479 0
DWIDTH 5 0
BBX 7 14 0 -5
BITMAP
0724
0A70
1880
0000
3580
7280
7340
7B40
7B00
0B00
2A00
9900
DC00
B400
ENDCHAR
STARTCHAR ibreve.fina
ENCODING -1
SWIDTH 222 0
DWIDTH 2 0
BBX 5 9 0 0
BITMAP
4100
D740
BE00
0000
3400
7400
7000
B000
A000
ENDCHAR
STARTCHAR icircumflex.fina
ENCODING -1
SWIDTH 222 0
DWIDTH 2 0
BBX 4 10 0 0
BITMAP
04
2D
6A
96
00
34
74
70
B0
A0
ENDCHAR
STARTCHAR uni0209.fina
ENCODING -1
SWIDTH 222 0
DWIDTH 2 0
BBX 5 10 -1 0
BITMAP
5500
AA00
7700
2640
0000
0D00
1D00
1C00
2C00
2800
ENDCHAR
STARTCHAR idieresis.fina
ENCODING -1
SWIDTH 222 0
DWIDTH 2 0
BBX 4 7 0 0
BITMAP
A6
00
34
74
70
B0
A0
ENDCHAR
STARTCHAR i.loclTRK.fina
ENCODING -1
SWIDTH 222 0
DWIDTH 2 0
BBX 3 7 0 0
BITMAP
28
00
34
74
70
B0
A0
ENDCHAR
STARTCHAR uni1ECB.fina
ENCODING -1
SWIDTH 222 0
DWIDTH 2 0
BBX 3 9 0 -2
BITMAP
2C
00
34
74
70
B0
A0
00
E0
ENDCHAR
STARTCHAR igrave.fina
ENCODING -1
SWIDTH 222 0
DWIDTH 2 0
BBX 3 10 0 0
BITMAP
40
D0
70
24
00
34
74
70
B0
A0
ENDCHAR
STARTCHAR uni1EC9.fina
ENCODING -1
SWIDTH 222 0
DWIDTH 2 0
BBX 4 9 0 0
BITMAP
3D
0A
2D
00
34
74
70
B0
A0
ENDCHAR
STARTCHAR uni020B.fina
ENCODING -1
SWIDTH 222 0
DWIDTH 2 0
BBX 5 8 0 0
BITMAP
7D00
D740
4100
3400
7400
7000
B000
A000
ENDCHAR
STARTCHAR imacron.fina
ENCODING -1
SWIDTH 222 0
DWIDTH 2 0
BBX 4 7 0 0
BITMAP
BE
14
34
74
70
B0
A0
ENDCHAR
STARTCHAR iogonek.fina
ENCODING -1
SWIDTH 222 0
DWIDTH 2 0
BBX 4 10 -1 -3
BITMAP
0A
00
0D
1D
1C
1C
28
34
70
3D
ENDCHAR
STARTCHAR itilde.fina
ENCODING -1
SWIDTH 222 0
DWIDTH 2 0
BBX 6 8 -1 0
BITMAP
2D90
6680
0000
0D00
1D00
1C00
2C00
2800
ENDCHAR
STARTCHAR j.fina
ENCODING -1
SWIDTH 229 0
DWIDTH 3 0
BBX 6 12 -3 -5
BITMAP
00E0
0000
00D0
01D0
01C0
01C0
0280
0780
1B40
3700
6A00
7800
ENDCHAR
STARTCHAR uni0237.fina
ENCODING -1
SWIDTH 229 0
DWIDTH 3 0
BBX 6 10 -3 -5
BITMAP
00D0
01D0
01C0
01C0
0280
0780
1B40
3700
6A00
7800
ENDCHAR
STARTCHAR jcircumflex.fina
ENCODING -1
SWIDTH 229 0
DWIDTH 3 0
BBX 7 15 -3 -5
BITMAP
0010
00F4
01A4
0358
0000
00D0
01D0
01C0
01C0
0280
0780
1B40
3700
6A00
7800
ENDCHAR
STARTCHAR k.fina
ENCODING -1
SWIDTH 521 0
DWIDTH 6 0
BBX 6 10 0 0
BITMAP
0740
0E80
2980
3600
3900
7AD0
79E0
79D0
7780
72D0
ENDCHAR
STARTCHAR uni0137.fina
ENCODING -1
SWIDTH 521 0
DWIDTH 6 0
BBX 6 13 0 -3
BITMAP
0740
0E80
2980
3600
3900
7AD0
79E0
79D0
7780
72D0
0800
0C00
0800
ENDCHAR
STARTCHAR kgreenlandic.fina
ENCODING -1
SWIDTH 541 0
DWIDTH 6 0
BBX 6 5 0 0
BITMAP
36D0
7A90
7D40
7E60
77D0
ENDCHAR
STARTCHAR l.fina
ENCODING -1
SWIDTH 368 0
DWIDTH 4 0
BBX 5 10 0 0
BITMAP
0740
1E80
2980
3640
3700
7600
7C00
7400
3500
2E00
ENDCHAR
STARTCHAR lacute.fina
ENCODING -1
SWIDTH 368 0
DWIDTH 4 0
BBX 7 14 0 0
BITMAP
0010
00B4
0280
0000
0740
1E80
2980
3640
3700
7600
7C00
7400
3500
2E00
ENDCHAR
STARTCHAR lcaron.fina
ENCODING -1
SWIDTH 368 0
DWIDTH 4 0
BBX 7 11 0 0
BITMAP
0010
0774
1EB0
2980
3640
3700
7600
7C00
7400
3500
2E00
ENDCHAR
STARTCHAR uni013C.fina
ENCODING -1
SWIDTH 368 0
DWIDTH 4 0
BBX 5 13 0 -3
BITMAP
0740
1E80
2980
3640
3700
7600
7C00
7400
3500
2E00
1400
2400
2000
ENDCHAR
STARTCHAR ldot.fina
ENCODING -1
SWIDTH 466 0
DWIDTH 5 0
BBX 6 10 0 0
BITMAP
0D00
1D00
2C00
2800
3A00
3740
7000
7000
75D0
2F40
ENDCHAR
STARTCHAR uni01C9.fina
ENCODING -1
SWIDTH 555 0
DWIDTH 6 0
BBX 7 15 0 -5
BITMAP
0740
1E80
2980
36F4
3700
7660
7CA0
74A0
35D0
2ED0
02C0
0AC0
2A80
3740
2D00
ENDCHAR
STARTCHAR lslash.fina
ENCODING -1
SWIDTH 368 0
DWIDTH 4 0
BBX 6 11 0 0
BITMAP
07F0
1D40
0B40
1E80
2980
3640
7600
7900
7400
3500
2E00
ENDCHAR
STARTCHAR m.fina
ENCODING -1
SWIDTH 732 0
DWIDTH 8 0
BBX 8 5 0 0
BITMAP
368A
7BEE
7ADA
76CD
728D
ENDCHAR
STARTCHAR n.fina
ENCODING -1
SWIDTH 484 0
DWIDTH 5 0
BBX 5 5 0 0
BITMAP
36C0
7BC0
7AC0
7680
7280
ENDCHAR
STARTCHAR nacute.fina
ENCODING -1
SWIDTH 484 0
DWIDTH 5 0
BBX 6 9 0 0
BITMAP
0090
01C0
0240
0000
36C0
7BC0
7AC0
7680
7280
ENDCHAR
STARTCHAR napostrophe.fina
ENCODING -1
SWIDTH 484 0
DWIDTH 5 0
BBX 5 9 0 0
BITMAP
9000
D000
8000
0000
36C0
7BC0
7AC0
7680
7280
ENDCHAR
STARTCHAR ncaron.fina
ENCODING -1
SWIDTH 484 0
DWIDTH 5 0
BBX 6 10 0 0
BITMAP
0410
09A0
0AC0
0740
0000
36C0
7BC0
7AC0
7680
7280
ENDCHAR
STARTCHAR uni0146.fina
ENCODING -1
SWIDTH 484 0
DWIDTH 5 0
BBX 5 8 0 -3
BITMAP
36C0
7BC0
7AC0
7680
7280
0800
0C00
0800
ENDCHAR
STARTCHAR eng.fina
ENCODING -1
SWIDTH 484 0
DWIDTH 5 0
BBX 5 8 0 -3
BITMAP
36C0
7BC0
7A80
7640
7340
0700
9900
7800
ENDCHAR
STARTCHAR uni01CC.fina
ENCODING -1
SWIDTH 725 0
DWIDTH 8 0
BBX 8 12 0 -5
BITMAP
000B
0000
36CA
7BCA
7A8D
76AD
71ED
002C
00E8
0264
0370
02D0
ENDCHAR
STARTCHAR ntilde.fina
ENCODING -1
SWIDTH 484 0
DWIDTH 5 0
BBX 6 8 0 0
BITMAP
1E70
26D0
0000
36C0
7BC0
7AC0
7680
7280
ENDCHAR
STARTCHAR o.fina
ENCODING -1
SWIDTH 453 0
DWIDTH 5 0
BBX 5 5 0 0
BITMAP
2E00
7680
A280
7740
2E00
ENDCHAR
STARTCHAR oacute.fina
ENCODING -1
SWIDTH 453 0
DWIDTH 5 0
BBX 5 9 0 0
BITMAP
0180
0340
0600
0000
2E00
7680
A280
7740
2E00
ENDCHAR
STARTCHAR obreve.fina
ENCODING -1
SWIDTH 453 0
DWIDTH 5 0
BBX 6 9 0 0
BITMAP
1040
35D0
2F80
0000
2E00
7680
A280
7740
2E00
ENDCHAR
STARTCHAR ocircumflex.fina
ENCODING -1
SWIDTH 453 0
DWIDTH 5 0
BBX 5 10 0 0
BITMAP
0100
0B40
1A80
3580
0000
2E00
7680
A280
7740
2E00
ENDCHAR
STARTCHAR uni1ED1.fina
ENCODING -1
SWIDTH 453 0
DWIDTH 5 0
BBX 6 10 0 0
BITMAP
0010
0060
0B40
2580
0000
2E00
7680
A280
7740
2E00
ENDCHAR
STARTCHAR uni1ED9.fina
ENCODING -1
SWIDTH 453 0
DWIDTH 5 0
BBX 5 12 0 -2
BITMAP
0100
0B40
1A80
3580
0000
2E00
7680
A280
7740
2E00
0000
2C00
ENDCHAR
STARTCHAR uni1ED3.fina
ENCODING -1
SWIDTH 453 0
DWIDTH 5 0
BBX 5 10 0 0
BITMAP
4000
A000
0B40
2580
0000
2E00
7680
A280
7740
2E00
ENDCHAR
STARTCHAR uni1ED5.fina
ENCODING -1
SWIDTH 453 0
DWIDTH 5 0
BBX 7 9 0 0
BITMAP
00B4
0024
0BB0
2A80
2F40
7680
A280
7740
2E00
ENDCHAR
STARTCHAR uni1ED7.fina
ENCODING -1
SWIDTH 453 0
DWIDTH 5 0
BBX 6 10 0 0
BITMAP
1D90
1640
0F40
2580
0000
2E00
7680
A280
7740
2E00
ENDCHAR
STARTCHAR uni020D.fina
ENCODING -1
SWIDTH 453 0
DWIDTH 5 0
BBX 5 10 0 0
BITMAP
5500
AA00
7700
2640
0000
2E00
7680
A280
7740
2E00
ENDCHAR
STARTCHAR odieresis.fina
ENCODING -1
SWIDTH 453 0
DWIDTH 5 0
BBX 5 7 0 0
BITMAP
2980
0000
2E00
7680
A280
7740
2E00
ENDCHAR
STARTCHAR uni022B.fina
ENCODING -1
SWIDTH 453 0
DWIDTH 5 0
BBX 5 10 0 0
BITMAP
1FC0
0500
0000
2980
0000
2E00
7680
A280
7740
2E00
ENDCHAR
STARTCHAR uni0231.fina
ENCODING -1
SWIDTH 453 0
DWIDTH 5 0
BBX 5 10 0 0
BITMAP
1FC0
0500
0000
0A00
0000
2E00
7680
A280
7740
2E00
ENDCHAR
STARTCHAR uni1ECD.fina
ENCODING -1
SWIDTH 453 0
DWIDTH 5 0
BBX 5 7 0 -2
BITMAP
2E00
7680
A280
7740
2E00
0000
2C00
ENDCHAR
STARTCHAR ograve.fina
ENCODING -1
SWIDTH 453 0
DWIDTH 5 0
BBX 5 10 0 0
BITMAP
1000
3400
1C00
0900
0000
2E00
7680
A280
7740
2E00
ENDCHAR
STARTCHAR uni1ECF.fina
ENCODING -1
SWIDTH 453 0
DWIDTH 5 0
BBX 5 9 0 0
BITMAP
0F40
0240
0B00
0000
2E00
7680
A280
7740
2E00
ENDCHAR
STARTCHAR ohorn.fina
ENCODING -1
SWIDTH 453 0
DWIDTH 5 0
BBX 6 7 0 0
BITMAP
0040
0090
2F80
7680
A280
7780
2E00
ENDCHAR
STARTCHAR uni1EDB.fina
ENCODING -1
SWIDTH 453 0
DWIDTH 5 0
BBX 6 9 0 0
BITMAP
0280
0740
0940
0090
2F80
7680
A280
7780
2E00
ENDCHAR
STARTCHAR uni1EE3.fina
ENCODING -1
SWIDTH 453 0
DWIDTH 5 0
BBX 6 9 0 -2
BITMAP
0040
0090
2F80
7680
A280
7780
2E00
0000
2C00
ENDCHAR
STARTCHAR uni1EDD.fina
ENCODING -1
SWIDTH 453 0
DWIDTH 5 0
BBX 6 10 0 0
BITMAP
1000
7400
2800
0840
0090
2F80
7680
A280
7780
2E00
ENDCHAR
STARTCHAR uni1EDF.fina
ENCODING -1
SWIDTH 453 0
DWIDTH 5 0
BBX 6 9 0 0
BITMAP
1E00
0740
0B40
0090
2F80
7680
A280
7780
2E00
ENDCHAR
STARTCHAR uni1EE1.fina
ENCODING -1
SWIDTH 453 0
DWIDTH 5 0
BBX 6 8 0 0
BITMAP
2980
2780
0090
2F80
7680
A280
7780
2E00
ENDCHAR
STARTCHAR ohungarumlaut.fina
ENCODING -1
SWIDTH 453 0
DWIDTH 5 0
BBX 6 10 0 0
BITMAP
0440
0DD0
1DC0
1540
0000
2E00
7680
A280
7740
2E00
ENDCHAR
STARTCHAR uni020F.fina
ENCODING -1
SWIDTH 453 0
DWIDTH 5 0
BBX 5 8 0 0
BITMAP
1F40
35C0
1040
2E00
7680
A280
7740
2E00
ENDCHAR
STARTCHAR omacron.fina
ENCODING -1
SWIDTH 453 0
DWIDTH 5 0
BBX 5 7 0 0
BITMAP
2F80
0500
2E00
7680
A280
7740
2E00
ENDCHAR
STARTCHAR uni01EB.fina
ENCODING -1
SWIDTH 453 0
DWIDTH 5 0
BBX 5 8 0 -3
BITMAP
2E00
7780
A280
B280
3F00
1C00
2800
1F00
ENDCHAR
STARTCHAR oslash.fina
ENCODING -1
SWIDTH 463 0
DWIDTH 5 0
BBX 5 9 0 -2
BITMAP
0100
0600
2F40
7A80
A9C0
BA80
2E00
1400
1000
ENDCHAR
STARTCHAR oslashacute.fina
ENCODING -1
SWIDTH 463 0
DWIDTH 5 0
BBX 5 11 0 -2
BITMAP
0600
0D00
1900
0600
2F40
7A80
A9C0
BA80
2E00
1400
1000
ENDCHAR
STARTCHAR otilde.fina
ENCODING -1
SWIDTH 453 0
DWIDTH 5 0
BBX 6 8 0 0
BITMAP
2D90
6680
0000
2E00
7680
A280
7740
2E00
ENDCHAR
STARTCHAR uni022D.fina
ENCODING -1
SWIDTH 453 0
DWIDTH 5 0
BBX 6 10 0 0
BITMAP
1FC0
0500
2D90
6680
0000
2E00
7680
A280
7740
2E00
ENDCHAR
STARTCHAR oe.fina
ENCODING -1
SWIDTH 686 0
DWIDTH 8 0
BBX 8 5 0 0
BITMAP
2E78
77DD
A2E8
77D6
2EB9
ENDCHAR
STARTCHAR p.fina
ENCODING -1
SWIDTH 457 0
DWIDTH 5 0
BBX 7 10 -2 -5
BITMAP
07B4
07AC
0728
0B74
1FD0
2B00
3600
6A00
6900
3800
ENDCHAR
STARTCHAR thorn.fina
ENCODING -1
SWIDTH 483 0
DWIDTH 5 0
BBX 5 12 0 -3
BITMAP
1800
2800
3800
3400
7780
79C0
75C0
B740
B900
A000
A000
A000
ENDCHAR
STARTCHAR q.fina
ENCODING -1
SWIDTH 449 0
DWIDTH 5 0
BBX 5 10 0 -4
BITMAP
0040
1BC0
3A80
7240
B740
7B00
0700
0A00
0A00
0500
ENDCHAR
STARTCHAR r.fina
ENCODING -1
SWIDTH 495 0
DWIDTH 5 0
BBX 6 5 0 0
BITMAP
36C0
7AD0
79D0
7400
7000
ENDCHAR
STARTCHAR racute.fina
ENCODING -1
SWIDTH 495 0
DWIDTH 5 0
BBX 6 9 0 0
BITMAP
00C0
0280
0200
0000
36C0
7AD0
79D0
7400
7000
ENDCHAR
STARTCHAR rcaron.fina
ENCODING -1
SWIDTH 495 0
DWIDTH 5 0
BBX 6 10 0 0
BITMAP
0450
0CD0
0A80
0700
0000
36C0
7AD0
79D0
7400
7000
ENDCHAR
STARTCHAR uni0157.fina
ENCODING -1
SWIDTH 495 0
DWIDTH 5 0
BBX 6 8 0 -3
BITMAP
36C0
7AD0
79D0
7400
7000
6000
A000
9000
ENDCHAR
STARTCHAR uni0211.fina
ENCODING -1
SWIDTH 495 0
DWIDTH 5 0
BBX 6 10 0 0
BITMAP
1100
7700
3740
1980
0000
36C0
7AD0
79D0
7400
7000
ENDCHAR
STARTCHAR uni0213.fina
ENCODING -1
SWIDTH 495 0
DWIDTH 5 0
BBX 6 8 0 0
BITMAP
0B80
29D0
1050
36C0
7AD0
79D0
7400
7000
ENDCHAR
STARTCHAR s.fina
ENCODING -1
SWIDTH 394 0
DWIDTH 4 0
BBX 5 5 0 0
BITMAP
0D00
2D00
7B00
DB40
1E00
ENDCHAR
STARTCHAR sacute.fina
ENCODING -1
SWIDTH 394 0
DWIDTH 4 0
BBX 5 9 0 0
BITMAP
0180
0340
0600
0000
0D00
2D00
7B00
DB40
1E00
ENDCHAR
STARTCHAR scaron.fina
ENCODING -1
SWIDTH 394 0
DWIDTH 4 0
BBX 5 10 0 0
BITMAP
0440
19C0
0E40
0A00
0000
0D00
2D00
7B00
DB40
1E00
ENDCHAR
STARTCHAR scedilla.fina
ENCODING -1
SWIDTH 394 0
DWIDTH 4 0
BBX 5 8 0 -3
BITMAP
0D00
1D00
3E00
9740
6E00
0A00
0600
7C00
ENDCHAR
STARTCHAR scircumflex.fina
ENCODING -1
SWIDTH 394 0
DWIDTH 4 0
BBX 5 10 0 0
BITMAP
0100
0B40
1A80
2580
0000
0D00
2D00
7B00
DB40
1E00
ENDCHAR
STARTCHAR uni0219.fina
ENCODING -1
SWIDTH 394 0
DWIDTH 4 0
BBX 5 8 0 -3
BITMAP
0D00
2D00
7B00
DB40
1E00
0800
1C00
1800
ENDCHAR
STARTCHAR germandbls.fina
ENCODING -1
SWIDTH 580 0
DWIDTH 6 0
BBX 7 11 0 -2
BITMAP
07E0
1D74
3874
35D0
7380
73D0
71B0
7A34
B7E0
B000
6000
ENDCHAR
STARTCHAR uni01C9.ss01.fina
ENCODING -1
SWIDTH 466 0
DWIDTH 5 0
BBX 6 14 0 -5
BITMAP
1C00
2C00
29D0
3400
3580
7280
7280
7740
7B40
0B00
2B00
AA00
DD00
B400
ENDCHAR
STARTCHAR eng.ss01.fina
ENCODING -1
SWIDTH 484 0
DWIDTH 5 0
BBX 5 10 0 -5
BITMAP
36C0
7BC0
7A80
7680
7240
0B40
2B00
6600
AD00
7800
ENDCHAR
STARTCHAR p.ss01.fina
ENCODING -1
SWIDTH 488 0
DWIDTH 5 0
BBX 7 10 -2 -5
BITMAP
026C
03FC
039C
0368
0B28
1F00
2B00
2A00
6D00
3800
ENDCHAR
STARTCHAR z.ss01.fina
ENCODING -1
SWIDTH 406 0
DWIDTH 4 0
BBX 6 10 -1 -4
BITMAP
0510
1FE0
0380
0E00
1E00
0740
0F80
3740
6700
7D00
ENDCHAR
STARTCHAR zacute.ss01.fina
ENCODING -1
SWIDTH 406 0
DWIDTH 4 0
BBX 6 13 -1 -4
BITMAP
0060
00D0
0140
0510
1FE0
0380
0E00
1E00
0740
0F80
3740
6700
7D00
ENDCHAR
STARTCHAR zcaron.ss01.fina
ENCODING -1
SWIDTH 406 0
DWIDTH 4 0
BBX 6 14 -1 -4
BITMAP
0510
0670
0790
0280
0510
1FE0
0380
0E00
1E00
0740
0F80
3740
6700
7D00
ENDCHAR
STARTCHAR zdotaccent.ss01.fina
ENCODING -1
SWIDTH 406 0
DWIDTH 4 0
BBX 6 11 -1 -4
BITMAP
0280
0510
1FE0
0380
0E00
1E00
0740
0F80
3740
6700
7D00
ENDCHAR
STARTCHAR t.fina
ENCODING -1
SWIDTH 413 0
DWIDTH 5 0
BBX 5 10 0 0
BITMAP
0740
0E80
1D80
2A40
2A00
FF80
3500
3400
2940
1F40
ENDCHAR
STARTCHAR tbar.fina
ENCODING -1
SWIDTH 387 0
DWIDTH 4 0
BBX 5 9 0 0
BITMAP
0400
1C00
2C00
2800
BF40
FF00
7400
3540
1E00
ENDCHAR
STARTCHAR tcaron.fina
ENCODING -1
SWIDTH 413 0
DWIDTH 5 0
BBX 7 11 0 0
BITMAP
0004
0758
0E94
1D80
2A40
2A00
FF80
3500
3400
2940
1F40
ENDCHAR
STARTCHAR uni0163.fina
ENCODING -1
SWIDTH 413 0
DWIDTH 5 0
BBX 5 12 0 -3
BITMAP
0780
0E80
1980
2A00
FF80
3500
3400
3840
2F40
1E00
0600
7D00
ENDCHAR
STARTCHAR uni021B.fina
ENCODING -1
SWIDTH 413 0
DWIDTH 5 0
BBX 5 13 0 -3
BITMAP
0740
0E80
1D80
2A40
2A00
FF80
3500
3400
2940
1F40
0800
0C00
0800
ENDCHAR
STARTCHAR u.fina
ENCODING -1
SWIDTH 460 0
DWIDTH 5 0
BBX 5 5 0 0
BITMAP
3580
7280
7380
7B40
7740
ENDCHAR
STARTCHAR uacute.fina
ENCODING -1
SWIDTH 460 0
DWIDTH 5 0
BBX 5 9 0 0
BITMAP
00C0
0280
0200
0000
3580
7280
7380
7B40
7740
ENDCHAR
STARTCHAR ubreve.fina
ENCODING -1
SWIDTH 460 0
DWIDTH 5 0
BBX 6 9 0 0
BITMAP
1000
28A0
1F80
0000
3580
7280
7380
7B40
7740
ENDCHAR
STARTCHAR ucircumflex.fina
ENCODING -1
SWIDTH 460 0
DWIDTH 5 0
BBX 5 10 0 0
BITMAP
0100
0780
0DC0
28C0
0000
3580
7280
7380
7B40
7740
ENDCHAR
STARTCHAR uni0215.fina
ENCODING -1
SWIDTH 460 0
DWIDTH 5 0
BBX 5 10 0 0
BITMAP
1100
7700
2640
1980
0000
3580
7280
7380
7B40
7740
ENDCHAR
STARTCHAR udieresis.fina
ENCODING -1
SWIDTH 460 0
DWIDTH 5 0
BBX 6 7 0 0
BITMAP
1DD0
0000
3580
7280
7380
7B40
7740
ENDCHAR
STARTCHAR uni1EE5.fina
ENCODING -1
SWIDTH 460 0
DWIDTH 5 0
BBX 5 7 0 -2
BITMAP
3580
7280
7380
7B40
7740
0000
1D00
ENDCHAR
STARTCHAR ugrave.fina
ENCODING -1
SWIDTH 460 0
DWIDTH 5 0
BBX 5 10 0 0
BITMAP
1400
2800
0D00
0600
0000
3580
7280
7380
7B40
7740
ENDCHAR
STARTCHAR uni1EE7.fina
ENCODING -1
SWIDTH 460 0
DWIDTH 5 0
BBX 5 9 0 0
BITMAP
0B40
01C0
0740
0000
3580
7280
7380
7B40
7740
ENDCHAR
STARTCHAR uhorn.fina
ENCODING -1
SWIDTH 472 0
DWIDTH 5 0
BBX 6 7 0 0
BITMAP
0010
0030
35E0
7280
7380
7B40
7740
ENDCHAR
STARTCHAR uni1EE9.fina
ENCODING -1
SWIDTH 472 0
DWIDTH 5 0
BBX 6 9 0 0
BITMAP
00C0
0280
0210
0030
35E0
7280
7380
7B40
7740
ENDCHAR
STARTCHAR uni1EF1.fina
ENCODING -1
SWIDTH 472 0
DWIDTH 5 0
BBX 6 9 0 -2
BITMAP
0010
0030
35E0
7280
7380
7B40
7740
0000
1D00
ENDCHAR
STARTCHAR uni1EEB.fina
ENCODING -1
SWIDTH 472 0
DWIDTH 5 0
BBX 6 10 0 0
BITMAP
1400
2800
0D00
0610
0030
35E0
7280
7380
7B40
7740
ENDCHAR
STARTCHAR uni1EED.fina
ENCODING -1
SWIDTH 472 0
DWIDTH 5 0
BBX 6 9 0 0
BITMAP
0B40
01C0
0750
0030
35E0
7280
7380
7B40
7740
ENDCHAR
STARTCHAR uni1EEF.fina
ENCODING -1
SWIDTH 472 0
DWIDTH 5 0
BBX 6 8 0 0
BITMAP
1D90
2690
0030
35E0
7280
7380
7B40
7740
ENDCHAR
STARTCHAR uhungarumlaut.fina
ENCODING -1
SWIDTH 460 0
DWIDTH 5 0
BBX 6 10 0 0
BITMAP
0110
0BA0
0DD0
0880
0000
3580
7280
7380
7B40
7740
ENDCHAR
STARTCHAR uni0217.fina
ENCODING -1
SWIDTH 460 0
DWIDTH 5 0
BBX 6 8 0 0
BITMAP
0B80
29E0
1050
3580
7280
7380
7B40
7740
ENDCHAR
STARTCHAR umacron.fina
ENCODING -1
SWIDTH 460 0
DWIDTH 5 0
BBX 5 7 0 0
BITMAP
1FC0
0500
3580
7280
7380
7B40
7740
ENDCHAR
STARTCHAR uogonek.fina
ENCODING -1
SWIDTH 460 0
DWIDTH 5 0
BBX 6 8 0 -3
BITMAP
3580
7280
7380
7B40
7740
0700
0A00
07D0
ENDCHAR
STARTCHAR uring.fina
ENCODING -1
SWIDTH 460 0
DWIDTH 5 0
BBX 5 9 0 0
BITMAP
0B40
0DC0
0B80
0000
3580
7280
7380
7B40
7740
ENDCHAR
STARTCHAR utilde.fina
ENCODING -1
SWIDTH 460 0
DWIDTH 5 0
BBX 6 8 0 0
BITMAP
1D60
26D0
0000
3580
7280
7380
7B40
7740
ENDCHAR
STARTCHAR v.fina
ENCODING -1
SWIDTH 420 0
DWIDTH 5 0
BBX 5 5 0 0
BITMAP
61C0
7280
7700
7E00
3800
ENDCHAR
STARTCHAR w.fina
ENCODING -1
SWIDTH 666 0
DWIDTH 7 0
BBX 8 5 0 0
BITMAP
628A
738D
77A8
7EF4
39D0
ENDCHAR
STARTCHAR wacute.fina
ENCODING -1
SWIDTH 666 0
DWIDTH 7 0
BBX 8 9 0 0
BITMAP
0030
00A0
0080
0000
628A
738D
77A8
7EF4
39D0
ENDCHAR
STARTCHAR wcircumflex.fina
ENCODING -1
SWIDTH 666 0
DWIDTH 7 0
BBX 8 10 0 0
BITMAP
0040
02E0
0360
0A30
0000
628A
738D
77A8
7EF4
39D0
ENDCHAR
STARTCHAR wdieresis.fina
ENCODING -1
SWIDTH 666 0
DWIDTH 7 0
BBX 8 7 0 0
BITMAP
0670
0000
628A
738D
77A8
7EF4
39D0
ENDCHAR
STARTCHAR wgrave.fina
ENCODING -1
SWIDTH 666 0
DWIDTH 7 0
BBX 8 10 0 0
BITMAP
0400
0A00
0340
0140
0000
628A
738D
77A8
7EF4
39D0
ENDCHAR
STARTCHAR x.fina
ENCODING -1
SWIDTH 580 0
DWIDTH 6 0
BBX 7 5 0 0
BITMAP
2DA0
2BA0
1700
AB68
BAE0
ENDCHAR
STARTCHAR y.fina
ENCODING -1
SWIDTH 449 0
DWIDTH 5 0
BBX 5 10 0 -5
BITMAP
3580
7280
7340
7B40
7B00
0B00
2A00
9900
DC00
B400
ENDCHAR
STARTCHAR yacute.fina
ENCODING -1
SWIDTH 449 0
DWIDTH 5 0
BBX 5 14 0 -5
BITMAP
00C0
0280
0200
0000
3580
7280
7340
7B40
7B00
0B00
2A00
9900
DC00
B400
ENDCHAR
STARTCHAR ycircumflex.fina
ENCODING -1
SWIDTH 449 0
DWIDTH 5 0
BBX 5 15 0 -5
BITMAP
0100
0780
0DC0
28C0
0000
3580
7280
7340
7B40
7B00
0B00
2A00
9900
DC00
B400
ENDCHAR
STARTCHAR ydieresis.fina
ENCODING -1
SWIDTH 449 0
DWIDTH 5 0
BBX 6 12 0 -5
BITMAP
1DD0
0000
3580
7280
7340
7B40
7B00
0B00
2A00
9900
DC00
B400
ENDCHAR
STARTCHAR uni1EF5.fina
ENCODING -1
SWIDTH 449 0
DWIDTH 5 0
BBX 5 10 0 -5
BITMAP
3580
7280
7340
7B40
7B00
0B00
2A00
9900
DEC0
B400
ENDCHAR
STARTCHAR ygrave.fina
ENCODING -1
SWIDTH 449 0
DWIDTH 5 0
BBX 5 15 0 -5
BITMAP
1400
2800
0D00
0600
0000
3580
7280
7340
7B40
7B00
0B00
2A00
9900
DC00
B400
ENDCHAR
STARTCHAR uni1EF7.fina
ENCODING -1
SWIDTH 449 0
DWIDTH 5 0
BBX 5 14 0 -5
BITMAP
0B40
01C0
0740
0000
3580
7280
7340
7B40
7B00
0B00
2A00
9900
DC00
B400
ENDCHAR
STARTCHAR uni0233.fina
ENCODING -1
SWIDTH 449 0
DWIDTH 5 0
BBX 5 12 0 -5
BITMAP
1FC0
0500
3580
7280
7340
7B40
7B00
0B00
2A00
9900
DC00
B400
ENDCHAR
STARTCHAR uni1EF9.fina
ENCODING -1
SWIDTH 449 0
DWIDTH 5 0
BBX 6 13 0 -5
BITMAP
1D60
26D0
0000
3580
7280
7340
7B40
7B00
0B00
2A00
9900
DC00
B400
ENDCHAR
STARTCHAR z.fina
ENCODING -1
SWIDTH 412 0
DWIDTH 5 0
BBX 5 5 0 0
BITMAP
7F80
1E40
3800
B500
FF80
ENDCHAR
STARTCHAR zacute.fina
ENCODING -1
SWIDTH 412 0
DWIDTH 5 0
BBX 5 9 0 0
BITMAP
01C0
0340
0600
0000
7F80
1E40
3800
B500
FF80
ENDCHAR
STARTCHAR zcaron.fina
ENCODING -1
SWIDTH 412 0
DWIDTH 5 0
BBX 5 10 0 0
BITMAP
0440
1DC0
0E40
0A00
0000
7F80
1E40
3800
B500
FF80
ENDCHAR
STARTCHAR zdotaccent.fina
ENCODING -1
SWIDTH 412 0
DWIDTH 5 0
BBX 5 7 0 0
BITMAP
0B00
0000
7F80
1E40
3800
B500
FF80
ENDCHAR
STARTCHAR iacute_j.loclNLD
ENCODING -1
SWIDTH 479 0
DWIDTH 5 0
BBX 7 14 0 -5
BITMAP
0724
0A70
1880
0000
3580
7280
7340
7BB4
7B80
0B00
2A00
9900
DC00
B400
ENDCHAR
STARTCHAR b.ss01
ENCODING -1
SWIDTH 449 0
DWIDTH 5 0
BBX 7 10 0 0
BITMAP
0740
1E80
2980
3700
3A00
7A40
73D0
72F4
3740
2E00
ENDCHAR
STARTCHAR d.ss01
ENCODING -1
SWIDTH 470 0
DWIDTH 5 0
BBX 7 9 0 0
BITMAP
00A0
00D0
00D0
01C0
1BC0
3A80
7340
B7A4
79E0
ENDCHAR
STARTCHAR f.ss01
ENCODING -1
SWIDTH 323 0
DWIDTH 4 0
BBX 7 15 -2 -5
BITMAP
0074
00E8
0298
0364
0370
07A0
07C0
07FC
0700
0700
0B00
6A00
9A00
9D00
7800
ENDCHAR
STARTCHAR l.ss01
ENCODING -1
SWIDTH 237 0
DWIDTH 3 0
BBX 4 9 0 0
BITMAP
1C
2C
28
34
34
70
71
76
78
ENDCHAR
STARTCHAR lacute.ss01
ENCODING -1
SWIDTH 237 0
DWIDTH 3 0
BBX 6 13 0 0
BITMAP
0040
02D0
0A00
0000
1C00
2C00
2800
3400
3400
7000
7100
7600
7800
ENDCHAR
STARTCHAR uni013C.ss01
ENCODING -1
SWIDTH 237 0
DWIDTH 3 0
BBX 4 12 0 -3
BITMAP
1C
2C
28
34
34
70
71
76
78
20
70
60
ENDCHAR
STARTCHAR uni01C9.ss01
ENCODING -1
SWIDTH 491 0
DWIDTH 5 0
BBX 7 14 0 -5
BITMAP
1C00
2C00
29D0
3400
3580
7280
7284
77B4
7BD0
0B00
2B00
AA00
DD00
B400
ENDCHAR
STARTCHAR lslash.ss01
ENCODING -1
SWIDTH 324 0
DWIDTH 4 0
BBX 5 10 0 0
BITMAP
0D00
1D00
2D00
2F00
7800
B400
7000
7040
7680
2E00
ENDCHAR
STARTCHAR eng.ss01
ENCODING -1
SWIDTH 508 0
DWIDTH 6 0
BBX 7 10 0 -5
BITMAP
36C0
7BC0
7A84
76A8
72D0
0B40
2B00
6600
AD00
7800
ENDCHAR
STARTCHAR o.ss01
ENCODING -1
SWIDTH 451 0
DWIDTH 5 0
BBX 6 5 0 0
BITMAP
2F80
76F0
A280
7740
2E00
ENDCHAR
STARTCHAR oacute.ss01
ENCODING -1
SWIDTH 451 0
DWIDTH 5 0
BBX 6 9 0 0
BITMAP
0180
0340
0600
0000
2F80
76F0
A280
7740
2E00
ENDCHAR
STARTCHAR obreve.ss01
ENCODING -1
SWIDTH 451 0
DWIDTH 5 0
BBX 6 9 0 0
BITMAP
1040
35D0
2F80
0000
2F80
76F0
A280
7740
2E00
ENDCHAR
STARTCHAR ocircumflex.ss01
ENCODING -1
SWIDTH 451 0
DWIDTH 5 0
BBX 6 10 0 0
BITMAP
0100
0B40
1A80
3580
0000
2F80
76F0
A280
7740
2E00
ENDCHAR
STARTCHAR uni1ED1.ss01
ENCODING -1
SWIDTH 451 0
DWIDTH 5 0
BBX 6 10 0 0
BITMAP
0010
0060
0B40
2580
0000
2F80
76F0
A280
7740
2E00
ENDCHAR
STARTCHAR uni1ED9.ss01
ENCODING -1
SWIDTH 451 0
DWIDTH 5 0
BBX 6 12 0 -2
BITMAP
0100
0B40
1A80
3580
0000
2F80
76F0
A280
7740
2E00
0000
2C00
ENDCHAR
STARTCHAR uni1ED3.ss01
ENCODING -1
SWIDTH 451 0
DWIDTH 5 0
BBX 6 10 0 0
BITMAP
4000
A000
0B40
2580
0000
2F80
76F0
A280
7740
2E00
ENDCHAR
STARTCHAR uni1ED5.ss01
ENCODING -1
SWIDTH 451 0
DWIDTH 5 0
BBX 7 9 0 0
BITMAP
00B4
0024
0BB0
2A80
2F80
76F0
A280
7740
2E00
ENDCHAR
STARTCHAR uni1ED7.ss01
ENCODING -1
SWIDTH 451 0
DWIDTH 5 0
BBX 6 10 0 0
BITMAP
1D90
1640
0F40
2580
0000
2F80
76F0
A280
7740
2E00
ENDCHAR
STARTCHAR uni020D.ss01
ENCODING -1
SWIDTH 451 0
DWIDTH 5 0
BBX 6 10 0 0
BITMAP
5500
AA00
7700
2640
0000
2F80
76F0
A280
7740
2E00
ENDCHAR
STARTCHAR odieresis.ss01
ENCODING -1
SWIDTH 451 0
DWIDTH 5 0
BBX 6 7 0 0
BITMAP
2980
0000
2F80
76F0
A280
7740
2E00
ENDCHAR
STARTCHAR uni022B.ss01
ENCODING -1
SWIDTH 451 0
DWIDTH 5 0
BBX 6 10 0 0
BITMAP
1FC0
0500
0000
2980
0000
2F80
76F0
A280
7740
2E00
ENDCHAR
STARTCHAR uni0231.ss01
ENCODING -1
SWIDTH 451 0
DWIDTH 5 0
BBX 6 10 0 0
BITMAP
1FC0
0500
0000
0A00
0000
2F80
76F0
A280
7740
2E00
ENDCHAR
STARTCHAR uni1ECD.ss01
ENCODING -1
SWIDTH 451 0
DWIDTH 5 0
BBX 6 7 0 -2
BITMAP
2F80
76F0
A280
7740
2E00
0000
2C00
ENDCHAR
STARTCHAR ograve.ss01
ENCODING -1
SWIDTH 451 0
DWIDTH 5 0
BBX 6 10 0 0
BITMAP
1000
3400
1C00
0900
0000
2F80
76F0
A280
7740
2E00
ENDCHAR
STARTCHAR uni1ECF.ss01
ENCODING -1
SWIDTH 451 0
DWIDTH 5 0
BBX 6 9 0 0
BITMAP
0F40
0240
0B00
0000
2F80
76F0
A280
7740
2E00
ENDCHAR
STARTCHAR ohorn.ss01
ENCODING -1
SWIDTH 451 0
DWIDTH 5 0
BBX 6 7 0 0
BITMAP
0040
0090
2FD0
76F0
A280
7740
2E00
ENDCHAR
STARTCHAR uni1EDB.ss01
ENCODING -1
SWIDTH 451 0
DWIDTH 5 0
BBX 6 9 0 0
BITMAP
0280
0740
0940
0090
2FD0
76F0
A280
7740
2E00
ENDCHAR
STARTCHAR uni1EE3.ss01
ENCODING -1
SWIDTH 451 0
DWIDTH 5 0
BBX 6 9 0 -2
BITMAP
0040
0090
2FD0
76F0
A280
7740
2E00
0000
2C00
ENDCHAR
STARTCHAR uni1EDD.ss01
ENCODING -1
SWIDTH 451 0
DWIDTH 5 0
BBX 6 10 0 0
BITMAP
1000
7400
2800
0840
0090
2FD0
76F0
A280
7740
2E00
ENDCHAR
STARTCHAR uni1EDF.ss01
ENCODING -1
SWIDTH 451 0
DWIDTH 5 0
BBX 6 9 0 0
BITMAP
1E00
0740
0B40
0090
2FD0
76F0
A280
7740
2E00
ENDCHAR
STARTCHAR uni1EE1.ss01
ENCODING -1
SWIDTH 451 0
DWIDTH 5 0
BBX 6 8 0 0
BITMAP
2980
2780
0090
2FD0
76F0
A280
7740
2E00
ENDCHAR
STARTCHAR ohungarumlaut.ss01
ENCODING -1
SWIDTH 451 0
DWIDTH 5 0
BBX 6 10 0 0
BITMAP
0440
0DD0
1DC0
1540
0000
2F80
76F0
A280
7740
2E00
ENDCHAR
STARTCHAR uni020F.ss01
ENCODING -1
SWIDTH 451 0
DWIDTH 5 0
BBX 6 8 0 0
BITMAP
1F40
35C0
1040
2F80
76F0
A280
7740
2E00
ENDCHAR
STARTCHAR omacron.ss01
ENCODING -1
SWIDTH 451 0
DWIDTH 5 0
BBX 6 7 0 0
BITMAP
2F80
0500
2F80
76F0
A280
7740
2E00
ENDCHAR
STARTCHAR uni01EB.ss01
ENCODING -1
SWIDTH 451 0
DWIDTH 5 0
BBX 6 8 0 -3
BITMAP
2F80
77F0
A290
B240
7F00
1800
2800
1F00
ENDCHAR
STARTCHAR oslash.ss01
ENCODING -1
SWIDTH 451 0
DWIDTH 5 0
BBX 6 8 0 -1
BITMAP
0100
0600
2FD0
7BB0
AA80
7F40
2D00
1400
ENDCHAR
STARTCHAR oslashacute.ss01
ENCODING -1
SWIDTH 451 0
DWIDTH 5 0
BBX 6 10 0 -1
BITMAP
0600
0D00
1900
0600
2FD0
7BB0
AA80
7F40
2D00
1400
ENDCHAR
STARTCHAR otilde.ss01
ENCODING -1
SWIDTH 451 0
DWIDTH 5 0
BBX 6 8 0 0
BITMAP
2D90
6680
0000
2F80
76F0
A280
7740
2E00
ENDCHAR
STARTCHAR uni022D.ss01
ENCODING -1
SWIDTH 451 0
DWIDTH 5 0
BBX 6 10 0 0
BITMAP
1FC0
0500
2D90
6680
0000
2F80
76F0
A280
7740
2E00
ENDCHAR
STARTCHAR p.ss01
ENCODING -1
SWIDTH 500 0
DWIDTH 6 0
BBX 9 10 -2 -5
BITMAP
026C00
03FC00
039840
036980
0B1E00
1F0000
2B0000
2A0000
6D0000
380000
ENDCHAR
STARTCHAR t.ss01
ENCODING -1
SWIDTH 343 0
DWIDTH 4 0
BBX 5 9 0 0
BITMAP
0400
1C00
2C00
2800
BF40
3400
7400
35C0
2E40
ENDCHAR
STARTCHAR uni0163.ss01
ENCODING -1
SWIDTH 343 0
DWIDTH 4 0
BBX 5 11 0 -3
BITMAP
0800
1C00
2800
BF40
3400
7400
7480
3F80
1E00
0600
7D00
ENDCHAR
STARTCHAR uni021B.ss01
ENCODING -1
SWIDTH 343 0
DWIDTH 4 0
BBX 5 12 0 -3
BITMAP
0400
1C00
2C00
2800
BF40
3400
7400
35C0
2E40
0800
1C00
1800
ENDCHAR
STARTCHAR z.ss01
ENCODING -1
SWIDTH 432 0
DWIDTH 5 0
BBX 7 10 -1 -4
BITMAP
0510
1FE0
0380
0E04
1E78
0790
0F80
3740
6700
7D00
ENDCHAR
STARTCHAR zacute.ss01
ENCODING -1
SWIDTH 432 0
DWIDTH 5 0
BBX 7 13 -1 -4
BITMAP
0060
00D0
0140
0510
1FE0
0380
0E04
1E78
0790
0F80
3740
6700
7D00
ENDCHAR
STARTCHAR zcaron.ss01
ENCODING -1
SWIDTH 432 0
DWIDTH 5 0
BBX 7 14 -1 -4
BITMAP
0510
0670
0790
0280
0510
1FE0
0380
0E04
1E78
0790
0F80
3740
6700
7D00
ENDCHAR
STARTCHAR zdotaccent.ss01
ENCODING -1
SWIDTH 432 0
DWIDTH 5 0
BBX 7 11 -1 -4
BITMAP
0280
0510
1FE0
0380
0E04
1E78
0790
0F80
3740
6700
7D00
ENDCHAR
STARTCHAR f_f
ENCODING -1
SWIDTH 684 0
DWIDTH 8 0
BBX 9 13 0 -3
BITMAP
078B40
0EDE80
1DAA40
29B640
3A7300
39A900
74B400
77EF80
79E800
75D800
75DC00
79A800
3C7400
ENDCHAR
STARTCHAR f_j
ENCODING -1
SWIDTH 633 0
DWIDTH 7 0
BBX 9 14 0 -4
BITMAP
02C000
0A9000
0D9000
1DAC00
2F4000
BFF400
757400
363400
377740
377D00
377000
3AA000
2DA000
004000
ENDCHAR
STARTCHAR lslash_lslash
ENCODING -1
SWIDTH 654 0
DWIDTH 7 0
BBX 10 11 0 0
BITMAP
06FFE0
1A5540
0B4B00
1EAB40
29B240
36B300
76A900
79B800
74B040
35F640
2E7E00
ENDCHAR
STARTCHAR t_t
ENCODING -1
SWIDTH 706 0
DWIDTH 8 0
BBX 9 10 0 0
BITMAP
074B00
0A9B40
1DA700
1AB700
2B7900
FFFF40
35A400
34A000
29F5C0
1F6E40
ENDCHAR
STARTCHAR f_j.fina
ENCODING -1
SWIDTH 624 0
DWIDTH 7 0
BBX 7 14 0 -4
BITMAP
02C0
0A90
0D90
1DAC
2F40
BFF4
7574
3634
3774
3770
3770
3AA0
2DA0
0040
ENDCHAR
STARTCHAR fi.fina
ENCODING -1
SWIDTH 603 0
DWIDTH 7 0
BBX 7 13 0 -3
BITMAP
02C0
0A90
0D90
1D9C
2F40
BFF4
3974
3774
3770
3770
3700
3A00
2D00
ENDCHAR
STARTCHAR fl.fina
ENCODING -1
SWIDTH 730 0
DWIDTH 8 0
BBX 9 13 0 -3
BITMAP
038740
0ADE80
1CE980
29B640
3A7700
3D7A00
747C00
7BF000
797500
792E00
750000
790000
3C0000
ENDCHAR
STARTCHAR f_ij.loclNLD.fina
ENCODING -1
SWIDTH 837 0
DWIDTH 9 0
BBX 10 15 0 -5
BITMAP
02C000
0A9000
0D9000
1D9DE0
2F4000
BFF4C0
3975C0
373680
377780
373A40
370740
3A2B00
2D6A00
00AD00
007800
ENDCHAR
STARTCHAR i_j.loclNLD.fina
ENCODING -1
SWIDTH 451 0
DWIDTH 5 0
BBX 6 12 0 -5
BITMAP
2DD0
0000
3580
7280
7340
7B40
7B00
0B00
2A00
9900
DC00
B400
ENDCHAR
STARTCHAR t_t.ss01.fina
ENCODING -1
SWIDTH 666 0
DWIDTH 7 0
BBX 8 9 0 0
BITMAP
0410
1C34
2C70
28B0
BFFD
34E0
74D0
76E5
2E7D
ENDCHAR
STARTCHAR I_J.loclNLD
ENCODING -1
SWIDTH 776 0
DWIDTH 9 0
BBX 7 9 1 0
BITMAP
741C
741C
B02C
B03C
B5B8
7F78
0434
95B0
7F80
ENDCHAR
STARTCHAR f_ij.loclNLD
ENCODING -1
SWIDTH 865 0
DWIDTH 10 0
BBX 11 15 0 -5
BITMAP
018000
099000
0DD000
1D9DE0
2F4000
BFF4C0
3975C0
373680
3777A8
373AE0
370740
3A2B00
2D6A00
00AD00
007800
ENDCHAR
STARTCHAR i_j.loclNLD
ENCODING -1
SWIDTH 479 0
DWIDTH 5 0
BBX 7 12 0 -5
BITMAP
2DD0
0000
3580
7280
7340
7BB4
7B80
0B00
2A00
9900
DC00
B400
ENDCHAR
STARTCHAR t_t.ss01
ENCODING -1
SWIDTH 632 0
DWIDTH 7 0
BBX 9 9 0 0
BITMAP
041000
1C3400
2C7000
28B000
BFFD00
34E000
74D000
76E740
2E7D00
ENDCHAR
STARTCHAR uni0410.ss01
ENCODING -1
SWIDTH 780 0
DWIDTH 9 0
BBX 9 9 0 0
BITMAP
01BF80
079500
1E0700
380A00
740E00
741D00
742D00
39BD00
1F9C00
ENDCHAR
STARTCHAR uni0411.ss01
ENCODING -1
SWIDTH 881 0
DWIDTH 10 0
BBX 8 10 2 -1
BITMAP
BFFC
6D50
2C00
3800
7FF4
F96D
740D
701D
B1B8
5250
ENDCHAR
STARTCHAR uni0412.ss01
ENCODING -1
SWIDTH 826 0
DWIDTH 9 0
BBX 8 9 1 0
BITMAP
2FF8
255E
240B
741D
72F4
B07C
E02C
E5B8
BF90
ENDCHAR
STARTCHAR uni0413.ss01
ENCODING -1
SWIDTH 634 0
DWIDTH 7 0
BBX 8 9 2 0
BITMAP
BFFD
6D50
2C00
3800
3800
7400
7400
B000
A000
ENDCHAR
STARTCHAR uni0403.ss01
ENCODING -1
SWIDTH 634 0
DWIDTH 7 0
BBX 8 13 2 0
BITMAP
0010
00F0
0240
0000
BFFD
6D50
2C00
3800
3800
7400
7400
B000
A000
ENDCHAR
STARTCHAR uni0490.ss01
ENCODING -1
SWIDTH 639 0
DWIDTH 7 0
BBX 8 12 2 0
BITMAP
0005
000A
000A
BFFD
6D50
2C00
3800
3800
7400
7400
B000
A000
ENDCHAR
STARTCHAR uni0414.ss01
ENCODING -1
SWIDTH 836 0
DWIDTH 9 0
BBX 9 9 0 0
BITMAP
1BF900
795B40
060380
0E02C0
1D02C0
1C0380
2C0B40
2D6E00
2FE400
ENDCHAR
STARTCHAR uni0415.ss01
ENCODING -1
SWIDTH 720 0
DWIDTH 8 0
BBX 8 9 0 0
BITMAP
06F8
1E5E
2C0A
1D05
0BD0
3900
7401
795A
1FE4
ENDCHAR
STARTCHAR uni0400.ss01
ENCODING -1
SWIDTH 720 0
DWIDTH 8 0
BBX 8 13 0 0
BITMAP
0500
0B40
0190
0000
06F8
1E5E
2C0A
1D05
0BD0
3900
7401
795A
1FE4
ENDCHAR
STARTCHAR uni0401.ss01
ENCODING -1
SWIDTH 720 0
DWIDTH 8 0
BBX 8 11 0 0
BITMAP
029C
0000
06F8
1E5E
2C0A
1D05
0BD0
3900
7401
795A
1FE4
ENDCHAR
STARTCHAR uni0416.ss01
ENCODING -1
SWIDTH 1196 0
DWIDTH 13 0
BBX 13 9 0 0
BITMAP
2E0707C0
07870E00
01CB2C00
00DA7400
00BFD000
02DEE000
075D7400
5E1C3D40
B81C1B80
ENDCHAR
STARTCHAR uni0417.ss01
ENCODING -1
SWIDTH 725 0
DWIDTH 8 0
BBX 8 9 0 0
BITMAP
07F4
1D6C
1C1C
0428
03F8
100E
701E
797C
1FE0
ENDCHAR
STARTCHAR uni0418.ss01
ENCODING -1
SWIDTH 800 0
DWIDTH 9 0
BBX 8 9 1 0
BITMAP
340D
341D
741D
702C
B03C
A078
E0F8
F7B4
7D34
ENDCHAR
STARTCHAR uni0419.ss01
ENCODING -1
SWIDTH 800 0
DWIDTH 9 0
BBX 8 13 1 0
BITMAP
0004
0628
02E0
0000
340D
341D
741D
702C
B03C
A078
E0F8
F7B4
7D34
ENDCHAR
STARTCHAR uni040D.ss01
ENCODING -1
SWIDTH 800 0
DWIDTH 9 0
BBX 8 13 1 0
BITMAP
1400
1E00
0640
0000
340D
341D
741D
702C
B03C
A078
E0F8
F7B4
7D34
ENDCHAR
STARTCHAR uni048A.ss01
ENCODING -1
SWIDTH 815 0
DWIDTH 9 0
BBX 8 12 1 -3
BITMAP
340D
341D
741D
702C
B03C
A078
E0F8
F7B9
7D3E
0028
0070
0010
ENDCHAR
STARTCHAR uni041A.ss01
ENCODING -1
SWIDTH 779 0
DWIDTH 9 0
BBX 8 9 1 0
BITMAP
280D
382C
7474
75E0
FF40
B780
E2D0
E0E4
D07D
ENDCHAR
STARTCHAR uni040C.ss01
ENCODING -1
SWIDTH 779 0
DWIDTH 9 0
BBX 8 13 1 0
BITMAP
0004
002D
00A0
0000
280D
382C
7474
75E0
FF40
B780
E2D0
E0E4
D07D
ENDCHAR
STARTCHAR uni041B.ss01
ENCODING -1
SWIDTH 706 0
DWIDTH 8 0
BBX 9 9 -1 0
BITMAP
002C00
003C00
007C00
00BC00
01EC00
02DC00
075C00
1E0E00
780B40
ENDCHAR
STARTCHAR uni041C.ss01
ENCODING -1
SWIDTH 967 0
DWIDTH 11 0
BBX 11 9 0 0
BITMAP
02C1D0
03C2D0
07C7D0
0BCAD0
0ADDD0
0DEDD0
1CF8D0
78B4E0
A06074
ENDCHAR
STARTCHAR uni041D.ss01
ENCODING -1
SWIDTH 846 0
DWIDTH 9 0
BBX 9 9 0 0
BITMAP
0A0280
0E0380
0E0380
1D0740
7FFFC0
2D5B00
280B00
380E00
340D00
ENDCHAR
STARTCHAR uni041E.ss01
ENCODING -1
SWIDTH 816 0
DWIDTH 9 0
BBX 9 9 0 0
BITMAP
02F900
0E5B40
2C0380
380380
740380
740340
380B00
2D6D00
0BE400
ENDCHAR
STARTCHAR uni041F.ss01
ENCODING -1
SWIDTH 847 0
DWIDTH 9 0
BBX 9 9 1 0
BITMAP
BFFF80
395E00
381D00
741C00
742C00
B02800
B03800
E03800
903400
ENDCHAR
STARTCHAR uni0420.ss01
ENCODING -1
SWIDTH 662 0
DWIDTH 7 0
BBX 8 9 0 0
BITMAP
1BE4
1E6C
0E1D
0D1D
1D78
7FE0
2C00
2800
2800
ENDCHAR
STARTCHAR uni0421.ss01
ENCODING -1
SWIDTH 704 0
DWIDTH 8 0
BBX 8 9 0 0
BITMAP
02F8
0F5E
2C0A
3805
7400
7400
3801
2D5A
0BE4
ENDCHAR
STARTCHAR uni0422.ss01
ENCODING -1
SWIDTH 631 0
DWIDTH 7 0
BBX 7 9 1 0
BITMAP
FFFC
5B50
0B00
0E00
0D00
1D00
1D00
2C00
1800
ENDCHAR
STARTCHAR uni0423.ss01
ENCODING -1
SWIDTH 776 0
DWIDTH 9 0
BBX 7 9 1 0
BITMAP
741C
741C
B02C
B03C
B5B8
7F78
0434
95B0
7F80
ENDCHAR
STARTCHAR uni040E.ss01
ENCODING -1
SWIDTH 776 0
DWIDTH 9 0
BBX 7 13 1 0
BITMAP
0014
0A24
07E0
0000
741C
741C
B02C
B03C
B5B8
7F78
0434
95B0
7F80
ENDCHAR
STARTCHAR uni0424.ss01
ENCODING -1
SWIDTH 978 0
DWIDTH 11 0
BBX 11 10 0 -1
BITMAP
001800
0BE9E0
1D7E74
383C38
743434
74B074
75F4B0
2EBFC0
00A000
00A000
ENDCHAR
STARTCHAR uni0425.ss01
ENCODING -1
SWIDTH 677 0
DWIDTH 7 0
BBX 9 9 -1 0
BITMAP
0701C0
038740
02DE00
00F800
00F000
03B400
0B2C00
2D1D00
740A00
ENDCHAR
STARTCHAR uni0427.ss01
ENCODING -1
SWIDTH 773 0
DWIDTH 9 0
BBX 7 9 1 0
BITMAP
741C
741C
702C
B038
B5B8
7F78
0434
0074
0070
ENDCHAR
STARTCHAR uni0426.ss01
ENCODING -1
SWIDTH 822 0
DWIDTH 9 0
BBX 8 12 1 -3
BITMAP
340D
341D
741D
702C
B03C
A078
E0F8
F7AD
7D1E
00BD
01DD
01F8
ENDCHAR
STARTCHAR uni0428.ss01
ENCODING -1
SWIDTH 1174 0
DWIDTH 13 0
BBX 12 9 1 0
BITMAP
341C0D
342C0D
74281D
70382C
B0743C
A0B07C
E1F0B8
F77AB8
7D2E34
ENDCHAR
STARTCHAR uni0429.ss01
ENCODING -1
SWIDTH 1194 0
DWIDTH 13 0
BBX 12 12 1 -3
BITMAP
341C0D
342C0D
74281D
70382C
B0743C
A0B07C
E1F0B8
F776AE
7D2E1E
0000BE
0001DD
0001F8
ENDCHAR
STARTCHAR uni040F.ss01
ENCODING -1
SWIDTH 800 0
DWIDTH 9 0
BBX 8 11 1 -2
BITMAP
340D
341D
741D
702C
B03C
A078
E0F8
F7B4
7E34
0D00
1C00
ENDCHAR
STARTCHAR uni042C.ss01
ENCODING -1
SWIDTH 721 0
DWIDTH 8 0
BBX 8 9 0 0
BITMAP
0A00
0D00
1D00
2EF8
BD5E
380E
280E
2D6C
0BE0
ENDCHAR
STARTCHAR uni042A.ss01
ENCODING -1
SWIDTH 863 0
DWIDTH 10 0
BBX 9 9 1 0
BITMAP
BFC000
074000
0B0000
0FFD00
3E5B40
1D0740
1D0740
0E5E00
06F400
ENDCHAR
STARTCHAR uni042B.ss01
ENCODING -1
SWIDTH 1078 0
DWIDTH 12 0
BBX 12 9 0 0
BITMAP
0A000D
0D000D
1D001D
2EF81C
BD5E2C
380E28
280E38
2D6C34
0BE034
ENDCHAR
STARTCHAR uni0409.ss01
ENCODING -1
SWIDTH 998 0
DWIDTH 11 0
BBX 12 9 -1 0
BITMAP
002C00
003C00
007C00
00BEF8
01ED5E
02AC0A
035C0E
1A0E6D
7807E4
ENDCHAR
STARTCHAR uni040A.ss01
ENCODING -1
SWIDTH 1102 0
DWIDTH 12 0
BBX 12 9 0 0
BITMAP
0A0A00
0E0E00
0D0D00
1E6FF9
7EAD5E
2C2C0B
282C0A
381D6D
340BE4
ENDCHAR
STARTCHAR uni0405.ss01
ENCODING -1
SWIDTH 693 0
DWIDTH 8 0
BBX 8 9 0 0
BITMAP
07F8
2D5D
280E
2D04
0BE0
107C
B01D
756C
2FE0
ENDCHAR
STARTCHAR uni0404.ss01
ENCODING -1
SWIDTH 704 0
DWIDTH 8 0
BBX 8 9 0 0
BITMAP
02F8
0F5E
2C0A
3805
7FD0
7540
3801
2D5A
0BE4
ENDCHAR
STARTCHAR uni042D.ss01
ENCODING -1
SWIDTH 755 0
DWIDTH 8 0
BBX 8 9 0 0
BITMAP
0BF4
296D
100B
000B
0BFF
000B
701D
7478
2FE0
ENDCHAR
STARTCHAR uni0406.ss01
ENCODING -1
SWIDTH 357 0
DWIDTH 4 0
BBX 3 9 1 0
BITMAP
34
34
74
70
B0
A0
E0
E0
D0
ENDCHAR
STARTCHAR uni0407.ss01
ENCODING -1
SWIDTH 357 0
DWIDTH 4 0
BBX 4 11 1 0
BITMAP
A7
00
34
34
74
70
B0
A0
E0
E0
D0
ENDCHAR
STARTCHAR uni0408.ss01
ENCODING -1
SWIDTH 716 0
DWIDTH 8 0
BBX 7 9 1 0
BITMAP
2FF8
E574
D074
90B0
00B0
00A0
40D0
E6C0
7E40
ENDCHAR
STARTCHAR uni040B.ss01
ENCODING -1
SWIDTH 884 0
DWIDTH 10 0
BBX 8 9 1 0
BITMAP
FFFC
5B50
0B00
0E00
0EBE
1F9B
1D0B
2C0B
280A
ENDCHAR
STARTCHAR uni042E.ss01
ENCODING -1
SWIDTH 1166 0
DWIDTH 13 0
BBX 13 9 0 0
BITMAP
0A02F900
0E0E5F00
0E2C0740
1D340380
7FF40380
2DB40740
28740B00
383D6D00
340BE400
ENDCHAR
STARTCHAR uni042F.ss01
ENCODING -1
SWIDTH 827 0
DWIDTH 9 0
BBX 8 9 1 0
BITMAP
0BFA
2D5E
381D
382D
1FFC
01EC
02DC
1B5C
F81C
ENDCHAR
STARTCHAR uni0402.ss01
ENCODING -1
SWIDTH 843 0
DWIDTH 9 0
BBX 8 14 1 -5
BITMAP
FFFC
5B50
0B00
0E00
0EBD
1F9B
1D0B
2C0B
180A
002E
00AD
029C
02B4
02E0
ENDCHAR
STARTCHAR uni0462.ss01
ENCODING -1
SWIDTH 721 0
DWIDTH 8 0
BBX 8 9 0 0
BITMAP
0A00
7F80
1D00
2EF8
7D5E
380E
280E
2D6C
0BE0
ENDCHAR
STARTCHAR uni046A.ss01
ENCODING -1
SWIDTH 1196 0
DWIDTH 13 0
BBX 13 9 0 0
BITMAP
2FFFFFC0
06D55D00
01C02C00
00D0B400
00BFD000
02DEE000
075D7400
1E1C3D00
B81C1B80
ENDCHAR
STARTCHAR uni0472.ss01
ENCODING -1
SWIDTH 816 0
DWIDTH 9 0
BBX 9 9 0 0
BITMAP
02F900
0E5B40
2C0380
3F8380
79BF80
740740
380B00
2D6D00
0BE400
ENDCHAR
STARTCHAR uni0474.ss01
ENCODING -1
SWIDTH 797 0
DWIDTH 9 0
BBX 10 9 1 0
BITMAP
700BE0
700E50
B00D00
B01D00
B02800
B03400
74B000
3AD000
1E4000
ENDCHAR
STARTCHAR uni0492.ss01
ENCODING -1
SWIDTH 634 0
DWIDTH 7 0
BBX 9 9 1 0
BITMAP
2FFF40
1B5400
0B0000
0E0000
7FC000
1D0000
1D0000
2C0000
280000
ENDCHAR
STARTCHAR uni0494.ss01
ENCODING -1
SWIDTH 889 0
DWIDTH 10 0
BBX 8 14 2 -5
BITMAP
BFFD
6D50
2C00
3800
3AF4
7E6C
742C
B02C
A028
00B8
02B4
0A70
0AD0
0B80
ENDCHAR
STARTCHAR uni0496.ss01
ENCODING -1
SWIDTH 1186 0
DWIDTH 13 0
BBX 13 12 0 -3
BITMAP
2E0707C0
07870E00
01CB2C00
00DA7400
00BFD000
02DEE000
075D7400
5E1C2E40
B81C0B40
00002F40
00007700
00007D00
ENDCHAR
STARTCHAR uni0498.ss01
ENCODING -1
SWIDTH 725 0
DWIDTH 8 0
BBX 8 12 0 -3
BITMAP
07F4
1D6C
1C1C
0428
03F8
100E
701D
797C
1FF0
06E0
0DD0
0F80
ENDCHAR
STARTCHAR uni049A.ss01
ENCODING -1
SWIDTH 779 0
DWIDTH 9 0
BBX 8 12 1 -3
BITMAP
280D
382C
7474
75E0
FF40
B780
E2D0
E0E4
D078
01F8
0374
07E0
ENDCHAR
STARTCHAR uni049C.ss01
ENCODING -1
SWIDTH 779 0
DWIDTH 9 0
BBX 8 9 1 0
BITMAP
280D
382C
7534
77E0
FF40
BB80
EAD0
E5E4
D07D
ENDCHAR
STARTCHAR uni049E.ss01
ENCODING -1
SWIDTH 779 0
DWIDTH 9 0
BBX 8 9 1 0
BITMAP
280D
382C
BF74
75E0
FF40
B780
E2D0
E0E4
D07D
ENDCHAR
STARTCHAR uni04A0.ss01
ENCODING -1
SWIDTH 964 0
DWIDTH 11 0
BBX 10 9 1 0
BITMAP
BFC0D0
0782C0
034380
075E00
0FF400
0B7800
0A1D00
0E0E40
0D07D0
ENDCHAR
STARTCHAR uni04A2.ss01
ENCODING -1
SWIDTH 846 0
DWIDTH 9 0
BBX 9 12 0 -3
BITMAP
0A0280
0E0380
0E0380
1D0740
7FFFC0
2D5B00
280B00
380B40
3407C0
001B80
003740
003E00
ENDCHAR
STARTCHAR uni04A4.ss01
ENCODING -1
SWIDTH 1026 0
DWIDTH 11 0
BBX 12 9 0 0
BITMAP
0A02FE
0E0394
0E0380
1D0740
7FFFC0
2D5B00
280B00
380E00
340D00
ENDCHAR
STARTCHAR uni0524.ss01
ENCODING -1
SWIDTH 892 0
DWIDTH 10 0
BBX 9 12 1 -3
BITMAP
BFFF80
395E00
381D00
741C00
742C00
B02800
B03800
E03E00
901E00
007E00
01DD00
01F800
ENDCHAR
STARTCHAR uni04A8.ss01
ENCODING -1
SWIDTH 997 0
DWIDTH 11 0
BBX 13 9 0 0
BITMAP
02D00000
0F4BE000
2C2D7800
38742C00
74702C00
74702800
38787400
2E6FEB40
06FAF900
ENDCHAR
STARTCHAR uni04AA.ss01
ENCODING -1
SWIDTH 704 0
DWIDTH 8 0
BBX 8 14 0 -5
BITMAP
02F8
0F5E
2C0A
3805
7400
7400
3801
2D5A
0BEE
002D
00AC
0198
02B4
01E0
ENDCHAR
STARTCHAR uni04AC.ss01
ENCODING -1
SWIDTH 697 0
DWIDTH 8 0
BBX 8 12 1 -3
BITMAP
7FFF
16D4
0280
0380
0340
0740
0700
0B40
0BC0
1E80
3740
3E00
ENDCHAR
STARTCHAR uni04AE.ss01
ENCODING -1
SWIDTH 677 0
DWIDTH 7 0
BBX 7 9 1 0
BITMAP
701C
3838
2CB0
1ED0
0F80
0700
0700
0B00
0A00
ENDCHAR
STARTCHAR uni04B0.ss01
ENCODING -1
SWIDTH 677 0
DWIDTH 7 0
BBX 7 9 1 0
BITMAP
701C
3874
2CA0
1EC0
0B40
2FD0
0B00
0B00
0A00
ENDCHAR
STARTCHAR uni04B2.ss01
ENCODING -1
SWIDTH 677 0
DWIDTH 7 0
BBX 9 12 -1 -3
BITMAP
0701C0
038740
02DE00
00F800
00F000
02B400
0B2C00
2D1E40
740B80
001F40
007700
007E00
ENDCHAR
STARTCHAR uni04B4.ss01
ENCODING -1
SWIDTH 965 0
DWIDTH 11 0
BBX 10 12 1 -3
BITMAP
FFF5C0
5B42C0
0B0280
0E0380
0E0740
1D0B40
1D1F40
1D7780
0B92D0
001FC0
002A80
002F40
ENDCHAR
STARTCHAR uni04B6.ss01
ENCODING -1
SWIDTH 804 0
DWIDTH 9 0
BBX 8 12 1 -3
BITMAP
741C
741C
702C
B038
B5B8
7F74
0434
003D
001D
00AD
02DC
01F4
ENDCHAR
STARTCHAR uni04B8.ss01
ENCODING -1
SWIDTH 773 0
DWIDTH 9 0
BBX 7 9 1 0
BITMAP
741C
741C
742C
B238
B678
BBF8
2E34
0574
0070
ENDCHAR
STARTCHAR uni04BA.ss01
ENCODING -1
SWIDTH 744 0
DWIDTH 8 0
BBX 7 9 1 0
BITMAP
3400
3400
7400
7400
B6E0
B978
F038
E034
D034
ENDCHAR
STARTCHAR uni0526.ss01
ENCODING -1
SWIDTH 818 0
DWIDTH 9 0
BBX 8 12 1 -3
BITMAP
2800
3800
7400
7400
B6E0
B978
F038
E03D
D03E
006D
01DC
01F8
ENDCHAR
STARTCHAR uni0528.ss01
ENCODING -1
SWIDTH 846 0
DWIDTH 9 0
BBX 11 12 -2 -3
BITMAP
00A028
00E038
00E038
01D074
07FFFC
02D5B0
0280B0
0380E0
0340D0
074000
9B0000
BD0000
ENDCHAR
STARTCHAR uni052E.ss01
ENCODING -1
SWIDTH 706 0
DWIDTH 8 0
BBX 9 12 -1 -3
BITMAP
002C00
003C00
007C00
00BC00
01EC00
02DC00
035C00
1A1D40
780B80
001F80
007740
007E00
ENDCHAR
STARTCHAR uni04BC.ss01
ENCODING -1
SWIDTH 824 0
DWIDTH 9 0
BBX 9 9 0 0
BITMAP
007E40
02D680
0741C0
2B02C0
7FFF80
0E5400
0B0000
079580
01BE40
ENDCHAR
STARTCHAR uni04BE.ss01
ENCODING -1
SWIDTH 824 0
DWIDTH 9 0
BBX 9 12 0 -3
BITMAP
007E40
02D680
0741C0
2B02C0
7FFF80
0E5400
0B0000
079580
01FE40
01C000
018000
00F400
ENDCHAR
STARTCHAR uni04C0.ss01
ENCODING -1
SWIDTH 357 0
DWIDTH 4 0
BBX 3 9 1 0
BITMAP
34
34
74
70
B0
A0
E0
E0
D0
ENDCHAR
STARTCHAR uni04C1.ss01
ENCODING -1
SWIDTH 1196 0
DWIDTH 13 0
BBX 13 13 0 0
BITMAP
00001000
001C6000
000B8000
00000000
2E0707C0
07870E00
01CB2C00
00DA7400
00BFD000
02DEE000
075D7400
5E1C3D40
B81C1B80
ENDCHAR
STARTCHAR uni04C3.ss01
ENCODING -1
SWIDTH 779 0
DWIDTH 9 0
BBX 8 12 1 -3
BITMAP
280D
382C
7474
75E0
FF40
B780
E2D0
E0E4
D078
01F8
0374
07E0
ENDCHAR
STARTCHAR uni04C5.ss01
ENCODING -1
SWIDTH 706 0
DWIDTH 8 0
BBX 9 11 -1 -2
BITMAP
002C00
003C00
007C00
00BC00
01EC00
02DC00
035C00
1A0E40
780B80
000A00
001C00
ENDCHAR
STARTCHAR uni04C7.ss01
ENCODING -1
SWIDTH 846 0
DWIDTH 9 0
BBX 9 12 0 -3
BITMAP
0A0280
0E0380
0E0380
1D0740
7FFFC0
2D5B00
280B00
380B40
3407C0
001B80
003740
003E00
ENDCHAR
STARTCHAR uni04C9.ss01
ENCODING -1
SWIDTH 873 0
DWIDTH 10 0
BBX 9 12 0 -3
BITMAP
0A0280
0E0380
0E0380
1D0740
7FFFC0
2D5B00
280B00
380E40
340F80
000B00
000D00
000400
ENDCHAR
STARTCHAR uni04CB.ss01
ENCODING -1
SWIDTH 773 0
DWIDTH 9 0
BBX 7 12 1 -3
BITMAP
741C
741C
702C
B038
B5B8
7F78
0434
0074
01F0
1EC0
3A80
2F00
ENDCHAR
STARTCHAR uni04CD.ss01
ENCODING -1
SWIDTH 967 0
DWIDTH 11 0
BBX 11 11 0 -2
BITMAP
02C1D0
03C2D0
07C7D0
0BCAD0
0ADDD0
0DEDD0
1CF8D0
78B4E4
A060B4
0000E0
000180
ENDCHAR
STARTCHAR uni04D0.ss01
ENCODING -1
SWIDTH 780 0
DWIDTH 9 0
BBX 9 13 0 0
BITMAP
000040
003180
002E40
000000
01BF80
079500
1E0700
380A00
740E00
741D00
742D00
39BD00
1F9C00
ENDCHAR
STARTCHAR uni04D2.ss01
ENCODING -1
SWIDTH 780 0
DWIDTH 9 0
BBX 9 11 0 0
BITMAP
003680
000000
01BF80
079500
1E0700
380A00
740E00
741D00
742D00
39BD00
1F9C00
ENDCHAR
STARTCHAR uni04D4.ss01
ENCODING -1
SWIDTH 1057 0
DWIDTH 12 0
BBX 12 9 0 0
BITMAP
01B6FE
079754
1E0700
380B00
740FFC
741E50
742D00
39BB55
1F82FD
ENDCHAR
STARTCHAR uni04D6.ss01
ENCODING -1
SWIDTH 720 0
DWIDTH 8 0
BBX 8 13 0 0
BITMAP
0001
0289
01F8
0000
06F8
1E5E
2C0A
1D05
0BD0
3900
7401
795A
1FE4
ENDCHAR
STARTCHAR uni04D8.ss01
ENCODING -1
SWIDTH 792 0
DWIDTH 9 0
BBX 9 9 0 0
BITMAP
06F800
1D5F00
000740
000340
3FFF40
755B40
740B00
2D6D00
0BE400
ENDCHAR
STARTCHAR uni04DA.ss01
ENCODING -1
SWIDTH 792 0
DWIDTH 9 0
BBX 9 11 0 0
BITMAP
029C00
000000
06F800
1D5F00
000740
000340
3FFF40
755B40
740B00
2D6D00
0BE400
ENDCHAR
STARTCHAR uni04DC.ss01
ENCODING -1
SWIDTH 1196 0
DWIDTH 13 0
BBX 13 11 0 0
BITMAP
001DD000
00000000
2E0707C0
07870E00
01CB2C00
00DA7400
00BFD000
02DEE000
075D7400
5E1C3D40
B81C1B80
ENDCHAR
STARTCHAR uni04DE.ss01
ENCODING -1
SWIDTH 725 0
DWIDTH 8 0
BBX 8 11 0 0
BITMAP
029C
0000
07F4
1D6C
1C1C
0428
03F8
100E
701E
797C
1FE0
ENDCHAR
STARTCHAR uni04E0.ss01
ENCODING -1
SWIDTH 744 0
DWIDTH 8 0
BBX 9 9 0 0
BITMAP
0BFE00
1D5F40
1C1D00
007800
03F800
100E00
701E00
797C00
1FE000
ENDCHAR
STARTCHAR uni04E2.ss01
ENCODING -1
SWIDTH 800 0
DWIDTH 9 0
BBX 8 11 1 0
BITMAP
07F0
0140
340D
341D
741D
702C
B03C
A078
E0F8
F7B4
7D34
ENDCHAR
STARTCHAR uni04E4.ss01
ENCODING -1
SWIDTH 800 0
DWIDTH 9 0
BBX 8 11 1 0
BITMAP
0734
0000
340D
341D
741D
702C
B03C
A078
E0F8
F7B4
7D34
ENDCHAR
STARTCHAR uni04E6.ss01
ENCODING -1
SWIDTH 816 0
DWIDTH 9 0
BBX 9 11 0 0
BITMAP
01CD00
000000
02F900
0E5B40
2C0380
380380
740380
740340
380B00
2D6D00
0BE400
ENDCHAR
STARTCHAR uni04E8.ss01
ENCODING -1
SWIDTH 816 0
DWIDTH 9 0
BBX 9 9 0 0
BITMAP
02F900
0F5B40
2C0380
380380
7FFF80
740740
380B00
2D6D00
0BE400
ENDCHAR
STARTCHAR uni04EA.ss01
ENCODING -1
SWIDTH 816 0
DWIDTH 9 0
BBX 9 11 0 0
BITMAP
01CD00
000000
02F900
0F5B40
2C0380
380380
7FFF80
740740
380B00
2D6D00
0BE400
ENDCHAR
STARTCHAR uni04EC.ss01
ENCODING -1
SWIDTH 755 0
DWIDTH 8 0
BBX 8 11 0 0
BITMAP
029C
0000
0BF4
296D
100B
000B
0BFF
000B
701D
7478
2FE0
ENDCHAR
STARTCHAR uni04EE.ss01
ENCODING -1
SWIDTH 776 0
DWIDTH 9 0
BBX 7 11 1 0
BITMAP
0BE0
0140
741C
741C
B02C
B03C
B5B8
7F78
0434
95B0
7F80
ENDCHAR
STARTCHAR uni04F0.ss01
ENCODING -1
SWIDTH 776 0
DWIDTH 9 0
BBX 7 11 1 0
BITMAP
0A70
0000
741C
741C
B02C
B03C
B5B8
7F78
0434
95B0
7F80
ENDCHAR
STARTCHAR uni04F2.ss01
ENCODING -1
SWIDTH 776 0
DWIDTH 9 0
BBX 7 13 1 0
BITMAP
0110
0374
0660
0000
741C
741C
B02C
B03C
B5B8
7F78
0434
95B0
7F80
ENDCHAR
STARTCHAR uni04F4.ss01
ENCODING -1
SWIDTH 773 0
DWIDTH 9 0
BBX 7 11 1 0
BITMAP
0A70
0000
741C
741C
702C
B038
B5B8
7F78
0434
0074
0070
ENDCHAR
STARTCHAR uni04F6.ss01
ENCODING -1
SWIDTH 600 0
DWIDTH 7 0
BBX 9 12 1 -3
BITMAP
2FFF40
1B5400
0B0000
0E0000
0D0000
1D0000
1C0000
2D0000
2F0000
7A0000
DD0000
F80000
ENDCHAR
STARTCHAR uni04F8.ss01
ENCODING -1
SWIDTH 1078 0
DWIDTH 12 0
BBX 12 11 0 0
BITMAP
0029C0
000000
0A000D
0D000D
1D001D
2EF81C
BD5E2C
380E28
280E38
2D6C34
0BE034
ENDCHAR
STARTCHAR uni04FA.ss01
ENCODING -1
SWIDTH 634 0
DWIDTH 7 0
BBX 11 13 -1 -4
BITMAP
02FFF4
01B540
00B000
00E000
07FC00
01D000
01D000
02C000
02C000
038000
034000
670000
7D0000
ENDCHAR
STARTCHAR uni04FC.ss01
ENCODING -1
SWIDTH 846 0
DWIDTH 9 0
BBX 9 12 0 -3
BITMAP
0A0280
0E0380
0E0380
1D0740
7FFFC0
2D5B00
280B00
380B40
3407C0
001B80
003740
003E00
ENDCHAR
STARTCHAR uni04FE.ss01
ENCODING -1
SWIDTH 677 0
DWIDTH 7 0
BBX 9 9 -1 0
BITMAP
0701C0
038780
02CE00
01F800
0BFE00
02F400
0B6C00
2D1D00
740A00
ENDCHAR
STARTCHAR uni0510.ss01
ENCODING -1
SWIDTH 706 0
DWIDTH 8 0
BBX 8 9 0 0
BITMAP
07F4
0E6D
1C0D
0E00
1FD0
7400
740D
7D6C
1BE4
ENDCHAR
STARTCHAR uni0512.ss01
ENCODING -1
SWIDTH 706 0
DWIDTH 8 0
BBX 9 12 -1 -3
BITMAP
002C00
003C00
007C00
00BC00
01EC00
02DC00
035C00
1A1D40
780B80
001F80
007740
007E00
ENDCHAR
STARTCHAR uni051A.ss01
ENCODING -1
SWIDTH 816 0
DWIDTH 9 0
BBX 9 12 0 -3
BITMAP
02F900
0E5B40
2C0380
380380
740380
740380
380B40
2D1E00
0BF400
01E000
007800
002C00
ENDCHAR
STARTCHAR uni051C.ss01
ENCODING -1
SWIDTH 1236 0
DWIDTH 14 0
BBX 13 9 1 0
BITMAP
700D0280
701D0380
B02D0740
B03C0B00
B07C0E00
B0BC1D00
70DD2800
7B8EB000
2E079000
ENDCHAR
STARTCHAR uni048C.ss01
ENCODING -1
SWIDTH 721 0
DWIDTH 8 0
BBX 8 9 0 0
BITMAP
0A00
7F80
1D00
2EF8
7D5E
380E
280E
2D6C
0BE0
ENDCHAR
STARTCHAR uni048E.ss01
ENCODING -1
SWIDTH 662 0
DWIDTH 7 0
BBX 8 9 0 0
BITMAP
1BE4
1E6C
0E1D
0D7D
1D7E
7FE0
2C00
2800
2800
ENDCHAR
STARTCHAR uni0430.fina
ENCODING -1
SWIDTH 458 0
DWIDTH 5 0
BBX 5 5 0 0
BITMAP
1B80
3A80
7380
B740
7B40
ENDCHAR
STARTCHAR uni0431.fina
ENCODING -1
SWIDTH 473 0
DWIDTH 5 0
BBX 5 10 0 0
BITMAP
06C0
2E40
2800
0E00
0740
2F80
76C0
B280
7740
2E00
ENDCHAR
STARTCHAR uni0432.fina
ENCODING -1
SWIDTH 475 0
DWIDTH 5 0
BBX 5 10 0 0
BITMAP
0740
1E80
2980
3640
3600
7F40
76C0
71C0
3680
2E00
ENDCHAR
STARTCHAR uni0433.fina
ENCODING -1
SWIDTH 382 0
DWIDTH 4 0
BBX 5 5 0 0
BITMAP
6E00
1B00
2800
B640
7E00
ENDCHAR
STARTCHAR uni0453.fina
ENCODING -1
SWIDTH 382 0
DWIDTH 4 0
BBX 5 9 0 0
BITMAP
0340
0600
0800
0000
6E00
1B00
2800
B640
7E00
ENDCHAR
STARTCHAR uni0491.fina
ENCODING -1
SWIDTH 394 0
DWIDTH 4 0
BBX 5 7 0 0
BITMAP
0040
0280
3F40
7400
7000
7000
6000
ENDCHAR
STARTCHAR uni0434.fina
ENCODING -1
SWIDTH 449 0
DWIDTH 5 0
BBX 5 10 0 -5
BITMAP
1A40
3A80
7380
B740
7B40
0B00
3A00
9900
DC00
B400
ENDCHAR
STARTCHAR uni0435.fina
ENCODING -1
SWIDTH 411 0
DWIDTH 5 0
BBX 5 5 0 0
BITMAP
1E00
7740
BA00
7580
2E40
ENDCHAR
STARTCHAR uni0450.fina
ENCODING -1
SWIDTH 411 0
DWIDTH 5 0
BBX 5 10 0 0
BITMAP
1000
3400
1C00
0900
0000
1E00
7740
BA00
7580
2E40
ENDCHAR
STARTCHAR uni0451.fina
ENCODING -1
SWIDTH 411 0
DWIDTH 5 0
BBX 5 7 0 0
BITMAP
29C0
0000
1E00
7740
BA00
7580
2E40
ENDCHAR
STARTCHAR uni0436.fina
ENCODING -1
SWIDTH 783 0
DWIDTH 9 0
BBX 9 5 0 0
BITMAP
2DDF00
2BFB40
57F100
AAF580
799F40
ENDCHAR
STARTCHAR uni0437.fina
ENCODING -1
SWIDTH 395 0
DWIDTH 4 0
BBX 6 10 -1 -5
BITMAP
0BC0
09D0
01C0
1E00
0B00
0740
1B40
3340
6A00
7800
ENDCHAR
STARTCHAR uni0438.fina
ENCODING -1
SWIDTH 460 0
DWIDTH 5 0
BBX 5 5 0 0
BITMAP
3580
7280
7380
7B40
7740
ENDCHAR
STARTCHAR uni0439.fina
ENCODING -1
SWIDTH 460 0
DWIDTH 5 0
BBX 6 8 0 0
BITMAP
24D0
2F40
0000
3580
7280
7380
7B40
7740
ENDCHAR
STARTCHAR uni045D.fina
ENCODING -1
SWIDTH 460 0
DWIDTH 5 0
BBX 5 10 0 0
BITMAP
1400
2800
0D00
0600
0000
3580
7280
7380
7B40
7740
ENDCHAR
STARTCHAR uni048B.fina
ENCODING -1
SWIDTH 460 0
DWIDTH 5 0
BBX 5 10 0 -2
BITMAP
2480
1F40
0000
3580
7280
7380
7B80
7780
0700
0900
ENDCHAR
STARTCHAR uni043A.fina
ENCODING -1
SWIDTH 541 0
DWIDTH 6 0
BBX 6 5 0 0
BITMAP
36D0
7A90
7D40
7E60
77D0
ENDCHAR
STARTCHAR uni045C.fina
ENCODING -1
SWIDTH 541 0
DWIDTH 6 0
BBX 6 9 0 0
BITMAP
00C0
0280
0200
0000
36D0
7A90
7D40
7E60
77D0
ENDCHAR
STARTCHAR uni043B.fina
ENCODING -1
SWIDTH 463 0
DWIDTH 5 0
BBX 5 5 0 0
BITMAP
0B00
0F00
2B00
7740
D280
ENDCHAR
STARTCHAR uni043C.fina
ENCODING -1
SWIDTH 669 0
DWIDTH 7 0
BBX 7 5 0 0
BITMAP
0D74
1EB4
2BE4
7768
D31C
ENDCHAR
STARTCHAR uni043D.fina
ENCODING -1
SWIDTH 462 0
DWIDTH 5 0
BBX 5 5 0 0
BITMAP
35C0
7280
7F80
7340
6340
ENDCHAR
STARTCHAR uni043E.fina
ENCODING -1
SWIDTH 453 0
DWIDTH 5 0
BBX 5 5 0 0
BITMAP
2E00
7680
A280
7740
2E00
ENDCHAR
STARTCHAR uni043F.fina
ENCODING -1
SWIDTH 484 0
DWIDTH 5 0
BBX 5 5 0 0
BITMAP
36C0
7BC0
7AC0
7680
7280
ENDCHAR
STARTCHAR uni0440.fina
ENCODING -1
SWIDTH 457 0
DWIDTH 5 0
BBX 7 10 -2 -5
BITMAP
07B4
07AC
0728
0B74
1FD0
2B00
3600
6A00
6900
3800
ENDCHAR
STARTCHAR uni0441.fina
ENCODING -1
SWIDTH 404 0
DWIDTH 4 0
BBX 5 5 0 0
BITMAP
2E00
7700
A100
B680
2E00
ENDCHAR
STARTCHAR uni0442.fina
ENCODING -1
SWIDTH 732 0
DWIDTH 8 0
BBX 8 5 0 0
BITMAP
368A
7BEE
7ADA
76CD
728D
ENDCHAR
STARTCHAR uni0443.fina
ENCODING -1
SWIDTH 449 0
DWIDTH 5 0
BBX 5 10 0 -5
BITMAP
3580
7280
7340
7B40
7B00
0B00
2A00
9900
DC00
B400
ENDCHAR
STARTCHAR uni045E.fina
ENCODING -1
SWIDTH 449 0
DWIDTH 5 0
BBX 6 13 0 -5
BITMAP
24D0
2F40
0000
3580
7280
7340
7B40
7B00
0B00
2A00
9900
DC00
B400
ENDCHAR
STARTCHAR uni0444.fina
ENCODING -1
SWIDTH 721 0
DWIDTH 8 0
BBX 8 13 0 -4
BITMAP
0050
00D0
00D0
01C0
1BAC
3ADD
738D
B7AC
7BE4
0340
0340
0340
0100
ENDCHAR
STARTCHAR uni0445.fina
ENCODING -1
SWIDTH 580 0
DWIDTH 6 0
BBX 7 5 0 0
BITMAP
2DA0
2BA0
1700
AB68
BAE0
ENDCHAR
STARTCHAR uni0447.fina
ENCODING -1
SWIDTH 422 0
DWIDTH 5 0
BBX 5 6 0 0
BITMAP
1000
3F40
0E00
3400
7580
2E40
ENDCHAR
STARTCHAR uni0446.fina
ENCODING -1
SWIDTH 468 0
DWIDTH 5 0
BBX 5 8 0 -3
BITMAP
3580
7280
7340
7B80
7680
0B80
1A40
2E00
ENDCHAR
STARTCHAR uni0448.fina
ENCODING -1
SWIDTH 693 0
DWIDTH 8 0
BBX 8 5 0 0
BITMAP
3589
729D
776C
7BBC
7ADC
ENDCHAR
STARTCHAR uni0449.fina
ENCODING -1
SWIDTH 699 0
DWIDTH 8 0
BBX 8 8 0 -3
BITMAP
3589
729C
776C
7BBD
7ADD
002C
00DC
00F4
ENDCHAR
STARTCHAR uni045F.fina
ENCODING -1
SWIDTH 462 0
DWIDTH 5 0
BBX 5 6 0 -1
BITMAP
3580
7280
7380
7B40
7740
2000
ENDCHAR
STARTCHAR uni044C.fina
ENCODING -1
SWIDTH 517 0
DWIDTH 6 0
BBX 5 5 0 0
BITMAP
3400
7B80
76C0
76C0
2F40
ENDCHAR
STARTCHAR uni044A.fina
ENCODING -1
SWIDTH 543 0
DWIDTH 6 0
BBX 6 5 0 0
BITMAP
6D00
3F80
39D0
39C0
1F40
ENDCHAR
STARTCHAR uni044B.fina
ENCODING -1
SWIDTH 683 0
DWIDTH 8 0
BBX 8 5 0 0
BITMAP
3409
7B8D
76DC
76DC
2F58
ENDCHAR
STARTCHAR uni0459.fina
ENCODING -1
SWIDTH 709 0
DWIDTH 8 0
BBX 8 5 -1 0
BITMAP
02C0
03EE
0AE7
1DD7
74BD
ENDCHAR
STARTCHAR uni045A.fina
ENCODING -1
SWIDTH 751 0
DWIDTH 8 0
BBX 8 5 0 0
BITMAP
35C0
72AD
7FDE
729D
61F8
ENDCHAR
STARTCHAR uni0455.fina
ENCODING -1
SWIDTH 394 0
DWIDTH 4 0
BBX 5 5 0 0
BITMAP
0D00
2D00
7B00
DB40
1E00
ENDCHAR
STARTCHAR uni0454.fina
ENCODING -1
SWIDTH 426 0
DWIDTH 5 0
BBX 5 5 0 0
BITMAP
2F00
7640
BD00
7580
2F40
ENDCHAR
STARTCHAR uni044D.fina
ENCODING -1
SWIDTH 476 0
DWIDTH 5 0
BBX 5 5 0 0
BITMAP
2F40
16C0
0FC0
A680
7E00
ENDCHAR
STARTCHAR uni0456.fina
ENCODING -1
SWIDTH 222 0
DWIDTH 2 0
BBX 3 7 0 0
BITMAP
2C
00
34
74
70
B0
A0
ENDCHAR
STARTCHAR uni0457.fina
ENCODING -1
SWIDTH 222 0
DWIDTH 2 0
BBX 4 7 0 0
BITMAP
A6
00
34
74
70
B0
A0
ENDCHAR
STARTCHAR uni0458.fina
ENCODING -1
SWIDTH 229 0
DWIDTH 3 0
BBX 6 12 -3 -5
BITMAP
00E0
0000
00D0
01D0
01C0
01C0
0280
0780
1B40
3700
6A00
7800
ENDCHAR
STARTCHAR uni045B.fina
ENCODING -1
SWIDTH 490 0
DWIDTH 5 0
BBX 5 9 0 0
BITMAP
0D00
1C00
7F80
3800
36C0
7BC0
79C0
7680
7280
ENDCHAR
STARTCHAR uni044E.fina
ENCODING -1
SWIDTH 676 0
DWIDTH 7 0
BBX 8 5 0 0
BITMAP
35B4
739C
7F4D
779C
61F4
ENDCHAR
STARTCHAR uni044F.fina
ENCODING -1
SWIDTH 496 0
DWIDTH 5 0
BBX 5 5 0 0
BITMAP
2FC0
3680
2F80
1E80
F580
ENDCHAR
STARTCHAR uni0452.fina
ENCODING -1
SWIDTH 493 0
DWIDTH 5 0
BBX 5 14 0 -5
BITMAP
0D00
1C00
7F80
3900
36C0
7BC0
79C0
7680
7280
0740
2B00
6600
A900
7800
ENDCHAR
STARTCHAR uni0463.fina
ENCODING -1
SWIDTH 517 0
DWIDTH 6 0
BBX 5 7 0 0
BITMAP
1800
2800
BE00
7B80
76C0
76C0
2F40
ENDCHAR
STARTCHAR uni046B.fina
ENCODING -1
SWIDTH 878 0
DWIDTH 10 0
BBX 10 9 0 0
BITMAP
001C00
003C00
007C00
00AC00
07DF80
02DD00
12EC00
ABFD60
B8D7D0
ENDCHAR
STARTCHAR uni0473.fina
ENCODING -1
SWIDTH 453 0
DWIDTH 5 0
BBX 5 5 0 0
BITMAP
2E00
7680
BF80
7740
2E00
ENDCHAR
STARTCHAR uni0475.fina
ENCODING -1
SWIDTH 420 0
DWIDTH 5 0
BBX 6 5 0 0
BITMAP
61F0
7280
7700
7E00
3800
ENDCHAR
STARTCHAR uni0493.fina
ENCODING -1
SWIDTH 407 0
DWIDTH 4 0
BBX 5 5 0 0
BITMAP
2F00
1740
6E00
7680
2E00
ENDCHAR
STARTCHAR uni0495.fina
ENCODING -1
SWIDTH 442 0
DWIDTH 5 0
BBX 4 8 0 -3
BITMAP
6E
1B
28
75
7F
1F
3A
7C
ENDCHAR
STARTCHAR uni0497.fina
ENCODING -1
SWIDTH 784 0
DWIDTH 9 0
BBX 9 8 0 -3
BITMAP
2DDF00
2BEB40
17F100
AAF500
B99F00
001B00
003A00
007C00
ENDCHAR
STARTCHAR uni0499.fina
ENCODING -1
SWIDTH 405 0
DWIDTH 4 0
BBX 5 9 0 -4
BITMAP
2F40
6740
0A00
0B40
A740
2E00
A900
DD00
F800
ENDCHAR
STARTCHAR uni049B.fina
ENCODING -1
SWIDTH 533 0
DWIDTH 6 0
BBX 6 8 0 -3
BITMAP
36D0
7A90
7D40
7E40
77C0
06C0
0E80
1F00
ENDCHAR
STARTCHAR uni049D.fina
ENCODING -1
SWIDTH 567 0
DWIDTH 6 0
BBX 7 5 0 0
BITMAP
36D0
7BA0
7E00
7E64
62E0
ENDCHAR
STARTCHAR uni049F.fina
ENCODING -1
SWIDTH 541 0
DWIDTH 6 0
BBX 6 5 0 0
BITMAP
BED0
7E90
7D40
7E60
77D0
ENDCHAR
STARTCHAR uni04A1.fina
ENCODING -1
SWIDTH 639 0
DWIDTH 7 0
BBX 7 5 0 0
BITMAP
7DB4
1EA4
1F50
1F98
1DB8
ENDCHAR
STARTCHAR uni04A3.fina
ENCODING -1
SWIDTH 482 0
DWIDTH 5 0
BBX 5 8 0 -3
BITMAP
35C0
7180
7F80
7380
62C0
0780
1A80
1F00
ENDCHAR
STARTCHAR uni04A5.fina
ENCODING -1
SWIDTH 462 0
DWIDTH 5 0
BBX 6 6 0 0
BITMAP
0010
35D0
7280
7F80
7340
6340
ENDCHAR
STARTCHAR uni0525.fina
ENCODING -1
SWIDTH 503 0
DWIDTH 6 0
BBX 5 8 0 -3
BITMAP
36C0
7BC0
7A80
7680
71C0
06C0
0D80
0F40
ENDCHAR
STARTCHAR uni04A9.fina
ENCODING -1
SWIDTH 644 0
DWIDTH 7 0
BBX 8 5 0 0
BITMAP
2DE0
7770
A730
B7A9
2FF4
ENDCHAR
STARTCHAR uni04AB.fina
ENCODING -1
SWIDTH 404 0
DWIDTH 4 0
BBX 4 8 0 -3
BITMAP
2E
77
A1
B5
2F
1F
6A
7C
ENDCHAR
ENDFONT
